<svg width="709" height="625" viewBox="0 0 709 625" fill="none" xmlns="http://www.w3.org/2000/svg">
<g clip-path="url(#clip0_6_2130)">
<path d="M350.071 625C543.409 625 700.141 615.092 700.141 602.871C700.141 590.649 543.409 580.741 350.071 580.741C156.732 580.741 0 590.649 0 602.871C0 615.092 156.732 625 350.071 625Z" fill="#DBE6F7"/>
<path d="M214.662 66.2304C214.662 67.8111 214.029 69.3918 212.921 70.4982C211.814 71.6047 210.39 72.237 208.65 72.237H79.8851C76.5632 72.237 73.874 69.5498 73.874 66.2304C73.874 64.6497 74.5067 63.0691 75.614 61.9626C76.7213 60.8561 78.145 60.2238 79.8851 60.2238H85.8963C88.2691 54.6915 93.8057 50.7398 100.291 50.7398C104.721 50.7398 108.517 52.4785 111.365 55.3237C115.161 48.843 122.121 44.5751 130.189 44.5751C132.404 44.5751 134.46 44.8913 136.517 45.5235C140.629 37.6202 149.013 32.2458 158.505 32.2458C170.052 32.2458 179.544 39.9912 182.549 50.5817C184.606 49.4752 186.979 48.843 189.51 48.843C196.628 48.843 202.639 53.585 204.538 60.2238H208.492C211.972 60.2238 214.662 62.911 214.662 66.2304Z" fill="#DBE6F7"/>
<path d="M709 146.213C709 147.793 708.367 149.374 707.26 150.481C706.153 151.587 704.729 152.219 702.989 152.219H574.224C570.902 152.219 568.212 149.532 568.212 146.213C568.212 144.632 568.845 143.051 569.952 141.945C571.06 140.838 572.483 140.206 574.224 140.206H580.235C582.608 134.674 588.144 130.722 594.63 130.722C599.059 130.722 602.856 132.461 605.703 135.306C609.5 128.825 616.46 124.557 624.527 124.557C626.742 124.557 628.798 124.874 630.855 125.506C634.968 117.602 643.352 112.228 652.843 112.228C664.391 112.228 673.882 119.973 676.888 130.564C678.944 129.458 681.317 128.825 683.848 128.825C690.966 128.825 696.978 133.567 698.876 140.206H702.831C706.311 140.206 709 142.893 709 146.213Z" fill="#DBE6F7"/>
<path d="M472.35 81.4049C472.35 82.9856 471.718 84.5663 470.61 85.6728C469.503 86.7792 468.079 87.4115 466.339 87.4115H337.574C334.252 87.4115 331.563 84.7243 331.563 81.4049C331.563 79.8242 332.195 78.2436 333.303 77.1371C334.41 76.0306 335.834 75.3983 337.574 75.3983H343.585C345.958 69.866 351.494 65.9143 357.98 65.9143C362.409 65.9143 366.206 67.653 369.053 70.4982C372.85 64.0175 379.81 59.7496 387.878 59.7496C390.092 59.7496 392.149 60.0658 394.205 60.698C398.318 52.7947 406.702 47.4203 416.193 47.4203C427.741 47.4203 437.391 55.1657 440.238 65.7562C442.295 64.6497 444.667 64.0175 447.198 64.0175C454.317 64.0175 460.328 68.7595 462.226 75.3983H466.181C469.661 75.3983 472.35 78.0855 472.35 81.4049Z" fill="#DBE6F7"/>
<path d="M59.9534 223.192C65.1736 240.737 82.7325 240.263 82.2579 254.489C81.9415 268.715 90.8001 279.622 103.139 276.935C115.477 274.248 124.336 271.719 130.031 285.945C135.726 300.171 153.601 307.126 160.719 296.061C162.459 293.216 164.358 290.212 166.256 287.367C166.73 286.577 167.205 285.787 167.838 284.996C167.996 284.838 167.996 284.68 168.154 284.522C175.589 272.667 173.216 256.86 162.143 248.166C157.714 244.689 152.335 242.634 146.166 244.373C127.183 249.905 133.985 230.779 122.596 222.717C109.466 213.391 98.3931 223.982 89.3764 216.079C77.0377 204.698 54.7331 205.646 59.9534 223.192Z" fill="#BBD4F2"/>
<path d="M82.5743 230.779L166.098 287.209C166.572 286.419 167.047 285.628 167.68 284.838L84.1562 228.566C83.5234 228.092 82.5743 228.25 82.2579 228.882C81.7834 229.514 81.9416 230.305 82.5743 230.779Z" fill="#A4C8F2"/>
<path d="M473.458 138.625C493.073 130.406 510.316 119.025 500.824 112.228C491.333 105.431 462.226 125.506 448.78 149.216L442.295 156.171C452.419 139.1 455.424 114.283 446.566 109.541C437.865 104.799 437.391 121.554 439.447 136.729C441.029 148.426 439.447 156.329 438.182 160.281L407.493 193.317C423.47 166.129 428.058 127.086 414.295 119.657C400.533 112.228 399.742 138.625 403.064 162.968C405.595 181.304 403.064 193.949 401.166 200.272L394.996 206.911C395.945 208.175 396.894 209.44 398.002 210.546L434.543 171.345C438.973 170.239 445.3 169.291 453.526 169.923C468.87 171.029 485.48 169.291 480.26 160.913C475.672 153.642 456.848 156.171 441.187 164.232L453.842 150.639C458.43 147.161 465.074 142.261 473.458 138.625Z" fill="#DBE6F7"/>
<path d="M82.0997 152.377C80.0433 169.291 95.2293 175.455 89.6928 187.468C83.998 199.482 87.7945 212.127 99.1841 214.498C110.732 216.869 119.274 217.975 118.799 232.202C118.325 246.428 130.98 259.073 141.262 252.276C143.793 250.537 146.641 248.641 149.33 246.902C150.121 246.428 150.753 245.953 151.544 245.479C151.703 245.321 151.861 245.321 152.019 245.163C162.934 237.734 166.572 223.35 160.403 211.811C157.872 207.069 154.075 203.433 148.222 202.643C129.873 200.43 142.844 186.52 136.2 175.455C128.449 162.652 115.003 167.552 110.257 157.436C103.455 142.893 84.1562 135.306 82.0997 152.377Z" fill="#DBE6F7"/>
<path d="M98.7095 167.236L149.33 246.586C150.121 246.112 150.753 245.637 151.544 245.163L100.924 165.971C100.608 165.339 99.6586 165.181 99.0258 165.497C98.3931 165.813 98.2349 166.603 98.7095 167.236Z" fill="#BBD4F2"/>
<path d="M490.067 494.594C484.689 512.614 466.814 511.982 467.13 526.682C467.446 541.224 458.271 552.289 445.775 549.602C433.12 546.915 423.945 544.227 418.25 558.77C412.555 573.312 394.205 580.583 386.929 569.044C385.189 566.199 383.132 563.037 381.234 560.034C380.759 559.244 380.126 558.453 379.652 557.505C379.494 557.347 379.336 557.189 379.336 556.873C371.584 544.702 374.115 528.579 385.505 519.569C390.092 515.933 395.629 513.878 401.798 515.775C421.255 521.466 414.295 501.865 425.843 493.646C439.289 484.162 450.678 494.91 459.853 486.691C472.508 475.626 495.446 476.574 490.067 494.594Z" fill="#BBD4F2"/>
<path d="M466.814 502.339L381.234 560.034C380.759 559.244 380.126 558.453 379.652 557.505L465.232 499.81C465.865 499.336 466.814 499.494 467.288 500.126C467.605 501.075 467.446 501.865 466.814 502.339Z" fill="#A4C8F2"/>
<path d="M458.904 428.206C460.961 445.593 445.458 451.758 451.153 464.087C456.848 476.416 453.209 489.378 441.345 491.749C429.481 494.12 420.781 495.226 421.255 509.769C421.73 524.311 408.759 537.43 398.16 530.317C395.471 528.579 392.782 526.682 389.934 524.785C389.143 524.311 388.352 523.679 387.719 523.204C387.561 523.046 387.403 523.046 387.245 522.888C376.172 515.301 372.217 500.443 378.703 488.588C381.234 483.846 385.188 480.052 391.2 479.262C410.024 476.891 396.736 462.822 403.538 451.284C411.448 438.164 425.368 443.064 430.114 432.79C436.916 418.405 456.848 410.818 458.904 428.206Z" fill="#DBE6F7"/>
<path d="M441.978 443.538L390.092 524.785C389.301 524.311 388.51 523.679 387.878 523.204L439.605 441.958C440.08 441.325 440.871 441.167 441.504 441.483C442.136 442.116 442.294 442.906 441.978 443.538Z" fill="#BBD4F2"/>
<path d="M696.819 379.995C701.565 379.995 705.52 383.947 705.52 388.689C705.52 393.431 701.565 397.382 696.819 397.382C692.074 397.382 688.119 393.431 688.119 388.689C688.119 383.947 692.074 379.995 696.819 379.995ZM696.819 382.682C693.498 382.682 690.808 385.369 690.808 388.689C690.808 392.008 693.498 394.695 696.819 394.695C700.141 394.695 702.831 392.008 702.831 388.689C702.831 385.369 700.141 382.682 696.819 382.682Z" fill="#605BFF"/>
<path d="M688.119 336.052C692.865 336.052 696.819 340.004 696.819 344.746C696.819 349.488 692.865 353.44 688.119 353.44C683.373 353.44 679.419 349.488 679.419 344.746C679.419 340.004 683.373 336.052 688.119 336.052ZM688.119 338.739C684.797 338.739 682.108 341.426 682.108 344.746C682.108 348.065 684.797 350.752 688.119 350.752C691.441 350.752 694.13 348.065 694.13 344.746C693.972 341.426 691.441 338.739 688.119 338.739Z" fill="#605BFF"/>
<path d="M661.86 323.881C661.86 324.671 662.493 325.304 663.284 325.304H669.295C670.086 325.304 670.718 324.671 670.718 323.881C670.718 323.091 670.086 322.458 669.295 322.458H663.284C662.334 322.458 661.86 323.091 661.86 323.881Z" fill="white"/>
<path d="M651.261 323.881C651.261 324.671 651.894 325.304 652.685 325.304H658.696C659.487 325.304 660.12 324.671 660.12 323.881C660.12 323.091 659.487 322.458 658.696 322.458H652.685C651.894 322.458 651.261 323.091 651.261 323.881Z" fill="white"/>
<path d="M659.487 315.503V320.878C659.487 321.668 660.12 322.3 660.911 322.3C661.702 322.3 662.334 321.668 662.334 320.878V315.503C662.334 314.713 661.702 314.081 660.911 314.081C660.12 314.081 659.487 314.713 659.487 315.503Z" fill="white"/>
<path d="M659.487 326.884V332.258C659.487 333.049 660.12 333.681 660.911 333.681C661.702 333.681 662.334 333.049 662.334 332.258V326.884C662.334 326.094 661.702 325.462 660.911 325.462C660.12 325.462 659.487 326.094 659.487 326.884Z" fill="white"/>
<path d="M671.509 370.037C671.509 370.827 672.142 371.459 672.933 371.459H678.944C679.735 371.459 680.368 370.827 680.368 370.037C680.368 369.246 679.735 368.614 678.944 368.614H672.933C672.142 368.614 671.509 369.246 671.509 370.037Z" fill="#605BFF"/>
<path d="M661.069 370.037C661.069 370.827 661.702 371.459 662.493 371.459H668.504C669.295 371.459 669.927 370.827 669.927 370.037C669.927 369.246 669.295 368.614 668.504 368.614H662.493C661.702 368.614 661.069 369.246 661.069 370.037Z" fill="#605BFF"/>
<path d="M669.295 361.659V367.033C669.295 367.824 669.927 368.456 670.718 368.456C671.509 368.456 672.142 367.824 672.142 367.033V361.659C672.142 360.869 671.509 360.236 670.718 360.236C669.927 360.236 669.295 360.869 669.295 361.659Z" fill="#605BFF"/>
<path d="M669.295 373.04V378.414C669.295 379.205 669.927 379.837 670.718 379.837C671.509 379.837 672.142 379.205 672.142 378.414V373.04C672.142 372.25 671.509 371.617 670.718 371.617C669.927 371.617 669.295 372.25 669.295 373.04Z" fill="#605BFF"/>
<path d="M41.4453 170.871C41.4453 175.613 37.4906 179.565 32.745 179.565C27.9993 179.565 24.0446 175.613 24.0446 170.871C24.0446 166.129 27.9993 162.178 32.745 162.178C37.4906 162.178 41.4453 166.129 41.4453 170.871ZM26.7338 170.871C26.7338 174.191 29.423 176.878 32.745 176.878C36.0669 176.878 38.7561 174.191 38.7561 170.871C38.7561 167.552 36.0669 164.865 32.745 164.865C29.423 164.865 26.7338 167.552 26.7338 170.871Z" fill="#605BFF"/>
<path d="M50.1457 126.928C50.1457 131.67 46.191 135.622 41.4454 135.622C36.6997 135.622 32.745 131.67 32.745 126.928C32.745 122.186 36.6997 118.235 41.4454 118.235C46.3492 118.393 50.1457 122.186 50.1457 126.928ZM35.5924 126.928C35.5924 130.248 38.2816 132.935 41.6035 132.935C44.9255 132.935 47.6147 130.248 47.6147 126.928C47.6147 123.609 44.9255 120.922 41.6035 120.922C38.2816 121.08 35.5924 123.767 35.5924 126.928Z" fill="white"/>
<path d="M67.8628 106.222C67.8628 107.012 67.23 107.644 66.4391 107.644H60.4279C59.637 107.644 59.0042 107.012 59.0042 106.222C59.0042 105.431 59.637 104.799 60.4279 104.799H66.4391C67.23 104.799 67.8628 105.431 67.8628 106.222Z" fill="#605BFF"/>
<path d="M78.3032 106.222C78.3032 107.012 77.6704 107.644 76.8795 107.644H70.8683C70.0774 107.644 69.4446 107.012 69.4446 106.222C69.4446 105.431 70.0774 104.799 70.8683 104.799H76.8795C77.6704 104.799 78.3032 105.431 78.3032 106.222Z" fill="#605BFF"/>
<path d="M70.0774 97.844V103.218C70.0774 104.009 69.4446 104.641 68.6537 104.641C67.8627 104.641 67.23 104.009 67.23 103.218V97.844C67.23 97.0536 67.8627 96.4214 68.6537 96.4214C69.4446 96.4214 70.0774 97.0536 70.0774 97.844Z" fill="#605BFF"/>
<path d="M70.0774 109.225V114.599C70.0774 115.39 69.4446 116.022 68.6537 116.022C67.8627 116.022 67.23 115.39 67.23 114.599V109.225C67.23 108.435 67.8627 107.802 68.6537 107.802C69.4446 107.802 70.0774 108.435 70.0774 109.225Z" fill="#605BFF"/>
<path d="M58.0551 152.377C58.0551 153.168 57.4223 153.8 56.6314 153.8H50.6202C49.8293 153.8 49.1965 153.168 49.1965 152.377C49.1965 151.587 49.8293 150.955 50.6202 150.955H56.6314C57.4223 150.955 58.0551 151.587 58.0551 152.377Z" fill="#605BFF"/>
<path d="M68.4955 152.377C68.4955 153.168 67.8628 153.8 67.0718 153.8H61.0607C60.2697 153.8 59.637 153.168 59.637 152.377C59.637 151.587 60.2697 150.955 61.0607 150.955H67.0718C68.0209 150.955 68.4955 151.587 68.4955 152.377Z" fill="#605BFF"/>
<path d="M60.2697 144V149.374C60.2697 150.164 59.6369 150.797 58.846 150.797C58.0551 150.797 57.4223 150.164 57.4223 149.374V144C57.4223 143.209 58.0551 142.577 58.846 142.577C59.7951 142.577 60.2697 143.209 60.2697 144Z" fill="#605BFF"/>
<path d="M60.2697 155.381V160.755C60.2697 161.545 59.6369 162.178 58.846 162.178C58.0551 162.178 57.4223 161.545 57.4223 160.755V155.381C57.4223 154.59 58.0551 153.958 58.846 153.958C59.7951 153.958 60.2697 154.59 60.2697 155.381Z" fill="#605BFF"/>
<path d="M570.585 173.558V195.372C570.585 198.217 572.958 200.588 575.805 200.588H615.511L627.533 204.856C628.798 205.33 629.906 204.066 629.431 202.801L624.844 191.262V173.558C624.844 170.713 622.471 168.342 619.624 168.342H575.805C572.958 168.342 570.585 170.713 570.585 173.558Z" fill="#605BFF"/>
<g opacity="0.5">
<path d="M605.07 185.097C605.07 187.152 606.81 188.891 608.867 188.891C610.923 188.891 612.663 187.152 612.663 185.097C612.663 183.042 610.923 181.304 608.867 181.304C606.81 181.304 605.07 183.042 605.07 185.097Z" fill="#605BFF"/>
<path d="M593.048 185.097C593.048 187.152 594.788 188.891 596.844 188.891C598.901 188.891 600.641 187.152 600.641 185.097C600.641 183.042 598.901 181.304 596.844 181.304C594.788 181.304 593.048 183.042 593.048 185.097Z" fill="#605BFF"/>
<path d="M581.184 185.097C581.184 187.152 582.924 188.891 584.98 188.891C587.037 188.891 588.777 187.152 588.777 185.097C588.777 183.042 587.037 181.304 584.98 181.304C582.766 181.304 581.184 183.042 581.184 185.097Z" fill="#605BFF"/>
</g>
<path d="M143.793 169.923V577.58C143.793 590.383 154.234 600.658 166.889 600.658H370.002C376.488 600.658 382.183 597.97 386.454 593.861C390.567 589.751 393.098 583.902 393.098 577.58V169.923C393.098 157.119 382.658 146.845 370.002 146.845H167.047C163.25 146.845 159.77 147.793 156.606 149.374C149.013 153.168 143.793 160.913 143.793 169.923Z" fill="#605BFF"/>
<path d="M152.494 169.923V577.58C152.494 590.383 162.934 600.658 175.589 600.658H378.703C385.189 600.658 390.883 597.97 395.154 593.861C399.267 589.751 401.798 583.902 401.798 577.58V169.923C401.798 157.119 391.358 146.845 378.703 146.845H175.589C171.793 146.845 168.312 147.793 165.149 149.374C157.556 153.168 152.494 160.913 152.494 169.923Z" fill="#605BFF"/>
<path d="M148.064 247.06H145.375C142.053 247.06 139.364 244.373 139.364 241.053V216.237C139.364 212.917 142.053 210.23 145.375 210.23H148.064V247.06Z" fill="#605BFF"/>
<path d="M148.064 295.271H145.375C142.053 295.271 139.364 292.583 139.364 289.264V264.447C139.364 261.128 142.053 258.441 145.375 258.441H148.064V295.271Z" fill="#605BFF"/>
<path d="M401.956 247.06H404.013C406.544 247.06 408.759 245.005 408.759 242.318V214.972C408.759 212.443 406.702 210.23 404.013 210.23H401.956V247.06Z" fill="#605BFF"/>
<path d="M390.409 168.5V579.002C390.409 580.425 390.092 581.689 389.618 582.954C388.036 586.59 384.398 589.119 380.285 589.119H174.165C168.471 589.119 164.041 584.535 164.041 579.002V168.5C164.041 167.868 164.041 167.394 164.199 166.762C164.832 163.284 167.047 160.439 170.211 159.016C170.843 158.7 171.476 158.542 172.267 158.384C172.9 158.226 173.533 158.226 174.165 158.226H380.126C385.821 158.384 390.409 162.968 390.409 168.5Z" fill="white"/>
<path d="M390.409 168.5V189.523H164.041V168.5C164.041 167.868 164.041 167.394 164.199 166.762C164.832 163.284 167.047 160.439 170.211 159.016C170.843 158.7 171.476 158.542 172.267 158.384C172.9 158.226 173.533 158.226 174.165 158.226H380.126C385.821 158.384 390.409 162.968 390.409 168.5Z" fill="#DBE6F7"/>
<path d="M354.658 158.384L344.218 174.349C341.212 178.775 336.308 181.462 330.93 181.462H229.373C223.995 181.462 219.091 178.775 216.085 174.349L205.645 158.384C205.645 156.803 207.068 155.381 208.65 155.381H351.653C353.234 155.381 354.658 156.645 354.658 158.384Z" fill="#605BFF"/>
<path opacity="0.3" d="M316.218 169.923H228.108C226.684 169.923 225.418 168.658 225.418 167.236V166.129C225.418 164.707 226.684 163.442 228.108 163.442H316.218C317.642 163.442 318.908 164.707 318.908 166.129V167.236C318.749 168.658 317.642 169.923 316.218 169.923Z" fill="#DBE6F7"/>
<path opacity="0.3" d="M335.834 166.445C335.834 168.5 334.094 170.239 332.037 170.239C329.981 170.239 328.241 168.5 328.241 166.445C328.241 164.391 329.981 162.652 332.037 162.652C334.094 162.652 335.834 164.232 335.834 166.445Z" fill="#DBE6F7"/>
<path d="M183.34 442.432C183.34 444.329 184.922 445.909 186.82 445.909H268.287C270.186 445.909 271.768 444.329 271.768 442.432C271.768 440.535 270.186 438.954 268.287 438.954H186.82C184.922 438.954 183.34 440.535 183.34 442.432Z" fill="#DBE6F7"/>
<path d="M286.637 442.432C286.637 444.329 288.219 445.909 290.117 445.909H371.584C373.483 445.909 375.064 444.329 375.064 442.432C375.064 440.535 373.483 438.954 371.584 438.954H290.117C288.219 438.954 286.637 440.535 286.637 442.432Z" fill="#DBE6F7"/>
<path d="M183.34 461.4C183.34 463.297 184.922 464.877 186.82 464.877H268.287C270.186 464.877 271.768 463.297 271.768 461.4C271.768 459.503 270.186 457.922 268.287 457.922H186.82C184.922 457.922 183.34 459.503 183.34 461.4Z" fill="#DBE6F7"/>
<path d="M286.637 461.4C286.637 463.297 288.219 464.877 290.117 464.877H371.584C373.483 464.877 375.064 463.297 375.064 461.4C375.064 459.503 373.483 457.922 371.584 457.922H290.117C288.219 457.922 286.637 459.503 286.637 461.4Z" fill="#DBE6F7"/>
<path d="M183.34 480.368C183.34 482.265 184.922 483.846 186.82 483.846H268.287C270.186 483.846 271.768 482.265 271.768 480.368C271.768 478.471 270.186 476.891 268.287 476.891H186.82C184.922 476.891 183.34 478.471 183.34 480.368Z" fill="#DBE6F7"/>
<path d="M286.637 480.368C286.637 482.265 288.219 483.846 290.117 483.846H371.584C373.483 483.846 375.064 482.265 375.064 480.368C375.064 478.471 373.483 476.891 371.584 476.891H290.117C288.219 476.891 286.637 478.471 286.637 480.368Z" fill="#DBE6F7"/>
<path d="M183.34 499.336C183.34 501.233 184.922 502.814 186.82 502.814H268.287C270.186 502.814 271.768 501.233 271.768 499.336C271.768 497.439 270.186 495.859 268.287 495.859H186.82C184.922 495.859 183.34 497.439 183.34 499.336Z" fill="#DBE6F7"/>
<path d="M286.637 499.336C286.637 501.233 288.219 502.814 290.117 502.814H371.584C373.483 502.814 375.064 501.233 375.064 499.336C375.064 497.439 373.483 495.859 371.584 495.859H290.117C288.219 495.859 286.637 497.439 286.637 499.336Z" fill="#DBE6F7"/>
<path d="M235.384 543.595H189.035C185.871 543.595 183.182 541.066 183.182 537.747V532.056C183.182 528.895 185.713 526.208 189.035 526.208H235.384C238.548 526.208 241.237 528.737 241.237 532.056V537.747C241.237 541.066 238.706 543.595 235.384 543.595Z" fill="#DBE6F7"/>
<path d="M302.772 543.595H256.423C253.259 543.595 250.57 541.066 250.57 537.747V532.056C250.57 528.895 253.101 526.208 256.423 526.208H302.772C305.936 526.208 308.625 528.737 308.625 532.056V537.747C308.625 541.066 305.936 543.595 302.772 543.595Z" fill="#DBE6F7"/>
<path d="M369.053 543.595H322.704C319.54 543.595 316.851 541.066 316.851 537.747V532.056C316.851 528.895 319.382 526.208 322.704 526.208H369.053C372.217 526.208 374.906 528.737 374.906 532.056V537.747C374.906 541.066 372.375 543.595 369.053 543.595Z" fill="#DBE6F7"/>
<path d="M390.409 250.695V405.76H195.521V250.695H204.537H204.379H204.537H390.409Z" fill="#DBE6F7"/>
<path d="M431.063 238.84H206.436V393.905H431.063V238.84Z" fill="white"/>
<path d="M440.08 238.84H215.452V393.905H440.08V238.84Z" fill="#605BFF"/>
<path d="M215.294 238.682L319.224 346.801C323.811 351.543 331.405 351.543 335.992 346.801L439.922 238.682L335.359 331.784C330.93 335.736 324.286 335.736 320.015 331.784L215.294 238.682Z" fill="white"/>
<path d="M306.094 318.981L221.938 393.747H215.452V389.795L301.191 313.606L306.094 318.981Z" fill="white"/>
<path d="M439.922 390.427V393.747H432.803L348.647 318.981L353.551 313.606L439.922 390.427Z" fill="white"/>
<path d="M215.452 238.84L320.331 332.1C324.602 335.894 330.93 335.894 335.201 332.1L440.08 238.84H215.452Z" fill="#605BFF"/>
<g opacity="0.5">
<path d="M324.919 253.225H247.248C244.717 253.225 242.503 251.17 242.503 248.483C242.503 245.953 244.559 243.741 247.248 243.741H324.919C327.45 243.741 329.664 245.795 329.664 248.483C329.664 251.17 327.608 253.225 324.919 253.225Z" fill="#605BFF"/>
</g>
<g opacity="0.5">
<path d="M348.805 253.225H340.896C338.365 253.225 336.15 251.17 336.15 248.483C336.15 245.953 338.207 243.741 340.896 243.741H348.805C351.336 243.741 353.551 245.795 353.551 248.483C353.393 251.17 351.336 253.225 348.805 253.225Z" fill="#605BFF"/>
</g>
<path d="M404.646 251.802H380.917C374.59 251.802 369.528 246.744 369.528 240.421V216.711C369.528 210.388 374.59 205.33 380.917 205.33H404.646C410.973 205.33 416.035 210.388 416.035 216.711V240.421C416.035 246.744 410.973 251.802 404.646 251.802Z" fill="white"/>
<path d="M408.759 251.802H385.03C378.703 251.802 373.641 246.744 373.641 240.421V216.711C373.641 210.388 378.703 205.33 385.03 205.33H408.759C415.086 205.33 420.148 210.388 420.148 216.711V240.421C420.148 246.744 415.086 251.802 408.759 251.802Z" fill="#605BFF"/>
<path d="M392.659 221.733L391.587 211.44H398.021L396.948 221.733H392.659ZM394.804 228.358C393.883 228.358 393.128 228.08 392.54 227.524C391.952 226.952 391.659 226.277 391.659 225.498C391.659 224.704 391.952 224.037 392.54 223.497C393.128 222.957 393.883 222.687 394.804 222.687C395.741 222.687 396.496 222.957 397.068 223.497C397.655 224.037 397.949 224.704 397.949 225.498C397.949 226.277 397.655 226.952 397.068 227.524C396.496 228.08 395.741 228.358 394.804 228.358Z" fill="white"/>
<path d="M483.74 574.418L482.949 590.383L495.762 590.699L497.344 573.944L483.74 574.418Z" fill="#FDA893"/>
<path d="M488.011 588.17C488.011 588.17 494.655 586.59 496.553 586.748C498.451 586.906 510.157 600.974 514.112 601.922C521.547 603.661 521.072 615.358 516.485 615.674C503.355 616.78 481.051 610.458 481.051 610.458C481.051 610.458 479.469 595.441 480.576 590.699C481.683 586.273 484.373 589.435 488.011 588.17Z" fill="#605BFF"/>
<path d="M498.451 601.29C498.293 601.29 497.977 601.29 497.819 601.132C497.344 600.816 497.344 600.341 497.66 599.867C497.819 599.709 500.191 596.548 502.881 595.441C506.677 594.019 509.208 596.39 509.208 596.39C509.525 596.706 509.525 597.338 509.208 597.654C508.892 597.97 508.259 597.97 507.943 597.654C507.943 597.654 506.044 596.074 503.513 597.022C501.299 597.812 499.084 600.816 499.084 600.816C498.926 601.132 498.61 601.29 498.451 601.29Z" fill="#FEFDFF"/>
<path d="M496.079 598.445C495.92 598.445 495.604 598.445 495.446 598.287C494.971 597.97 494.971 597.496 495.288 597.022C495.446 596.864 497.819 593.703 500.508 592.596C504.304 591.173 506.835 593.545 506.835 593.545C507.152 593.861 507.152 594.493 506.835 594.809C506.519 595.125 505.886 595.125 505.57 594.809C505.57 594.809 503.672 593.228 501.141 594.177C498.768 594.967 496.711 597.97 496.711 597.97C496.395 598.287 496.237 598.445 496.079 598.445Z" fill="#FEFDFF"/>
<path d="M501.773 603.819C501.615 603.819 501.299 603.819 501.141 603.661C500.666 603.345 500.666 602.871 500.982 602.396C501.141 602.238 503.513 599.077 506.203 597.97C509.999 596.548 512.53 598.919 512.53 598.919C512.846 599.235 512.846 599.867 512.53 600.183C512.214 600.5 511.581 600.5 511.265 600.183C511.265 600.183 509.366 598.603 506.835 599.551C504.462 600.341 502.406 603.345 502.406 603.345C502.248 603.661 502.09 603.819 501.773 603.819Z" fill="#FEFDFF"/>
<path d="M531.354 380.153C531.354 380.153 531.038 383.947 530.564 390.111C530.405 391.692 530.247 393.589 530.089 395.486C528.349 416.351 525.185 453.971 521.547 480.842C516.643 518.304 500.982 579.951 500.982 579.951L484.847 579.476H483.265L479.469 579.318C479.469 579.318 482.158 540.276 485.638 506.449C487.853 484.162 489.276 431.367 489.909 398.015C490.226 380.785 490.384 368.772 490.384 368.772L531.354 380.153Z" fill="#605BFF"/>
<path d="M531.354 380.153C531.354 380.153 531.038 383.947 530.564 390.111C530.405 391.692 530.247 393.589 530.089 395.486C522.654 396.908 502.09 397.857 489.751 397.857C490.067 380.627 490.226 368.614 490.226 368.614L531.354 380.153Z" fill="#605BFF"/>
<path d="M499.084 389.795C499.084 391.06 497.502 512.614 485.005 579.318H483.423C496.079 512.772 497.502 391.06 497.66 389.795H499.084Z" fill="#605BFF"/>
<path d="M585.138 577.58L584.506 591.964L571.376 591.174L571.06 575.999L585.138 577.58Z" fill="#FDA893"/>
<path d="M581.184 591.332C581.184 591.332 584.031 587.538 586.246 587.854C588.46 588.012 605.545 601.922 611.398 603.187C617.251 604.451 616.143 608.719 615.036 610.932C613.929 613.145 567.896 609.351 567.896 609.351C567.896 609.351 566.789 595.599 568.371 591.49C569.952 587.222 576.596 592.122 581.184 591.332Z" fill="#605BFF"/>
<path d="M590.517 600.974C590.359 600.974 590.042 600.974 589.884 600.816C589.568 600.658 589.409 600.025 589.568 599.709C589.568 599.551 591.466 596.548 593.997 595.283C597.319 593.703 599.692 595.599 599.85 595.599C600.166 595.916 600.324 596.39 600.008 596.706C599.692 597.022 599.217 597.18 598.901 596.864C598.901 596.864 597.161 595.599 594.788 596.706C592.731 597.654 591.15 600.5 591.15 600.5C590.991 600.816 590.833 600.974 590.517 600.974Z" fill="#FEFDFF"/>
<path d="M588.144 598.603C587.986 598.603 587.669 598.603 587.511 598.445C587.195 598.287 587.037 597.654 587.195 597.338C587.195 597.18 589.093 594.177 591.624 592.912C594.946 591.332 597.319 593.228 597.477 593.228C597.793 593.545 597.952 594.019 597.635 594.335C597.319 594.651 596.844 594.809 596.528 594.493C596.528 594.493 594.788 593.228 592.415 594.335C590.359 595.283 588.777 598.129 588.777 598.129C588.46 598.445 588.302 598.603 588.144 598.603Z" fill="#FEFDFF"/>
<path d="M593.839 602.871C593.681 602.871 593.364 602.871 593.206 602.712C592.89 602.554 592.732 601.922 592.89 601.606C592.89 601.448 594.788 598.445 597.319 597.18C600.641 595.599 603.014 597.496 603.172 597.496C603.488 597.812 603.647 598.287 603.33 598.603C603.014 598.919 602.539 599.077 602.223 598.761C602.223 598.761 600.483 597.496 598.11 598.603C596.053 599.551 594.472 602.396 594.472 602.396C594.313 602.712 593.997 602.871 593.839 602.871Z" fill="#FEFDFF"/>
<path d="M587.511 581.215L574.065 580.267L572.483 580.109L569.161 579.793C569.161 579.793 560.936 501.549 558.405 480.842C556.19 462.822 545.75 422.041 539.106 396.75C537.207 389.637 535.625 383.631 534.518 379.837C533.727 376.834 533.253 375.095 533.253 375.095L578.02 370.827C578.02 370.827 578.178 371.775 578.336 373.514C578.811 377.15 579.602 384.105 580.551 392.798C583.398 416.509 587.669 453.338 589.251 472.148C593.522 520.675 587.511 581.215 587.511 581.215Z" fill="#605BFF"/>
<path d="M580.551 392.957L539.106 396.908C537.207 389.795 535.626 383.789 534.518 379.995L578.336 373.672C578.811 377.308 579.602 384.105 580.551 392.957Z" fill="#605BFF"/>
<path d="M574.065 580.267L572.483 580.109C571.692 555.924 569.32 495.542 564.416 469.936C558.246 437.69 544.326 390.744 544.168 390.269L545.75 389.795C545.908 390.269 559.987 437.374 565.998 469.619C570.902 495.543 573.274 556.241 574.065 580.267Z" fill="#605BFF"/>
<path d="M580.235 260.654C580.867 266.818 581.658 272.667 582.291 277.567C583.398 285.47 584.189 290.845 584.189 290.845L590.675 311.552C592.89 318.665 600.799 321.984 607.443 318.665C607.601 318.665 607.601 318.507 607.759 318.507C619.149 312.658 612.03 290.054 612.03 290.054L609.816 289.896C608.867 287.367 606.178 281.203 602.856 273.299C602.381 272.351 602.065 271.402 601.59 270.296C600.957 268.557 600.166 266.818 599.375 265.08C598.268 262.551 597.161 260.022 596.053 257.334C587.828 238.05 579.286 217.659 579.286 217.659C576.28 219.398 578.02 241.369 580.235 260.654Z" fill="#FDA893"/>
<path d="M580.235 260.654C580.867 266.818 581.658 272.667 582.291 277.567C590.833 274.722 596.37 269.189 599.534 265.238C598.426 262.709 597.319 260.18 596.212 257.492L580.235 260.654Z" fill="#FD857D"/>
<path d="M598.11 297.8C598.743 297.8 599.059 297.484 599.059 297.009C600.483 286.103 601.906 278.199 602.856 273.299C602.381 272.351 602.065 271.402 601.59 270.296C600.641 274.564 598.901 283.574 597.161 296.693C597.161 297.325 597.635 297.8 598.11 297.8Z" fill="#FD857D"/>
<path d="M605.387 256.702C605.387 256.702 603.488 259.073 600.325 261.602C596.37 264.764 589.093 268.557 581.817 268.873C580.235 242.95 578.811 218.134 576.755 211.811C580.235 215.763 597.794 238.208 605.387 256.702Z" fill="#605BFF"/>
<path d="M599.692 298.274C599.692 298.274 600.483 272.351 605.861 266.66C611.24 260.97 616.143 258.757 621.364 258.757C626.584 258.757 631.488 259.231 631.171 261.444C631.171 261.444 643.035 259.231 648.414 262.234C653.792 265.08 632.753 268.557 626.584 268.873C620.256 269.189 617.092 272.825 616.934 276.619C616.776 280.412 613.929 305.229 613.929 305.229L599.692 298.274Z" fill="#FDA893"/>
<path d="M586.088 380.469C551.128 390.269 515.852 391.218 480.418 383.156C480.102 373.04 479.311 339.372 479.152 304.439C479.152 302.542 479.152 300.803 479.152 298.906V296.219C479.152 295.271 479.152 294.322 479.152 293.374C479.152 292.425 479.152 291.477 479.152 290.529C479.152 289.58 479.152 288.632 479.152 287.683C479.152 286.735 479.152 285.945 479.152 284.996C479.152 284.048 479.152 283.099 479.152 282.309C479.152 281.361 479.152 280.412 479.152 279.464C479.152 278.515 479.152 277.567 479.152 276.619C479.152 275.67 479.152 274.88 479.152 273.931C479.152 272.193 479.152 270.454 479.152 268.715V268.399C479.152 267.135 479.152 266.028 479.152 264.922C479.469 237.734 480.418 215.921 482.474 212.917C487.536 205.646 511.106 194.265 518.383 189.049V190.156C518.383 190.156 523.129 196.162 528.349 195.53C533.095 195.056 536.417 189.523 537.049 188.575C540.846 191.104 549.23 195.056 557.614 199.165C565.84 203.433 573.907 207.859 576.596 211.337C578.969 214.34 580.867 237.576 582.291 265.87V266.028C582.291 266.502 582.291 267.135 582.291 267.609V267.767C582.291 268.083 582.291 268.557 582.291 269.031C582.291 269.822 582.449 270.77 582.449 271.56C582.449 272.509 582.607 273.299 582.607 274.248C582.607 275.196 582.607 276.144 582.766 277.093C582.766 278.041 582.766 278.99 582.924 279.938C582.924 280.886 582.924 281.677 583.082 282.625C583.082 283.416 583.082 284.364 583.24 285.312C583.24 286.261 583.24 287.209 583.398 288.158C583.398 289.106 583.557 290.054 583.557 290.845C583.557 291.793 583.557 292.742 583.715 293.69C583.715 294.638 583.715 295.429 583.873 296.377C583.873 298.274 584.031 300.013 584.031 301.909C585.297 336.526 586.088 370.353 586.088 380.469Z" fill="#605BFF"/>
<path d="M513.321 215.921C513.005 215.921 512.688 215.604 512.688 215.13C512.688 214.656 513.005 214.34 513.479 214.34C534.202 213.075 541.162 197.427 541.32 197.269C541.479 196.794 541.953 196.636 542.428 196.794C542.902 196.952 543.06 197.427 542.902 197.901C542.902 198.059 541.004 202.169 536.575 206.437C532.462 210.388 525.027 215.288 513.796 215.921C513.479 215.921 513.479 215.921 513.321 215.921Z" fill="#605BFF"/>
<path d="M583.082 279.938L479.152 282.625C479.152 281.677 479.152 280.728 479.152 279.78C479.152 278.832 479.152 277.883 479.152 277.093L582.766 274.406C582.766 275.354 582.766 276.302 582.924 277.093C583.082 278.041 583.082 278.99 583.082 279.938Z" fill="#605BFF"/>
<path d="M583.557 290.845L479.152 293.532C479.152 292.583 479.152 291.635 479.152 290.845C479.152 289.896 479.152 288.948 479.152 287.999L583.24 285.312C583.24 286.261 583.24 287.209 583.398 288.158C583.557 288.948 583.557 289.896 583.557 290.845Z" fill="#605BFF"/>
<path d="M584.031 301.751L479.311 304.439C479.311 302.542 479.311 300.803 479.311 298.906L583.873 296.219C583.873 298.116 584.031 299.855 584.031 301.751Z" fill="#605BFF"/>
<path d="M571.534 251.802C574.698 255.754 579.286 264.922 581.342 269.189C581.658 269.822 581.817 270.296 581.975 270.612C582.133 271.086 582.291 271.402 582.291 271.402C582.291 271.56 582.449 271.718 582.608 271.718C582.608 270.928 582.449 269.98 582.449 269.189C582.449 268.715 582.449 268.399 582.449 267.925C581.975 267.135 581.5 266.028 581.026 264.922C578.653 260.338 575.331 254.015 572.8 250.854C572.483 250.537 572.009 250.379 571.693 250.695C571.218 250.854 571.218 251.486 571.534 251.802Z" fill="#605BFF"/>
<path d="M553.817 353.914C554.292 353.914 554.608 353.598 554.608 353.123C554.608 352.649 554.292 352.333 553.817 352.333C530.722 351.385 516.801 340.162 509.05 330.836C500.666 320.72 497.66 310.603 497.66 310.603C497.502 310.129 497.028 309.971 496.711 309.971C496.237 310.129 496.078 310.603 496.078 310.919C496.237 311.394 499.084 321.352 507.626 331.784C515.694 341.268 530.089 352.965 553.817 353.914Z" fill="#605BFF"/>
<path d="M541.004 339.53C541.32 339.53 541.637 339.213 541.795 338.897C541.953 338.423 541.637 337.949 541.162 337.949C521.072 333.049 516.801 316.452 516.801 316.294C516.643 315.819 516.327 315.661 515.852 315.661C515.378 315.819 515.219 316.136 515.219 316.61C515.219 316.768 516.327 321.194 520.123 326.094C523.603 330.678 529.931 336.684 541.004 339.372C540.846 339.53 541.004 339.53 541.004 339.53Z" fill="#605BFF"/>
<path d="M490.067 248.957C487.062 253.067 482.632 262.393 480.576 266.66C480.26 267.293 480.101 267.767 479.943 268.083C479.785 268.557 479.627 268.873 479.627 268.873C479.627 269.031 479.469 269.031 479.469 269.189V268.873C479.469 267.609 479.469 266.502 479.469 265.396C479.785 264.605 480.26 263.499 480.892 262.393C483.107 257.65 486.429 251.328 488.802 248.008C489.118 247.692 489.593 247.534 489.909 247.85C490.226 248.008 490.226 248.641 490.067 248.957Z" fill="#605BFF"/>
<path d="M590.517 264.289L661.385 262.551C663.442 262.551 665.024 260.812 665.024 258.757V256.702C665.024 254.647 663.283 253.067 661.227 253.067L590.359 254.805C588.302 254.805 586.72 256.544 586.72 258.599V260.654C586.879 262.709 588.619 264.289 590.517 264.289Z" fill="#605BFF"/>
<path d="M665.024 262.393L678.311 207.069C679.102 203.907 676.729 201.062 673.408 201.062L641.137 201.853C638.922 201.853 637.024 203.433 636.55 205.488L621.838 263.499L665.024 262.393Z" fill="#605BFF"/>
<path d="M636.55 205.488L621.996 263.025L618.358 263.183L632.911 205.646C633.386 203.591 635.284 202.011 637.499 202.011L641.137 201.853C638.923 202.011 637.182 203.433 636.55 205.488Z" fill="#605BFF"/>
<g opacity="0.5">
<path d="M645.566 234.889C644.775 238.524 647.148 241.369 650.787 241.369C654.425 241.211 657.905 238.208 658.696 234.573C659.487 230.937 657.114 228.092 653.476 228.092C649.996 228.092 646.357 231.095 645.566 234.889Z" fill="#605BFF"/>
</g>
<path d="M504.304 151.745C504.304 151.745 502.09 152.852 501.615 148.584C500.982 144.316 502.722 143.684 501.457 141.629C500.191 139.574 499.242 137.045 501.299 135.148C503.355 133.251 499.084 128.667 501.299 126.296C503.671 123.925 507.31 123.293 508.892 120.606C510.315 117.919 512.688 112.86 519.807 112.702C527.083 112.544 529.456 118.393 533.253 116.812C537.049 115.231 539.738 114.283 544.326 117.286C548.755 120.29 544.326 124.715 548.439 126.77C552.552 128.825 549.546 134.99 554.292 138.625C557.93 141.313 554.45 152.061 547.331 150.639C539.897 149.216 504.304 151.745 504.304 151.745Z" fill="black"/>
<path d="M506.044 153.326C506.044 153.326 501.931 148.11 499.084 152.535C496.237 156.961 500.666 169.765 507.943 166.445L506.044 153.326Z" fill="#FD857D"/>
<path d="M506.202 162.494C505.886 162.494 505.728 162.336 505.57 162.019C504.304 158.068 500.191 156.487 500.191 156.487C499.875 156.329 499.717 156.013 499.875 155.697C500.033 155.381 500.349 155.223 500.666 155.381C500.824 155.381 505.412 157.119 506.835 161.703C506.993 162.019 506.677 162.336 506.361 162.494C506.361 162.494 506.361 162.494 506.202 162.494Z" fill="#F05B56"/>
<path d="M502.09 160.597C501.931 160.597 501.931 160.597 501.773 160.439C501.457 160.281 501.457 159.965 501.615 159.648C501.615 159.648 502.406 158.542 503.83 157.752C504.146 157.594 504.462 157.752 504.621 158.068C504.779 158.384 504.621 158.7 504.304 158.858C503.197 159.49 502.564 160.281 502.564 160.281C502.406 160.597 502.248 160.597 502.09 160.597Z" fill="#F05B56"/>
<path d="M546.857 152.377C546.857 152.377 550.653 147.003 553.659 151.271C556.664 155.539 552.868 168.5 545.591 165.655L546.857 152.377Z" fill="#FD857D"/>
<path d="M547.173 161.545C547.489 161.545 547.648 161.387 547.806 161.071C548.755 157.119 552.868 155.381 552.868 155.381C553.184 155.223 553.342 154.906 553.184 154.59C553.026 154.274 552.71 154.116 552.393 154.274C552.235 154.274 547.648 156.171 546.54 160.913C546.382 161.229 546.699 161.545 547.015 161.703C547.015 161.545 547.173 161.545 547.173 161.545Z" fill="#F05B56"/>
<path d="M551.286 159.49C551.444 159.49 551.444 159.49 551.602 159.332C551.919 159.174 551.919 158.7 551.761 158.542C551.761 158.542 550.97 157.435 549.388 156.803C549.071 156.645 548.755 156.803 548.597 157.119C548.439 157.435 548.597 157.752 548.913 157.91C550.179 158.384 550.653 159.174 550.653 159.332C550.812 159.332 551.128 159.49 551.286 159.49Z" fill="#F05B56"/>
<path d="M536.891 176.72L537.207 189.523C537.207 189.523 533.569 196.162 528.349 196.794C523.129 197.427 518.383 191.42 518.383 191.42L518.067 178.142L536.891 176.72Z" fill="#FDA893"/>
<path d="M536.891 176.72L537.049 182.41C533.727 186.362 527.558 187.468 518.383 186.362L518.225 178.142L536.891 176.72Z" fill="#FD857D"/>
<path d="M549.546 143.526C549.388 148.584 549.072 154.748 548.281 159.807C548.122 161.071 547.806 162.178 547.49 163.284C544.959 172.768 538.631 189.207 519.648 182.884C511.264 180.197 507.152 170.871 505.095 161.545C503.83 155.223 503.355 148.742 503.355 144C503.355 139.258 505.728 134.832 509.841 132.461C520.756 125.822 532.62 127.877 540.529 130.722C546.066 132.461 549.704 137.677 549.546 143.526Z" fill="#FDA893"/>
<path d="M519.016 154.748C519.016 156.171 518.383 157.277 517.434 157.277C516.485 157.277 515.852 156.171 515.852 154.906C515.852 153.484 516.485 152.377 517.434 152.377C518.225 152.219 519.016 153.326 519.016 154.748Z" fill="#605BFF"/>
<path d="M537.998 154.274C537.998 155.697 537.366 156.803 536.416 156.803C535.626 156.803 534.835 155.697 534.835 154.432C534.835 153.01 535.467 151.903 536.416 151.903C537.207 151.745 537.84 152.852 537.998 154.274Z" fill="#605BFF"/>
<path d="M541.637 145.897C541.637 145.897 534.993 143.526 530.089 145.739L530.722 148.584C530.722 148.584 537.998 147.793 541.795 149.216C542.111 148.11 542.111 147.003 541.637 145.897Z" fill="#605BFF"/>
<path d="M510.79 146.845C510.79 146.845 517.276 144.158 522.338 146.213L521.863 149.058C521.863 149.058 514.428 148.584 510.79 150.164C510.473 149.058 510.315 147.951 510.79 146.845Z" fill="#605BFF"/>
<path d="M527.558 164.549C526.609 164.707 525.501 164.39 525.343 164.39C525.027 164.232 524.869 163.916 524.869 163.6C525.027 163.284 525.343 163.126 525.66 163.126C526.292 163.284 527.558 163.442 528.032 162.968C528.191 162.81 528.191 162.81 528.191 162.336C528.191 160.123 526.609 153.168 526.609 153.168C526.609 152.852 526.767 152.535 527.083 152.377C527.4 152.377 527.716 152.535 527.874 152.852C527.874 153.168 529.456 159.965 529.614 162.336C529.614 163.126 529.298 163.6 528.982 163.916C528.349 164.39 528.032 164.549 527.558 164.549Z" fill="#FD857D"/>
<path d="M518.699 168.184C519.332 170.713 521.072 175.297 526.609 175.139C532.145 174.981 533.727 170.713 534.044 167.868L518.699 168.184Z" fill="white"/>
<path d="M526.767 178.933C528.349 178.933 529.614 177.984 529.772 177.984C530.089 177.826 530.089 177.352 529.931 177.194C529.772 176.878 529.298 176.878 529.14 177.036C529.14 177.036 528.032 177.668 526.767 177.826C525.66 177.826 524.552 177.194 524.552 177.194C524.236 177.036 523.92 177.194 523.761 177.352C523.603 177.668 523.761 177.984 523.92 178.142C523.92 178.142 525.185 178.933 526.767 178.933Z" fill="#FD857D"/>
<path d="M549.546 143.526C549.388 148.584 549.071 154.748 548.281 159.807L545.591 159.648C545.591 159.648 546.066 155.381 546.382 152.693C546.54 150.006 547.015 144.79 544.642 144.316C542.269 143.684 543.535 137.835 540.213 135.464C536.891 132.935 529.614 131.038 524.869 134.041C520.123 137.045 514.745 135.622 512.53 136.254C510.315 136.887 507.468 139.89 508.259 142.735C509.208 145.58 506.677 147.319 506.202 150.322C505.728 153.326 507.784 161.071 507.784 161.071L505.253 161.703C503.988 155.381 503.513 148.9 503.513 144.158C503.513 139.416 505.886 134.99 509.999 132.619C520.914 125.98 532.778 128.035 540.687 130.88C546.066 132.461 549.704 137.677 549.546 143.526Z" fill="black"/>
<path d="M484.214 366.875L477.729 375.727C477.729 375.727 473.932 373.356 468.87 369.246C461.119 363.082 451.628 351.543 445.775 339.688C436.6 321.194 440.713 307.916 440.713 307.916C441.662 299.064 446.566 286.577 451.311 273.141C453.051 268.241 454.633 263.973 455.74 260.97L470.294 264.289L476.463 268.083L474.09 274.406C469.977 288 465.39 301.435 459.062 314.081C460.486 326.568 465.706 341.584 471.876 350.91C478.203 360.395 484.214 366.875 484.214 366.875Z" fill="#FDA893"/>
<path d="M484.214 366.875L477.729 375.727C477.729 375.727 473.932 373.356 468.87 369.246C467.763 362.608 468.395 353.123 471.876 350.91C478.203 360.395 484.214 366.875 484.214 366.875Z" fill="#FD857D"/>
<path d="M480.734 356.601C482 356.759 488.96 357.075 488.327 354.704C487.536 352.017 480.576 349.014 480.576 349.014C480.576 349.014 480.576 348.856 480.576 348.698V348.065L480.26 342.375C478.994 342.375 477.729 342.691 477.096 342.849C474.09 343.797 474.565 350.594 474.565 350.594C474.565 350.594 470.768 352.017 470.927 354.704C471.085 357.549 474.09 357.865 474.09 357.865C474.09 357.865 469.977 359.92 470.927 362.291C471.876 364.662 475.039 365.295 475.039 365.295C475.039 365.295 471.401 367.666 472.667 369.246C473.932 370.985 476.779 371.775 476.779 371.775C476.779 371.775 474.248 375.095 476.779 376.992C479.31 378.888 483.107 378.414 485.48 377.624C487.853 376.834 487.536 373.672 482.791 371.459C482.791 371.459 486.904 371.934 488.96 368.456C490.7 365.611 486.271 364.346 482.474 363.872C485.48 364.03 490.542 364.03 491.491 361.185C492.598 357.549 482.316 356.759 480.734 356.601Z" fill="#FDA893"/>
<path d="M476.463 268.083L474.09 274.406C469.186 274.722 460.644 274.88 451.311 273.141C453.051 268.241 454.633 263.973 455.74 260.97L470.294 264.289L476.463 268.083Z" fill="#FD857D"/>
<path d="M482.632 213.233C482.632 213.233 460.644 234.573 447.831 265.554C457.955 268.873 467.605 271.086 476.463 272.193C477.57 269.347 483.107 257.492 488.011 249.115L482.632 213.233Z" fill="#605BFF"/>
<path d="M305.303 45.8397C305.62 44.8913 306.094 44.1009 306.253 43.3106C310.682 31.2974 311.156 6.4808 283.632 0.632293C283.632 0.632293 261.011 -4.58394 250.887 15.6487C250.887 15.6487 246.299 25.1328 243.135 31.9297C243.135 31.9297 240.446 46.3139 226.842 47.5784C213.238 48.843 205.645 54.0592 206.91 64.1755C208.176 74.2919 206.119 72.7112 196.786 81.0888C187.295 89.6245 180.809 105.431 188.877 116.022C196.944 126.454 227.317 101.638 246.774 112.86C266.231 123.925 298.818 120.764 302.772 104.957C306.569 89.1503 291.383 78.8758 292.174 70.8144C293.123 62.7529 302.931 53.4269 305.303 45.8397Z" fill="black"/>
<path d="M312.738 146.845H293.281L283.948 128.667L282.841 126.612L278.886 118.867C278.886 118.867 279.677 85.8308 288.219 81.2469L312.738 146.845Z" fill="#605BFF"/>
<path d="M283.948 128.509L282.841 126.454C284.739 122.661 287.903 113.967 285.372 102.744C285.214 102.27 285.53 101.796 286.004 101.638C286.479 101.48 286.954 101.796 287.112 102.428C290.276 115.706 285.688 125.348 283.948 128.509Z" fill="#605BFF"/>
<path d="M317.484 144.474C317.484 144.474 319.224 151.745 322.071 153.642C324.919 155.697 324.128 145.58 324.128 145.58C324.128 145.58 325.077 157.752 328.083 158.068C331.088 158.384 330.455 146.529 330.455 146.529C330.455 146.529 332.354 154.59 334.568 155.065C336.783 155.539 336.783 146.845 336.783 146.845C336.783 146.845 338.998 153.168 340.579 153.642C342.161 154.116 343.11 146.845 342.161 143.209C341.212 139.574 336.625 141.787 336.625 141.787C336.625 141.787 332.195 140.522 330.772 142.103C330.772 142.103 326.817 140.364 324.602 141.471C324.444 141.471 317.959 139.574 317.484 144.474Z" fill="#FDA893"/>
<path d="M284.897 97.0536C285.688 103.376 287.745 109.857 284.897 119.973C284.106 123.135 282.683 125.822 280.152 130.09C279.993 130.406 279.835 130.564 279.677 130.88C279.677 131.354 279.519 131.829 279.519 132.145C277.937 143.368 278.253 137.361 278.57 146.687H220.04L220.515 123.609L220.673 118.709L221.464 73.3435L239.972 71.7628L243.135 71.4467H243.294L248.197 70.9725C248.672 70.9725 249.147 70.9725 249.463 70.8144C256.107 70.3402 262.909 71.4467 269.078 73.8177H269.237L272.084 74.9242H272.242L274.931 76.0306L287.903 81.0888C287.428 84.0921 285.372 94.0504 284.897 97.0536Z" fill="#605BFF"/>
<path d="M227.949 106.854L220.515 123.609L220.673 118.709L226.209 106.064C226.368 105.589 227 105.431 227.475 105.589C227.949 105.747 228.108 106.38 227.949 106.854Z" fill="#605BFF"/>
<path d="M239.972 71.7628C245.983 83.934 260.694 97.5278 268.287 93.26C272.875 90.7309 274.773 82.1953 275.089 76.1887L272.4 75.0822H272.242L269.553 73.9757L269.395 73.8177C263.067 71.4467 256.423 70.3402 249.779 70.8144C249.621 70.8144 249.305 70.8144 249.147 70.9725C248.988 70.9725 248.672 70.9725 248.514 70.9725L243.61 71.2886H243.452L239.972 71.7628Z" fill="#FDA893"/>
<path d="M279.835 130.88C279.835 131.354 279.677 131.829 279.677 132.145C276.513 132.777 266.389 134.2 249.305 130.09C247.09 129.616 244.717 128.983 242.344 128.193C241.87 128.035 241.554 127.561 241.712 127.087C241.87 126.612 242.344 126.296 242.819 126.454C267.496 133.725 279.993 130.09 280.152 130.09C280.152 130.406 279.993 130.564 279.835 130.88Z" fill="#605BFF"/>
<path d="M295.97 43.9429C295.97 43.9429 301.349 40.4654 302.772 45.5235C304.196 50.5817 296.128 60.54 290.276 55.3238L295.97 43.9429Z" fill="#FD857D"/>
<path d="M293.597 55.6399C293.281 56.2721 293.756 57.0625 294.388 57.3786C295.021 57.6948 295.812 57.2206 296.128 56.5883C296.445 55.956 295.97 55.1657 295.338 54.8495C294.547 54.5334 293.914 54.8495 293.597 55.6399Z" fill="white"/>
<path d="M292.965 52.3205C293.281 52.4785 293.439 52.3205 293.598 52.1624C295.97 49.001 300.4 48.843 300.4 48.843C300.716 48.843 301.032 48.5268 301.032 48.2107C301.032 47.8946 300.716 47.5784 300.4 47.5784C300.241 47.5784 295.338 47.5784 292.648 51.3721C292.49 51.6882 292.648 52.0043 292.965 52.3205Z" fill="#F05B56"/>
<path d="M297.552 51.8463C297.71 51.8463 297.71 51.8463 297.869 51.8463C298.185 51.8463 298.343 51.5301 298.343 51.214C298.343 51.214 298.027 49.9495 296.761 48.843C296.445 48.6849 296.129 48.6849 295.97 48.843C295.812 49.001 295.812 49.4752 295.97 49.6333C296.919 50.5817 297.236 51.5301 297.236 51.5301C297.236 51.6882 297.394 51.8463 297.552 51.8463Z" fill="#F05B56"/>
<path d="M258.48 57.8528L253.418 72.0789C253.418 72.0789 258.163 79.5081 263.225 81.8791C268.287 84.0921 272.242 78.7178 272.242 78.7178L276.988 65.4401L258.48 57.8528Z" fill="#FDA893"/>
<path d="M257.847 59.2754L255.79 64.9659C257.847 70.024 263.542 73.6596 273.033 75.5564L276.039 66.8627L257.847 59.2754Z" fill="#FD857D"/>
<path d="M296.287 50.2656C295.654 51.5301 294.863 52.9527 294.23 54.2173C289.326 62.911 279.835 70.8144 271.926 69.866C254.683 67.653 252.469 52.7947 253.259 42.6783C253.418 41.5718 254.367 40.6234 254.525 39.2008C255 36.1975 255 32.4039 255.949 29.0845C256.581 26.7135 257.214 24.5005 257.847 22.4456C259.587 16.7552 264.649 12.8035 270.502 12.4874C278.886 12.1712 290.75 13.91 299.134 23.8683C302.14 27.5038 303.089 32.562 301.507 37.304C300.241 40.9396 298.501 45.5235 296.287 50.2656Z" fill="#FDA893"/>
<path d="M274.299 50.4236C273.982 50.2656 273.824 49.9494 273.824 49.6333C273.824 49.3172 274.299 49.001 274.615 49.1591L276.83 49.6333L276.671 40.7815C276.671 40.4654 276.988 40.1492 277.304 40.1492C277.62 40.1492 277.937 40.4654 277.937 40.7815L278.095 51.214L274.299 50.4236Z" fill="#FD857D"/>
<path d="M295.654 32.4039C300.874 37.4621 296.287 44.1009 297.078 48.6849C297.078 49.001 297.236 49.001 297.394 49.001C299.767 44.259 301.507 39.675 302.772 36.0395C304.354 31.2974 303.405 26.0812 300.083 22.2876C291.225 12.0132 278.57 10.1163 269.869 10.4325C263.7 10.5905 258.48 14.5422 256.74 20.3907C256.107 22.4456 255.474 24.8166 254.841 27.0296C255.632 27.978 258.005 29.2425 257.531 30.8232C256.265 35.2491 255.316 38.4105 256.423 38.4105C258.163 38.5685 261.011 33.5104 260.378 29.4006C260.378 29.4006 262.593 27.6619 269.236 27.5038C277.779 27.3457 286.321 25.607 286.321 25.607C286.321 25.607 289.801 24.9747 291.541 23.394C291.541 23.5521 291.699 28.6103 295.654 32.4039Z" fill="black"/>
<path d="M285.53 43.1525C285.055 44.5751 285.372 45.8397 286.163 46.1558C286.954 46.472 288.061 45.6816 288.694 44.259C289.168 42.8364 288.852 41.5719 288.061 41.2557C287.112 40.9396 286.163 41.7299 285.53 43.1525Z" fill="#605BFF"/>
<path d="M267.655 36.6717C267.18 38.0943 267.496 39.3589 268.287 39.675C269.078 39.9911 270.186 39.2008 270.818 37.7782C271.293 36.3556 270.977 35.091 270.186 34.7749C269.237 34.4588 268.129 35.4072 267.655 36.6717Z" fill="#605BFF"/>
<path d="M293.281 37.6202C292.174 36.9879 289.643 35.5653 286.954 34.7749C286.163 34.6169 285.53 34.933 285.372 35.4072C285.213 35.8814 285.688 36.3556 286.321 36.5137C288.219 36.9879 293.123 38.7266 295.021 40.3073C295.179 39.9912 295.179 39.517 294.863 39.2008C294.547 38.5686 294.072 38.0944 293.281 37.6202Z" fill="#605BFF"/>
<path d="M267.971 28.9264C269.395 29.0845 272.084 29.5587 274.773 30.6651C275.406 30.9813 275.88 31.6135 275.564 32.2458C275.406 32.72 274.773 32.8781 274.14 32.562C272.4 31.7716 267.496 30.1909 264.965 30.0329C264.965 29.7167 265.282 29.4006 265.756 29.2425C266.389 28.9264 267.18 28.7683 267.971 28.9264Z" fill="#605BFF"/>
<path d="M279.835 56.5883C278.57 58.6431 275.722 61.9626 270.502 60.2238C265.282 58.327 265.282 54.2172 265.598 51.5301L279.835 56.5883Z" fill="white"/>
<path d="M269.236 63.8594C270.66 64.3336 272.242 64.0175 272.4 64.0175C272.717 64.0175 273.033 63.5433 272.875 63.2271C272.875 62.911 272.4 62.5948 272.084 62.7529C272.084 62.7529 270.818 63.069 269.711 62.5948C268.446 62.1206 267.655 61.1722 267.655 61.1722C267.496 60.8561 267.022 60.8561 266.705 61.0142C266.389 61.1722 266.389 61.6464 266.547 61.9626C266.547 62.1206 267.655 63.3852 269.236 63.8594Z" fill="#FD857D"/>
<path d="M257.531 30.191C257.531 30.191 255 23.394 251.203 26.2393C247.248 29.0845 246.932 41.7299 254.209 41.0976L257.531 30.191Z" fill="#FDA893"/>
<path d="M250.096 39.9911C249.779 40.6234 250.254 41.4138 250.887 41.7299C251.519 42.046 252.31 41.5718 252.627 40.9395C252.943 40.3073 252.469 39.5169 251.836 39.2008C251.045 39.0427 250.254 39.3589 250.096 39.9911Z" fill="white"/>
<path d="M254.05 37.304C253.892 37.1459 253.734 36.9879 253.734 36.6717C254.05 32.8781 250.887 30.1909 250.887 30.1909C250.728 30.0329 250.57 29.5587 250.887 29.4006C251.045 29.2425 251.519 29.0845 251.678 29.4006C251.836 29.5587 255.316 32.4039 255 36.8298C254.683 37.1459 254.367 37.304 254.05 37.304Z" fill="#FD857D"/>
<path d="M251.045 34.1427C250.887 34.1427 250.887 33.9846 250.728 33.9846C250.57 33.6685 250.57 33.3523 250.887 33.1943C250.887 33.1943 251.836 32.4039 253.418 32.2458C253.734 32.2458 254.05 32.4039 254.05 32.7201C254.05 33.0362 253.892 33.3523 253.576 33.3523C252.31 33.5104 251.678 33.9846 251.678 33.9846C251.361 34.3007 251.203 34.3007 251.045 34.1427Z" fill="#FD857D"/>
<path d="M276.671 37.7782C276.83 37.4621 276.83 36.9879 276.83 36.6717C276.671 35.7233 276.039 34.7749 275.089 34.3007L266.073 30.8232C265.44 30.5071 264.649 30.6651 264.016 30.8232C263.7 30.9813 263.384 31.1393 263.067 31.4555C262.909 31.7716 262.751 31.9297 262.593 32.2458L262.118 33.3523C261.327 35.2491 261.485 37.4621 262.276 39.2008C263.067 40.9395 264.333 42.2041 266.073 42.8364L266.231 42.9944C268.129 43.7848 270.186 43.6267 272.084 42.8364C273.982 42.046 275.406 40.4653 276.197 38.5685L276.671 37.7782ZM275.248 38.4105C274.615 40.1492 273.349 41.4137 271.768 42.046C270.186 42.8364 268.446 42.8364 266.705 42.2041L266.547 42.046C265.124 41.4137 264.174 40.4653 263.384 38.8847C262.751 37.304 262.593 35.5652 263.225 33.8265L263.7 32.72C264.016 31.9297 264.965 31.4555 265.756 31.7716L274.773 35.2491C275.564 35.5652 276.039 36.5136 275.722 37.304L275.248 38.4105Z" fill="white"/>
<path d="M295.812 44.417C295.812 44.1009 295.812 43.6267 295.654 43.3106C295.338 42.5202 294.863 41.8879 294.072 41.5718L285.055 38.0943C283.948 37.6201 282.841 37.9363 282.208 38.7266C281.892 39.0427 281.733 39.2008 281.575 39.675L281.101 40.7815C280.31 42.6783 280.468 44.8912 281.259 46.63C282.05 48.3687 283.315 49.6333 285.055 50.2655L285.372 50.4236C287.27 51.2139 289.326 51.0559 291.225 50.2655C293.123 49.4752 294.547 47.8945 295.338 45.9977L295.654 45.0493C295.812 44.8912 295.812 44.5751 295.812 44.417ZM294.23 45.6816C293.598 47.4203 292.332 48.6849 290.75 49.3171C289.168 50.1075 287.428 50.1075 285.688 49.4752L285.53 49.3171C284.106 48.6849 283.157 47.7365 282.366 46.1558C281.733 44.5751 281.575 42.8364 282.208 41.0976L282.683 39.9911C282.999 39.2008 283.948 38.7266 284.739 39.0427L293.756 42.5202C294.547 42.8364 295.021 43.7848 294.705 44.5751L294.23 45.6816Z" fill="white"/>
<path d="M264.016 30.9813C263.225 30.1909 261.327 28.2941 257.847 27.3457V28.4522C260.694 29.4006 262.276 30.8232 263.067 31.6135C263.225 31.7716 263.384 31.9297 263.384 31.9297L264.333 31.2974C264.333 31.2974 264.333 31.1393 264.016 30.9813Z" fill="white"/>
<path d="M276.355 37.7782V36.6717C276.355 36.6717 278.095 36.6717 279.677 37.304C281.417 37.9362 282.366 38.8846 282.366 39.0427L281.575 39.833C281.575 39.833 280.784 39.0427 279.361 38.4104C277.937 37.7782 276.355 37.7782 276.355 37.7782Z" fill="white"/>
<path d="M299.292 43.4686C297.236 42.9944 295.338 43.1525 295.179 43.1525L295.338 44.259C295.338 44.259 297.394 44.1009 299.292 44.5751V43.4686Z" fill="white"/>
<path d="M267.813 146.845C267.813 146.845 268.129 154.116 265.915 156.013C263.7 158.068 261.485 147.951 261.485 147.951C261.485 147.951 264.016 160.123 261.169 160.439C258.322 160.755 255.632 148.9 255.632 148.9C255.632 148.9 255.949 156.961 253.892 157.436C251.836 157.91 249.463 149.216 249.463 149.216C249.463 149.216 249.147 155.539 247.565 156.013C246.141 156.487 243.135 149.216 243.135 145.58C242.977 141.787 248.356 144.158 248.356 144.158C248.356 144.158 252.31 142.893 254.367 144.474C254.367 144.474 257.847 142.735 260.378 143.842C260.062 143.842 265.915 141.945 267.813 146.845Z" fill="#FDA893"/>
<path d="M235.701 146.845H194.255L194.097 146.529C193.306 135.464 200.266 116.97 205.17 100.689C208.334 89.9406 212.605 76.979 221.622 73.3435C223.204 75.2403 226.051 82.8275 226.209 86.7792C226.684 96.1052 225.577 106.064 223.678 111.28C221.147 118.709 217.983 127.877 215.769 135.306C215.769 135.464 215.611 136.254 215.611 136.254C215.611 136.254 216.085 136.571 216.876 136.887C219.407 138.467 226.526 142.419 235.701 146.845Z" fill="#605BFF"/>
<path d="M216.718 137.045C212.289 139.1 206.278 143.367 206.119 143.367C205.961 143.526 205.803 143.526 205.645 143.526C205.328 143.526 205.012 143.367 204.854 143.051C204.538 142.577 204.696 142.103 205.012 141.787C205.328 141.629 211.181 137.519 215.611 135.306C215.611 135.464 215.453 136.254 215.453 136.254C215.611 136.413 216.085 136.571 216.718 137.045Z" fill="#605BFF"/>
<path d="M248.356 70.9725C248.356 70.9725 251.519 85.3566 262.909 86.147C274.299 86.9373 275.248 75.5564 275.248 75.5564" stroke="white" stroke-width="1.2" stroke-miterlimit="10" stroke-linecap="round"/>
<path d="M648.098 542.172C648.098 542.172 646.832 543.437 644.143 543.595C643.352 543.595 642.403 543.595 641.295 543.437C640.188 543.279 638.923 542.805 637.499 542.172C637.499 542.172 638.132 516.249 627.533 498.23C617.093 480.368 603.172 455.551 614.245 442.906C625.318 430.261 643.352 447.806 649.205 477.523C655.216 507.24 648.098 542.172 648.098 542.172Z" fill="#605BFF"/>
<path d="M644.143 543.595C643.352 543.595 642.403 543.595 641.295 543.437C644.617 497.281 623.737 461.716 623.578 461.242C623.104 460.609 623.42 459.661 624.053 459.345C624.686 459.029 625.635 459.187 625.951 459.819C626.109 460.293 647.623 496.649 644.143 543.595Z" fill="white"/>
<path d="M684.164 500.285C659.487 539.96 661.227 549.286 661.227 549.286L658.063 548.653L655.374 548.179L651.419 547.547C649.205 529.843 662.809 455.393 687.012 455.393C711.531 455.235 692.548 486.691 684.164 500.285Z" fill="#605BFF"/>
<path d="M683.215 477.365C683.057 477.681 662.334 514.511 658.063 548.653L655.374 548.179C659.803 513.562 680.684 476.416 680.842 476.1C681.159 475.468 682.108 475.152 682.741 475.626C683.374 475.784 683.532 476.732 683.215 477.365Z" fill="white"/>
<path d="M637.341 545.65L634.493 546.44L631.804 547.231L630.222 547.705C630.38 547.389 629.115 544.385 611.714 521.15C604.596 511.665 585.455 485.9 603.014 481.633C618.991 477.681 637.815 532.372 637.341 545.65Z" fill="#605BFF"/>
<path d="M634.493 546.44L631.804 547.231C626.742 524.943 606.494 497.597 606.336 497.281C605.861 496.649 606.019 495.859 606.652 495.384C607.285 494.91 608.076 495.068 608.55 495.701C609.5 496.807 629.431 523.679 634.493 546.44Z" fill="white"/>
<path d="M671.668 604.451C671.668 608.877 616.618 608.877 616.618 604.451V539.011C616.618 538.379 617.093 537.747 617.884 537.747H670.402C671.035 537.747 671.668 538.221 671.668 539.011V604.451Z" fill="#605BFF"/>
<path d="M100.608 606.19H61.0607C55.6823 606.19 50.9366 602.08 49.1965 596.074L32.4286 534.743C31.7958 532.214 33.2195 529.685 35.4342 529.369C65.9645 526.524 96.1785 526.524 126.234 529.369C128.449 529.527 129.873 532.214 129.24 534.743L112.314 595.916C110.732 602.08 105.986 606.19 100.608 606.19Z" fill="#605BFF"/>
<path d="M125.602 533.795C125.602 535.376 105.67 536.798 80.9924 536.798C56.315 536.798 36.3833 535.376 36.3833 533.795C36.3833 532.214 56.315 530.792 80.9924 530.792C105.67 530.792 125.602 532.214 125.602 533.795Z" fill="#605BFF"/>
<path d="M131.454 450.967C115.477 446.7 90.9583 480.052 83.5234 512.456V465.193C87.3199 458.555 94.4384 448.596 107.41 438.006C127.5 421.567 146.166 400.544 130.031 396.276C115.003 392.324 92.382 421.409 83.5234 451.758V391.06C86.0544 387.108 90.3255 381.734 97.1276 376.201C109.783 365.927 121.489 352.649 111.365 349.962C102.506 347.591 89.6928 363.24 83.5234 380.785V361.185C84.6307 355.02 86.0544 346.485 90.0091 337.475C99.3422 316.926 104.404 295.745 92.0656 297.326C79.7269 298.906 71.8175 335.578 78.4614 363.714V373.83C73.8739 353.282 58.2133 331.942 48.0892 334.63C37.9652 337.317 49.6711 350.594 62.3262 360.869C71.9757 368.772 76.5631 376.043 78.4614 379.995V427.89C71.1847 395.169 46.5073 361.501 30.3721 365.769C14.2369 370.037 32.9032 391.06 52.9931 407.499C68.1791 419.828 75.4558 431.525 78.4614 437.848V495.226C70.7102 463.297 46.6655 430.893 30.8467 435.003C14.7115 439.27 28.6321 454.603 51.253 473.255C66.5973 485.9 74.8231 499.178 78.6196 506.449V533.479C80.3596 533.953 82.0997 533.953 83.5234 533.479V522.73C86.6872 516.407 93.8057 504.869 108.834 492.697C129.082 476.258 147.59 455.235 131.454 450.967Z" fill="#605BFF"/>
</g>
<defs>
<clipPath id="clip0_6_2130">
<rect width="709" height="625" fill="white"/>
</clipPath>
</defs>
</svg>
