<svg width="708" height="695" viewBox="0 0 708 695" fill="none" xmlns="http://www.w3.org/2000/svg">
<g clip-path="url(#clip0_5_50)">
<path d="M708 467.588H436.368V310.454H708V467.588ZM438.025 465.93H706.343V312.112H438.025V465.93Z" fill="#E0E0E0"/>
<path d="M651.983 394.325H472.829V399.629H651.983V394.325Z" fill="#F0F0F0"/>
<path d="M664.413 413.884H472.829V419.685H664.413V413.884Z" fill="#F0F0F0"/>
<path d="M664.413 433.774H472.829V439.576H664.413V433.774Z" fill="#F0F0F0"/>
<path d="M535.475 365.816H472.829V379.407H535.475V365.816Z" fill="#F0F0F0"/>
<path d="M707.171 311.283H437.197V336.312H707.171V311.283Z" fill="#E0E0E0"/>
<path d="M686.455 332.499C686.124 332.168 689.604 328.024 694.244 323.052C698.885 318.245 702.862 314.598 703.194 314.93C703.525 315.261 700.045 319.405 695.404 324.378C690.764 329.184 686.786 332.831 686.455 332.499Z" fill="white"/>
<path d="M703.194 332.499C702.862 332.831 698.885 329.184 694.244 324.378C689.604 319.571 686.124 315.261 686.455 314.93C686.786 314.598 690.764 318.245 695.404 323.052C700.045 328.024 703.525 332.168 703.194 332.499Z" fill="white"/>
<path d="M373.888 0H103.913V155.476H373.888V0Z" fill="#E6E6E6"/>
<path d="M318.534 83.042H139.379V88.3461H318.534V83.042Z" fill="#F0F0F0"/>
<path d="M330.963 102.601H139.379V108.402H330.963V102.601Z" fill="#F0F0F0"/>
<path d="M330.963 122.491H139.379V128.292H330.963V122.491Z" fill="#F0F0F0"/>
<path d="M202.025 54.5325H139.379V68.1242H202.025V54.5325Z" fill="#F0F0F0"/>
<path d="M373.888 0H103.913V25.0286H373.888V0Z" fill="#E0E0E0"/>
<path d="M352.177 21.2163C351.845 20.8848 355.326 16.741 359.966 11.7684C364.607 6.96159 368.584 3.31503 368.916 3.64654C369.247 3.97804 365.767 8.12185 361.126 13.0944C356.486 17.9012 352.508 21.5478 352.177 21.2163Z" fill="white"/>
<path d="M368.916 21.2163C368.584 21.5478 364.607 17.9012 359.966 13.0944C355.326 8.28761 351.845 3.97804 352.177 3.64654C352.508 3.31503 356.486 6.96159 361.126 11.7684C365.767 16.5752 369.247 20.8848 368.916 21.2163Z" fill="white"/>
<path d="M271.632 288.907H0V131.773H271.632V288.907ZM1.6573 287.249H269.975V133.431H1.6573V287.249Z" fill="#E0E0E0"/>
<path d="M215.449 215.644H36.2949V220.948H215.449V215.644Z" fill="#F0F0F0"/>
<path d="M227.879 235.203H36.2949V241.004H227.879V235.203Z" fill="#F0F0F0"/>
<path d="M227.879 254.927H36.2949V260.729H227.879V254.927Z" fill="#F0F0F0"/>
<path d="M98.941 187.135H36.2949V200.726H98.941V187.135Z" fill="#F0F0F0"/>
<path d="M270.803 132.602H0.828674V157.631H270.803V132.602Z" fill="#E0E0E0"/>
<path d="M585.028 325.041H266.329V610.466H585.028V325.041Z" fill="#E6E6E6"/>
<path d="M282.239 235.037H32.6489V494.44H282.239V235.037Z" fill="#F0F0F0"/>
<path d="M282.239 235.037H32.6489V263.381H282.239V235.037Z" fill="#E0E0E0"/>
<path d="M53.1994 248.96C53.1994 251.944 50.8792 254.43 47.8961 254.43C45.0787 254.43 42.5927 251.944 42.5927 248.96C42.5927 245.977 44.9129 243.49 47.8961 243.49C50.8792 243.49 53.1994 245.977 53.1994 248.96Z" fill="white"/>
<path d="M74.5787 248.96C74.5787 251.944 72.2584 254.43 69.2753 254.43C66.4579 254.43 63.9719 251.944 63.9719 248.96C63.9719 245.977 66.2921 243.49 69.2753 243.49C72.2584 243.49 74.5787 245.977 74.5787 248.96Z" fill="white"/>
<path d="M95.7921 248.96C95.7921 251.944 93.4719 254.43 90.4887 254.43C87.6713 254.43 85.1854 251.944 85.1854 248.96C85.1854 245.977 87.5056 243.49 90.4887 243.49C93.4719 243.49 95.7921 245.977 95.7921 248.96Z" fill="white"/>
<path d="M672.368 56.6873H353.669V374.435H672.368V56.6873Z" fill="#F0F0F0"/>
<path d="M672.368 56.6873H353.669V93.8159H672.368V56.6873Z" fill="#E0E0E0"/>
<path d="M380.848 74.9201C380.848 78.8981 377.699 82.2132 373.888 82.2132C370.076 82.2132 366.927 79.0639 366.927 74.9201C366.927 70.942 370.076 67.627 373.888 67.627C377.699 67.7927 380.848 70.942 380.848 74.9201Z" fill="white"/>
<path d="M406.702 70.1133C409.52 72.9311 409.685 77.4064 406.868 80.0584C404.216 82.7105 399.742 82.7105 396.924 79.8927C394.107 77.0749 393.941 72.5996 396.758 69.9475C399.576 67.1297 403.885 67.2955 406.702 70.1133Z" fill="white"/>
<path d="M436.865 74.9201C436.865 78.8981 433.716 82.2132 429.904 82.2132C426.093 82.2132 422.944 79.0639 422.944 74.9201C422.944 70.942 426.093 67.627 429.904 67.627C433.716 67.627 436.865 70.942 436.865 74.9201Z" fill="white"/>
<path d="M603.59 694.669C603.59 694.834 488.573 695.166 346.542 695.166C204.511 695.166 89.4944 695 89.4944 694.669C89.4944 694.503 204.511 694.171 346.542 694.171C488.407 694.171 603.59 694.337 603.59 694.669Z" fill="#263238"/>
<path d="M491.39 491.788C465.868 473.886 459.902 440.736 461.062 410.9C461.228 405.928 460.73 400.624 463.051 396.314C465.371 392.005 471.006 389.021 475.48 391.01C479.126 392.833 480.784 396.977 482.938 400.624C485.756 405.43 489.733 409.243 494.539 411.729C497.688 413.387 501.666 414.381 504.815 412.724C509.124 410.403 509.621 404.436 509.621 399.463C509.621 390.181 509.455 381.065 509.455 371.783C509.455 366.81 509.455 361.838 510.947 357.031C512.438 352.39 515.919 347.914 520.559 346.588C525.199 345.262 531.166 347.914 532.16 352.887C532.492 354.876 532.16 357.031 532.326 359.02C532.492 361.009 533.486 363.329 535.309 363.992C537.298 364.655 539.286 363.164 540.778 361.672C545.916 356.699 549.396 350.235 552.545 343.771C555.694 337.306 559.008 330.842 563.649 325.372C568.289 319.902 574.753 315.593 581.879 315.261C589.006 314.93 596.463 319.239 598.286 326.201C600.11 333.162 595.966 340.29 591.657 345.925C585.028 354.379 577.239 361.672 568.621 367.805C567.129 368.965 565.306 370.125 564.809 371.948C563.815 375.264 566.798 378.579 570.112 379.573C573.758 380.733 577.736 380.402 581.713 380.899C585.525 381.396 589.834 383.054 591.16 386.7C593.149 391.839 589.006 397.143 584.862 400.624C576.576 407.585 566.963 413.055 556.854 416.867C553.208 418.193 549.396 419.354 546.413 422.006C543.43 424.492 541.772 428.967 543.43 432.448C545.253 435.929 549.727 437.089 553.539 436.426C557.351 435.763 560.831 433.608 564.477 432.282C571.272 429.63 580.056 430.128 584.365 436.095C587.183 439.907 587.514 445.377 586.022 450.018C584.531 454.659 581.713 458.637 578.565 462.284C567.626 475.046 553.705 485.323 537.961 490.793C521.719 495.931 507.135 497.423 491.39 491.788Z" fill="#605BFF"/>
<path d="M590.829 319.239C590.829 319.239 590.663 319.405 590.331 319.736C590 320.068 589.503 320.565 588.84 321.062C587.514 322.223 585.691 323.88 583.205 326.201C578.399 330.676 571.604 337.472 564.312 346.588C560.666 351.229 556.854 356.368 552.711 362.003C548.733 367.639 544.424 373.772 540.281 380.236C536.138 386.866 531.829 393.828 528.017 401.452C526.028 405.265 524.371 409.243 522.713 413.221C521.056 417.199 519.233 421.343 517.41 425.487C510.449 442.062 504.152 458.14 499.677 473.223C495.202 488.141 492.551 502.064 491.39 513.833C490.23 525.601 490.396 535.215 490.893 541.845C491.225 545.16 491.39 547.646 491.556 549.469C491.722 550.298 491.722 550.961 491.722 551.458C491.722 551.956 491.722 552.121 491.722 552.121C491.722 552.121 491.722 551.956 491.556 551.458C491.556 550.961 491.39 550.298 491.225 549.469C490.893 547.812 490.562 545.16 490.23 541.845C489.567 535.215 489.236 525.601 490.396 513.833C491.556 502.064 494.042 487.975 498.517 473.057C502.992 457.974 509.124 441.896 516.084 425.321C517.907 421.177 519.565 417.033 521.388 413.055C523.045 409.077 524.868 405.099 526.691 401.287C530.503 393.662 534.812 386.535 538.955 380.07C543.264 373.44 547.407 367.473 551.551 361.838C555.528 356.202 559.506 351.064 563.152 346.423C570.61 337.306 577.404 330.51 582.376 326.201C584.862 324.046 586.851 322.389 588.177 321.228C588.84 320.731 589.337 320.234 589.669 319.902C590.663 319.405 590.829 319.239 590.829 319.239Z" fill="#263238"/>
<path d="M527.685 400.955C527.685 400.955 527.52 400.292 527.188 398.8C526.857 397.474 526.691 395.485 526.194 392.999C525.531 388.027 524.702 381.231 524.039 373.606C523.211 365.981 522.382 359.186 521.719 354.379C521.388 351.892 521.056 349.903 520.725 348.577C520.559 347.251 520.393 346.423 520.393 346.423C520.393 346.423 520.725 347.086 521.056 348.577C521.388 349.903 521.885 351.892 522.216 354.379C523.211 359.351 524.039 366.147 524.868 373.606C525.697 381.065 526.36 387.861 526.857 392.999C527.188 395.32 527.354 397.309 527.52 398.8C527.685 400.292 527.685 400.955 527.685 400.955Z" fill="#263238"/>
<path d="M591.326 389.187C591.326 389.187 590.497 389.353 588.84 389.518C587.183 389.684 584.862 389.85 581.879 390.181C576.079 390.844 567.958 392.005 559.174 393.662C550.39 395.32 542.435 397.143 536.801 398.635C533.983 399.298 531.663 399.961 530.006 400.458C528.348 400.955 527.52 401.121 527.52 401.121C527.52 401.121 528.348 400.789 529.84 400.126C531.331 399.629 533.652 398.8 536.469 397.972C542.104 396.314 550.059 394.325 558.843 392.668C567.626 391.01 575.747 390.016 581.548 389.518C584.531 389.187 586.851 389.187 588.508 389.187C590.331 389.021 591.326 389.021 591.326 389.187Z" fill="#263238"/>
<path d="M499.843 471.897C499.843 471.897 499.677 471.566 499.345 471.068C499.014 470.405 498.683 469.742 498.185 468.748C497.191 466.759 496.031 463.775 494.374 460.129C491.225 452.836 487.413 442.559 483.27 431.288C479.126 420.017 475.315 409.74 472.331 402.281C470.84 398.635 469.68 395.817 468.851 393.662C468.52 392.668 468.188 392.005 467.857 391.342C467.691 390.844 467.525 390.513 467.525 390.513C467.525 390.513 467.691 390.844 468.022 391.342C468.354 392.005 468.685 392.668 469.183 393.662C470.177 395.651 471.337 398.635 472.994 402.281C476.143 409.574 479.955 419.851 484.098 431.122C488.242 442.393 492.053 452.67 495.037 459.963C496.528 463.61 497.688 466.427 498.517 468.582C498.848 469.577 499.18 470.24 499.511 470.903C499.843 471.566 499.843 471.897 499.843 471.897Z" fill="#263238"/>
<path d="M584.531 444.548C584.531 444.548 584.199 444.714 583.702 444.88C583.039 445.045 582.211 445.377 581.216 445.708C578.896 446.371 575.913 447.366 572.101 448.692C564.478 451.178 553.871 454.659 542.27 458.637C530.669 462.615 520.062 466.096 512.272 468.416C508.461 469.577 505.312 470.571 503.157 471.068C502.163 471.4 501.334 471.566 500.671 471.731C500.174 471.897 499.843 471.897 499.843 471.897C499.843 471.897 500.174 471.731 500.671 471.566C501.334 471.4 502.163 471.068 503.157 470.737C505.478 470.074 508.461 469.079 512.272 467.753C519.896 465.267 530.503 461.786 542.104 457.808C553.705 453.83 564.312 450.349 571.935 448.029C575.747 446.869 578.896 445.874 581.051 445.377C582.045 445.045 582.874 444.88 583.536 444.714C584.199 444.548 584.531 444.548 584.531 444.548Z" fill="#263238"/>
<path d="M550.059 42.4326L541.441 45.4162L537.795 34.3108C531 13.7575 509.621 2.65205 489.899 9.77941C470.177 16.741 459.736 39.2833 466.365 59.8367L470.011 70.9421L461.393 73.9256C454.764 76.2461 451.118 84.0365 453.438 90.9981L477.303 163.763C479.624 170.891 486.916 174.537 493.711 172.217L582.211 140.558C589.006 138.072 592.652 130.447 590.331 123.32L566.632 50.7203C564.146 43.7587 556.688 40.1121 550.059 42.4326ZM482.607 54.2011C478.961 42.9299 484.595 30.6642 495.534 26.6862C506.306 22.8739 518.073 28.8409 521.719 40.1121L525.365 51.3833L486.253 65.3065L482.607 54.2011ZM532.326 118.513L538.458 137.077C538.789 137.906 538.292 138.735 537.463 138.901L529.011 141.884C528.348 142.05 527.52 141.718 527.354 141.055L521.222 122.491C514.593 122.16 508.626 117.85 506.306 110.888C503.323 101.938 507.963 92.1584 516.581 89.0091C525.199 85.8598 534.48 90.6666 537.463 99.783C539.618 106.745 537.298 114.038 532.326 118.513Z" fill="#605BFF"/>
<path d="M541.11 45.2505C541.11 45.4162 525.365 51.3833 505.643 58.5106C485.921 65.638 469.846 71.2736 469.846 70.9421C469.846 70.7763 485.59 64.8092 505.312 57.6819C525.034 50.7203 540.944 45.0847 541.11 45.2505Z" fill="#263238"/>
<path d="M559.837 48.3997C559.837 48.3997 559.837 48.5655 560.003 48.897C560.169 49.2285 560.334 49.7257 560.5 50.223C560.997 51.3833 561.494 53.0408 562.323 55.1956C563.815 59.6709 565.969 65.9695 568.621 73.7598C571.272 81.5502 574.421 90.9981 577.902 101.275C579.559 106.413 581.548 111.883 583.371 117.518C584.199 120.336 584.862 123.486 584.697 126.635C584.531 128.127 584.199 129.784 583.371 131.276C582.542 132.768 581.548 133.928 580.222 134.923C577.736 136.912 574.753 138.072 571.77 139.232C568.952 140.227 565.969 141.221 563.152 142.381C557.517 144.37 552.213 146.359 547.076 148.183C536.801 151.829 527.52 155.144 519.73 157.962C511.941 160.614 505.643 162.935 501.334 164.426C499.18 165.089 497.522 165.752 496.362 166.084C497.522 165.587 499.18 164.924 501.334 164.261C505.809 162.603 511.941 160.283 519.73 157.465C527.52 154.647 536.801 151.332 547.076 147.52C552.213 145.696 557.683 143.707 563.152 141.718C565.969 140.724 568.786 139.729 571.604 138.569C574.421 137.575 577.404 136.414 579.725 134.425C580.885 133.431 581.879 132.27 582.708 130.944C583.371 129.618 583.868 128.127 584.034 126.635C584.365 123.651 583.702 120.668 582.874 117.85C581.051 112.214 579.228 106.745 577.57 101.606C574.09 91.1638 571.107 81.8817 568.455 74.0913C565.969 66.301 563.815 60.0024 562.323 55.5271C561.66 53.3723 561.163 51.7148 560.666 50.3887C560.5 49.8915 560.334 49.3942 560.334 49.0627C559.837 48.5655 559.837 48.3997 559.837 48.3997Z" fill="#263238"/>
<path d="M513.267 25.5259C513.267 25.5259 512.438 25.0286 510.781 24.3656C509.124 23.7026 506.638 23.0396 503.489 22.8738C500.34 22.7081 496.528 23.2054 492.882 24.8629C489.07 26.5204 485.424 29.3382 482.772 33.3163C480.121 37.2943 478.961 41.7696 478.961 45.9134C478.961 50.0573 479.789 53.7038 480.618 56.6874C481.447 59.6709 482.441 62.1572 482.938 63.8147C483.601 65.4722 483.933 66.4667 483.767 66.4667C483.767 66.4667 483.27 65.638 482.607 63.9805C481.944 62.3229 480.949 60.0024 479.955 57.0189C478.961 54.0353 478.132 50.223 478.132 45.9134C478.132 41.6039 479.292 36.9628 482.11 32.819C484.927 28.6752 488.739 25.6916 492.716 24.0341C496.694 22.3766 500.506 21.8793 503.654 22.2108C506.803 22.3766 509.289 23.2054 510.947 24.0341C511.775 24.3656 512.438 24.6971 512.77 25.0286C513.101 25.3601 513.267 25.5259 513.267 25.5259Z" fill="#263238"/>
<path d="M513.93 90.3351C513.93 90.3351 514.261 90.1693 514.758 89.8378C515.256 89.5063 516.25 89.1748 517.244 88.8433C518.405 88.5118 519.896 88.1803 521.553 88.1803C523.211 88.0145 525.199 88.3461 527.354 89.0091C531.663 90.5008 535.475 94.8104 537.463 100.612C538.458 103.43 538.458 106.91 537.463 110.06C536.469 113.375 534.646 116.358 531.994 119.01L532.16 118.513C534.315 124.48 536.801 131.11 539.287 137.906L539.452 138.403L538.955 138.569C537.795 138.901 536.469 139.398 535.143 139.895C532.326 140.89 529.674 141.718 526.857 142.713L526.525 142.879L526.36 142.547C524.039 135.751 521.553 129.121 519.73 122.988L520.062 123.32C516.747 123.154 513.598 121.662 511.112 119.839C508.626 118.016 506.803 115.695 505.478 113.209C504.317 110.723 503.654 108.071 503.654 105.75C503.654 103.43 504.317 101.109 504.98 99.2857C506.472 95.6392 508.792 93.3186 510.615 91.9926C512.77 90.6666 513.93 90.3351 513.93 90.3351C513.93 90.3351 512.935 90.8323 511.278 92.1584C509.621 93.4844 507.466 95.8049 505.975 99.4515C504.483 102.932 503.986 108.071 506.472 112.877C507.632 115.198 509.455 117.518 511.941 119.176C514.261 120.999 517.244 122.325 520.393 122.491H520.725V122.823C522.548 128.955 525.034 135.42 527.354 142.381L526.857 142.05C529.508 141.221 532.326 140.227 535.143 139.232C536.469 138.735 537.795 138.403 538.955 137.906L538.624 138.403C536.138 131.607 533.817 124.977 531.497 119.01L531.331 118.844L531.497 118.679C533.983 116.192 535.806 113.209 536.801 110.06C537.629 106.91 537.629 103.761 536.801 100.943C534.978 95.3077 531.331 91.1638 527.188 89.6721C525.199 88.8433 523.211 88.6776 521.553 88.6776C519.896 88.6776 518.405 89.0091 517.244 89.3406C515.09 89.8378 513.93 90.5008 513.93 90.3351Z" fill="#263238"/>
<path d="M462.719 569.028L297.154 568.199C277.267 568.034 261.191 551.956 261.191 532.065L263.014 117.021C263.18 97.131 279.256 81.053 299.309 81.053L464.874 81.8817C484.761 82.0475 500.837 98.1255 500.837 118.016L499.014 533.06C498.848 552.95 482.607 569.028 462.719 569.028Z" fill="#455A64"/>
<path d="M464.542 96.1365L432.556 95.9707C428.247 95.9707 424.767 99.6173 424.767 104.093V109.894C424.767 114.369 421.286 118.016 416.978 118.016L354.331 117.684C350.022 117.684 346.542 114.038 346.542 109.562V103.761C346.542 99.2858 343.062 95.6392 338.753 95.6392H327.483L299.475 95.4734C285.553 95.4734 274.118 106.745 274.118 120.668L272.461 525.767C272.461 539.69 283.73 551.127 297.652 551.127L462.885 551.956C476.806 551.956 488.242 540.684 488.242 526.761L489.899 121.662C489.733 107.573 478.463 96.1365 464.542 96.1365Z" fill="white"/>
<path d="M442.126 497.952L319.32 497.455C317.994 497.455 317 496.129 317 494.305L317.166 462.149C317.166 460.492 318.16 459 319.486 459L442.292 459.497C443.618 459.497 444.612 460.823 444.612 462.647L444.447 494.803C444.447 496.46 443.452 497.952 442.126 497.952Z" fill="#605BFF"/>
<path d="M351.58 485.008L351.639 471.008L354.879 471.023L354.831 482.383L361.851 482.415L361.84 485.055L351.58 485.008ZM368.471 485.246C367.324 485.24 366.305 484.996 365.414 484.511C364.536 484.027 363.839 483.371 363.322 482.542C362.819 481.699 362.57 480.745 362.575 479.678C362.579 478.598 362.836 477.646 363.347 476.822C363.87 475.984 364.573 475.334 365.455 474.872C366.35 474.396 367.371 474.16 368.518 474.166C369.651 474.171 370.664 474.416 371.555 474.9C372.446 475.371 373.143 476.02 373.647 476.849C374.15 477.678 374.399 478.64 374.394 479.733C374.39 480.8 374.133 481.752 373.622 482.589C373.112 483.414 372.409 484.064 371.514 484.54C370.619 485.016 369.604 485.251 368.471 485.246ZM368.482 482.686C369.002 482.688 369.469 482.57 369.883 482.332C370.298 482.094 370.626 481.756 370.868 481.317C371.11 480.864 371.232 480.332 371.234 479.718C371.237 479.092 371.119 478.558 370.881 478.117C370.643 477.676 370.318 477.334 369.906 477.092C369.493 476.85 369.027 476.728 368.507 476.726C367.987 476.723 367.52 476.841 367.106 477.079C366.691 477.317 366.356 477.656 366.101 478.095C365.859 478.533 365.737 479.066 365.734 479.693C365.732 480.306 365.85 480.84 366.088 481.295C366.339 481.736 366.671 482.077 367.083 482.319C367.496 482.561 367.962 482.683 368.482 482.686ZM381.5 489.186C380.487 489.181 379.507 489.05 378.562 488.792C377.629 488.548 376.851 488.178 376.226 487.681L377.476 485.447C377.927 485.823 378.5 486.119 379.192 486.335C379.898 486.565 380.591 486.682 381.271 486.685C382.377 486.69 383.178 486.447 383.674 485.956C384.182 485.465 384.439 484.733 384.443 483.759L384.45 482.139L384.661 479.44L384.633 476.72L384.642 474.4L387.602 474.414L387.565 483.374C387.556 485.374 387.03 486.845 385.986 487.787C384.942 488.728 383.447 489.195 381.5 489.186ZM381.039 484.624C380.039 484.619 379.133 484.402 378.322 483.971C377.524 483.527 376.88 482.918 376.39 482.142C375.913 481.353 375.677 480.439 375.681 479.399C375.686 478.346 375.93 477.433 376.413 476.662C376.91 475.878 377.559 475.274 378.361 474.851C379.176 474.428 380.083 474.219 381.083 474.224C381.99 474.228 382.789 474.418 383.481 474.795C384.173 475.158 384.71 475.727 385.094 476.502C385.477 477.264 385.666 478.245 385.661 479.445C385.656 480.632 385.459 481.611 385.069 482.382C384.679 483.14 384.136 483.705 383.442 484.075C382.747 484.445 381.946 484.628 381.039 484.624ZM381.67 482.067C382.217 482.069 382.704 481.965 383.131 481.753C383.559 481.529 383.894 481.217 384.135 480.818C384.377 480.419 384.499 479.96 384.501 479.44C384.503 478.906 384.385 478.446 384.147 478.058C383.909 477.657 383.577 477.349 383.151 477.133C382.725 476.905 382.239 476.789 381.692 476.787C381.146 476.784 380.659 476.895 380.231 477.12C379.803 477.331 379.462 477.636 379.207 478.035C378.965 478.421 378.843 478.88 378.841 479.413C378.839 479.933 378.957 480.394 379.195 480.795C379.447 481.196 379.786 481.511 380.211 481.74C380.637 481.955 381.123 482.064 381.67 482.067ZM396.125 485.213L396.17 474.453L399.29 474.468L399.245 485.228L396.125 485.213ZM397.737 472.961C397.163 472.958 396.697 472.789 396.339 472.454C395.98 472.119 395.802 471.705 395.804 471.212C395.806 470.718 395.988 470.306 396.349 469.974C396.711 469.643 397.178 469.478 397.751 469.481C398.325 469.483 398.791 469.646 399.149 469.967C399.508 470.276 399.686 470.676 399.684 471.17C399.682 471.69 399.5 472.122 399.139 472.467C398.791 472.799 398.323 472.963 397.737 472.961ZM408.727 474.351C409.58 474.355 410.339 474.532 411.004 474.882C411.683 475.218 412.214 475.741 412.598 476.449C412.981 477.145 413.171 478.039 413.166 479.132L413.14 485.292L410.02 485.278L410.044 479.598C410.048 478.731 409.857 478.09 409.472 477.675C409.101 477.26 408.568 477.051 407.875 477.048C407.382 477.045 406.935 477.15 406.534 477.361C406.146 477.56 405.838 477.872 405.61 478.297C405.395 478.723 405.286 479.269 405.283 479.936L405.26 485.256L402.14 485.241L402.186 474.481L405.166 474.495L405.153 477.475L404.597 476.572C404.987 475.854 405.542 475.303 406.264 474.92C406.986 474.537 407.807 474.347 408.727 474.351Z" fill="#E8E8E3"/>
<path d="M343.912 215.247L301.319 215.05L301.283 222.841L343.876 223.037L343.912 215.247Z" fill="#605BFF"/>
<path opacity="0.1" d="M343.912 215.247L301.319 215.05L301.283 222.841L343.876 223.037L343.912 215.247Z" fill="black"/>
<path d="M469.017 263.215C469.017 263.215 469.348 263.215 470.011 263.049C470.674 262.883 471.503 262.055 471.669 260.894C471.669 258.242 471.669 254.43 471.669 249.457C471.669 246.971 471.669 244.153 471.669 241.17C471.669 240.341 471.669 239.678 471.669 238.849C471.669 238.021 471.669 237.358 471.171 236.695C470.674 236.032 470.011 235.7 469.183 235.7C468.354 235.7 467.525 235.7 466.531 235.7C459.404 235.7 451.449 235.7 442.666 235.7C407.199 235.534 358.143 235.368 304.115 235.203C303.452 235.203 302.624 235.534 302.292 236.197C301.795 236.86 301.795 237.523 301.795 238.352C301.795 240.01 301.795 241.667 301.795 243.325C301.795 246.64 301.795 249.955 301.795 253.27C301.795 254.927 301.795 256.585 301.795 258.242C301.795 259.071 301.795 259.9 301.795 260.563C301.961 261.226 302.458 261.723 303.121 262.055C303.452 262.22 303.784 262.22 304.115 262.22H305.275H307.761C309.419 262.22 310.91 262.22 312.567 262.22C325.329 262.22 337.593 262.386 349.36 262.386C372.728 262.552 393.941 262.718 411.674 262.718C429.407 262.883 443.66 263.049 453.604 263.049C458.576 263.049 462.388 263.215 465.039 263.215C462.388 263.215 458.576 263.215 453.604 263.215C443.66 263.215 429.242 263.215 411.508 263.215C393.775 263.215 372.562 263.049 349.194 263.049C337.427 263.049 325.163 262.883 312.402 262.883C310.744 262.883 309.253 262.883 307.596 262.883H305.11H303.949C303.618 262.883 302.955 262.883 302.624 262.718C301.795 262.386 301.132 261.557 300.801 260.729C300.635 260.231 300.635 259.734 300.635 259.403V258.242C300.635 256.585 300.635 254.927 300.635 253.27C300.635 249.955 300.635 246.64 300.635 243.325C300.635 241.667 300.635 240.01 300.635 238.352C300.635 237.855 300.635 237.523 300.635 237.026C300.635 236.529 300.966 236.031 301.132 235.7C301.629 234.871 302.624 234.374 303.618 234.374C357.812 234.705 406.702 234.871 442.169 235.203C450.952 235.203 459.073 235.368 466.034 235.368C466.862 235.368 467.857 235.368 468.685 235.368C469.68 235.368 470.508 235.866 471.006 236.529C471.503 237.192 471.503 238.186 471.503 239.015C471.503 239.844 471.503 240.507 471.503 241.336C471.503 244.319 471.503 247.137 471.503 249.623C471.503 254.596 471.337 258.408 471.337 261.06C471.171 262.386 470.177 263.215 469.514 263.381C469.348 263.215 469.017 263.215 469.017 263.215Z" fill="#E0E0E0"/>
<path d="M390.647 245.496L312.753 245.136L312.72 252.429L390.613 252.789L390.647 245.496Z" fill="#605BFF"/>
<path opacity="0.2" d="M390.647 245.496L312.753 245.136L312.72 252.429L390.613 252.789L390.647 245.496Z" fill="white"/>
<path d="M343.581 286.521L300.988 286.325L300.952 294.115L343.545 294.312L343.581 286.521Z" fill="#605BFF"/>
<path opacity="0.1" d="M343.581 286.521L300.988 286.325L300.952 294.115L343.545 294.312L343.581 286.521Z" fill="black"/>
<path d="M467.857 334.488C467.857 334.488 468.188 334.488 468.851 334.323C469.514 334.157 470.343 333.66 471.006 332.499C471.337 331.836 471.337 331.173 471.337 330.345C471.337 329.516 471.337 328.687 471.337 327.693C471.337 325.704 471.337 323.549 471.337 321.063C471.337 318.576 471.337 315.758 471.337 312.775C471.337 311.946 471.337 311.283 471.337 310.454C471.337 309.626 471.337 308.963 470.84 308.3C470.508 307.637 469.846 307.139 469.017 306.974C468.354 306.808 467.36 306.808 466.531 306.808C459.57 306.808 451.449 306.808 442.666 306.808C407.365 306.642 358.475 306.476 304.612 306.311C303.121 306.311 301.795 307.471 301.629 308.963C301.629 310.62 301.629 312.278 301.629 313.935C301.629 317.25 301.629 320.565 301.629 323.88C301.629 325.538 301.629 327.195 301.629 328.853C301.629 329.682 301.464 330.51 301.795 331.173C301.961 331.836 302.458 332.499 302.955 332.831C303.618 333.162 304.281 333.328 304.944 333.328H307.43C309.087 333.328 310.579 333.328 312.236 333.328C324.997 333.328 337.261 333.494 348.862 333.494C372.23 333.66 393.278 333.825 411.011 333.825C428.744 333.991 442.997 334.157 452.941 334.157C457.913 334.157 461.725 334.323 464.376 334.323C465.702 334.323 466.697 334.323 467.36 334.323C467.525 334.488 467.857 334.488 467.857 334.488C467.857 334.488 467.525 334.488 466.862 334.488C466.2 334.488 465.205 334.488 463.879 334.488C461.228 334.488 457.416 334.488 452.444 334.488C442.5 334.488 428.247 334.488 410.514 334.488C392.781 334.488 371.733 334.323 348.365 334.323C336.598 334.323 324.334 334.157 311.739 334.157C310.082 334.157 308.59 334.157 306.933 334.157H304.447C303.618 334.157 302.624 333.991 301.961 333.494C301.132 332.997 300.635 332.168 300.469 331.339C300.303 330.345 300.303 329.682 300.303 328.853C300.303 327.195 300.303 325.538 300.303 323.88C300.303 320.565 300.303 317.25 300.303 313.935C300.303 312.278 300.303 310.62 300.303 308.797C300.469 306.808 302.292 305.316 304.115 305.316C357.978 305.648 406.868 305.813 442.169 306.145C450.952 306.145 459.073 306.311 466.034 306.311C466.862 306.311 467.857 306.145 468.685 306.476C469.514 306.808 470.343 307.305 470.674 308.134C471.171 308.797 471.171 309.791 471.171 310.62C471.171 311.449 471.171 312.112 471.171 312.941C471.171 315.924 471.171 318.742 471.171 321.228C471.171 323.715 471.171 325.869 471.171 327.858C471.171 328.853 471.171 329.682 471.171 330.51C471.171 331.339 471.171 332.002 470.84 332.665C470.177 333.825 469.183 334.323 468.685 334.488C468.188 334.654 467.857 334.488 467.857 334.488Z" fill="#E0E0E0"/>
<path d="M343.415 360.945L300.822 360.749L300.786 368.54L343.379 368.735L343.415 360.945Z" fill="#605BFF"/>
<path opacity="0.1" d="M343.415 360.945L300.822 360.749L300.786 368.54L343.379 368.735L343.415 360.945Z" fill="black"/>
<path d="M467.525 408.911C467.525 408.911 467.857 408.911 468.52 408.746C469.183 408.58 470.011 408.083 470.674 406.922C471.006 406.259 471.006 405.596 471.006 404.767C471.006 403.939 471.006 403.11 471.006 402.115C471.006 400.126 471.006 397.972 471.006 395.485C471.006 392.999 471.006 390.181 471.006 387.198C471.006 386.369 471.006 385.706 471.006 384.877C471.006 384.048 471.006 383.385 470.508 382.722C470.177 382.059 469.514 381.562 468.685 381.396C468.022 381.231 467.028 381.231 466.199 381.231C459.239 381.231 451.118 381.231 442.334 381.231C407.034 381.065 358.143 380.899 304.281 380.733C302.789 380.733 301.464 381.894 301.298 383.385C301.298 385.043 301.298 386.7 301.298 388.358C301.298 391.673 301.298 394.988 301.298 398.303C301.298 399.961 301.298 401.618 301.298 403.276C301.298 404.104 301.132 404.933 301.463 405.596C301.629 406.259 302.126 406.922 302.624 407.254C303.287 407.585 303.949 407.751 304.612 407.751H307.098C308.756 407.751 310.247 407.751 311.905 407.751C324.666 407.751 336.93 407.917 348.531 407.917C371.899 408.083 392.947 408.248 410.68 408.248C428.413 408.414 442.666 408.58 452.61 408.58C457.581 408.58 461.393 408.746 464.045 408.746C465.371 408.746 466.365 408.746 467.028 408.746C467.194 408.911 467.525 408.911 467.525 408.911C467.525 408.911 467.194 408.911 466.531 408.911C465.868 408.911 464.874 408.911 463.548 408.911C460.896 408.911 457.084 408.911 452.112 408.911C442.169 408.911 427.916 408.911 410.183 408.911C392.449 408.911 371.402 408.746 348.034 408.746C336.267 408.746 324.003 408.58 311.407 408.58C309.75 408.58 308.258 408.58 306.601 408.58H304.115C303.287 408.58 302.292 408.414 301.629 407.917C300.801 407.42 300.303 406.591 300.138 405.762C299.972 404.768 299.972 404.104 299.972 403.276C299.972 401.618 299.972 399.961 299.972 398.303C299.972 394.988 299.972 391.673 299.972 388.358C299.972 386.7 299.972 385.043 299.972 383.22C300.138 381.231 301.961 379.739 303.784 379.739C357.646 380.07 406.537 380.236 441.837 380.568C450.621 380.568 458.742 380.733 465.702 380.733C466.531 380.733 467.525 380.568 468.354 380.899C469.183 381.231 470.011 381.728 470.343 382.557C470.84 383.22 470.84 384.214 470.84 385.043C470.84 385.872 470.84 386.535 470.84 387.363C470.84 390.347 470.84 393.165 470.84 395.651C470.84 398.137 470.84 400.292 470.84 402.281C470.84 403.276 470.84 404.104 470.84 404.933C470.84 405.762 470.84 406.591 470.508 407.088C469.846 408.248 468.851 408.746 468.354 408.911C467.857 409.077 467.525 408.911 467.525 408.911Z" fill="#E0E0E0"/>
<path d="M390.316 316.77L312.423 316.41L312.389 323.703L390.282 324.063L390.316 316.77Z" fill="#605BFF"/>
<path opacity="0.2" d="M390.316 316.77L312.423 316.41L312.389 323.703L390.282 324.063L390.316 316.77Z" fill="white"/>
<path d="M319.528 395.485C319.528 397.474 318.037 399.132 316.048 399.132C314.225 399.132 312.567 397.474 312.733 395.485C312.733 393.496 314.225 391.839 316.213 391.839C318.037 391.839 319.528 393.496 319.528 395.485Z" fill="#605BFF"/>
<path d="M330.135 395.485C330.135 397.474 328.643 399.132 326.655 399.132C324.666 399.132 323.174 397.474 323.34 395.485C323.34 393.496 324.831 391.839 326.82 391.839C328.643 391.839 330.135 393.496 330.135 395.485Z" fill="#605BFF"/>
<path d="M340.742 395.485C340.742 397.474 339.25 399.132 337.261 399.132C335.438 399.132 333.781 397.474 333.947 395.485C333.947 393.496 335.438 391.839 337.427 391.839C339.25 391.839 340.742 393.496 340.742 395.485Z" fill="#605BFF"/>
<path d="M351.183 395.651C351.183 397.64 349.691 399.298 347.702 399.298C345.879 399.298 344.222 397.64 344.388 395.651C344.388 393.662 345.879 392.005 347.868 392.005C349.691 392.005 351.348 393.662 351.183 395.651Z" fill="#605BFF"/>
<path d="M361.789 395.651C361.789 397.64 360.298 399.298 358.309 399.298C356.486 399.298 354.829 397.64 354.994 395.651C354.994 393.662 356.486 392.005 358.475 392.005C360.298 392.005 361.789 393.662 361.789 395.651Z" fill="#605BFF"/>
<path d="M372.396 395.651C372.396 397.64 370.904 399.298 368.916 399.298C367.093 399.298 365.435 397.64 365.601 395.651C365.601 393.662 367.093 392.005 369.081 392.005C370.904 392.005 372.396 393.662 372.396 395.651Z" fill="#605BFF"/>
<path d="M383.003 395.817C383.003 397.806 381.511 399.463 379.522 399.463C377.699 399.463 376.042 397.806 376.208 395.817C376.208 393.828 377.699 392.17 379.688 392.17C381.511 392.17 383.003 393.662 383.003 395.817Z" fill="#605BFF"/>
<path d="M393.444 395.817C393.444 397.806 391.952 399.463 389.964 399.463C388.14 399.463 386.483 397.806 386.649 395.817C386.649 393.828 388.14 392.17 390.129 392.17C391.952 392.17 393.444 393.828 393.444 395.817Z" fill="#605BFF"/>
<path d="M404.051 395.817C404.051 397.806 402.559 399.463 400.57 399.463C398.747 399.463 397.09 397.806 397.256 395.817C397.256 393.828 398.747 392.17 400.736 392.17C402.559 392.17 404.051 393.828 404.051 395.817Z" fill="#605BFF"/>
<g opacity="0.2">
<path d="M319.528 395.485C319.528 397.474 318.037 399.132 316.048 399.132C314.225 399.132 312.567 397.474 312.733 395.485C312.733 393.496 314.225 391.839 316.213 391.839C318.037 391.839 319.528 393.496 319.528 395.485Z" fill="white"/>
<path d="M330.135 395.485C330.135 397.474 328.643 399.132 326.655 399.132C324.666 399.132 323.174 397.474 323.34 395.485C323.34 393.496 324.831 391.839 326.82 391.839C328.643 391.839 330.135 393.496 330.135 395.485Z" fill="white"/>
<path d="M340.742 395.485C340.742 397.474 339.25 399.132 337.261 399.132C335.438 399.132 333.781 397.474 333.947 395.485C333.947 393.496 335.438 391.839 337.427 391.839C339.25 391.839 340.742 393.496 340.742 395.485Z" fill="white"/>
<path d="M351.183 395.651C351.183 397.64 349.691 399.298 347.702 399.298C345.879 399.298 344.222 397.64 344.388 395.651C344.388 393.662 345.879 392.005 347.868 392.005C349.691 392.005 351.348 393.662 351.183 395.651Z" fill="white"/>
<path d="M361.789 395.651C361.789 397.64 360.298 399.298 358.309 399.298C356.486 399.298 354.829 397.64 354.994 395.651C354.994 393.662 356.486 392.005 358.475 392.005C360.298 392.005 361.789 393.662 361.789 395.651Z" fill="white"/>
<path d="M372.396 395.651C372.396 397.64 370.904 399.298 368.916 399.298C367.093 399.298 365.435 397.64 365.601 395.651C365.601 393.662 367.093 392.005 369.081 392.005C370.904 392.005 372.396 393.662 372.396 395.651Z" fill="white"/>
<path d="M383.003 395.817C383.003 397.806 381.511 399.463 379.522 399.463C377.699 399.463 376.042 397.806 376.208 395.817C376.208 393.828 377.699 392.17 379.688 392.17C381.511 392.17 383.003 393.662 383.003 395.817Z" fill="white"/>
<path d="M393.444 395.817C393.444 397.806 391.952 399.463 389.964 399.463C388.14 399.463 386.483 397.806 386.649 395.817C386.649 393.828 388.14 392.17 390.129 392.17C391.952 392.17 393.444 393.828 393.444 395.817Z" fill="white"/>
<path d="M404.051 395.817C404.051 397.806 402.559 399.463 400.57 399.463C398.747 399.463 397.09 397.806 397.256 395.817C397.256 393.828 398.747 392.17 400.736 392.17C402.559 392.17 404.051 393.828 404.051 395.817Z" fill="white"/>
</g>
<path d="M389.135 156.636C391.289 155.642 392.947 153.321 392.947 150.669C392.947 147.188 390.295 144.205 386.98 144.205C383.666 144.205 381.014 147.022 380.848 150.669C380.848 153.487 382.506 155.807 384.66 156.636C375.379 157.962 375.876 168.073 375.876 168.073L397.753 168.239C397.753 168.073 398.25 157.962 389.135 156.636Z" fill="#605BFF"/>
<path opacity="0.1" d="M389.135 156.636C391.289 155.642 392.947 153.321 392.947 150.669C392.947 147.188 390.295 144.205 386.98 144.205C383.666 144.205 381.014 147.022 380.848 150.669C380.848 153.487 382.506 155.807 384.66 156.636C375.379 157.962 375.876 168.073 375.876 168.073L397.753 168.239C397.753 168.073 398.25 157.962 389.135 156.636Z" fill="black"/>
<path d="M424.793 174.72L346.568 174.359L346.525 183.641L424.75 184.002L424.793 174.72Z" fill="#605BFF"/>
<path opacity="0.2" d="M424.793 174.72L346.568 174.359L346.525 183.641L424.75 184.002L424.793 174.72Z" fill="white"/>
<path d="M137.225 223.103C137.225 223.103 136.893 223.103 136.396 223.269C135.899 223.269 135.07 223.434 134.076 223.434C133.081 223.434 131.921 223.6 130.43 223.932C129.767 224.097 128.938 224.097 128.11 224.429C127.281 224.595 126.452 224.926 125.624 225.092C121.978 226.252 117.669 228.075 113.36 231.225C109.051 234.374 104.742 238.849 101.261 244.651C99.4382 247.468 98.2781 250.783 97.118 254.264C96.1236 257.745 95.295 261.557 95.295 265.535C95.1292 267.524 95.295 269.513 95.4607 271.503C95.4607 272.497 95.7922 273.492 95.7922 274.486C95.9579 275.481 96.1236 276.475 96.4551 277.635C97.2837 281.779 98.941 285.757 101.096 289.735C105.405 297.526 112.531 304.156 121.315 308.134C125.789 310.123 130.596 311.117 135.567 311.283C140.539 311.615 145.677 310.786 150.483 309.128L151.975 308.631H152.14L152.306 308.797C159.433 312.443 166.393 315.924 173.188 319.405L172.525 319.902C170.371 312.941 168.051 306.311 166.062 299.846V299.68L166.228 299.515C171.531 294.211 175.177 287.746 177.166 281.282C179.155 274.652 179.486 268.022 178.823 261.889C177.994 255.756 176.006 250.12 173.354 245.479C170.702 240.673 167.388 236.86 163.907 233.877C160.427 230.893 156.781 228.904 153.632 227.412C150.317 226.086 147.334 225.092 145.014 224.76C143.854 224.595 142.694 224.429 141.699 224.263C140.705 224.263 140.042 224.097 139.379 224.097C138.716 224.097 138.219 223.932 137.888 223.932C137.39 223.103 137.225 223.103 137.225 223.103C137.225 223.103 137.39 223.103 137.722 223.103C138.053 223.103 138.551 223.103 139.213 223.103C139.876 223.103 140.705 223.103 141.699 223.269C142.694 223.434 143.688 223.6 145.014 223.766C147.5 224.263 150.483 225.092 153.798 226.418C157.112 227.91 160.758 229.899 164.239 232.882C167.719 235.866 171.199 239.678 173.851 244.485C176.669 249.292 178.657 254.927 179.486 261.226C180.315 267.524 179.983 274.32 177.994 280.95C176.006 287.581 172.194 294.211 166.89 299.515L167.056 299.017C169.211 305.482 171.365 312.112 173.52 319.073L173.851 320.068L172.857 319.571C166.062 316.09 159.101 312.609 151.975 308.963H152.306L150.815 309.46C145.843 311.117 140.705 311.946 135.567 311.615C130.43 311.449 125.458 310.289 120.983 308.3C112.034 304.322 104.742 297.526 100.433 289.57C98.2781 285.591 96.6208 281.448 95.7922 277.304C95.4607 276.309 95.295 275.149 95.1292 274.155C94.9635 273.16 94.7978 272.166 94.7978 271.005C94.7978 269.016 94.4663 266.861 94.632 264.872C94.632 260.894 95.6264 257.082 96.6208 253.435C97.7809 249.955 99.1068 246.64 100.93 243.656C104.41 237.855 108.885 233.379 113.194 230.23C117.669 227.081 121.978 225.258 125.624 224.263C126.618 224.097 127.447 223.766 128.275 223.6C129.104 223.434 129.933 223.269 130.596 223.269C132.087 223.103 133.247 222.771 134.242 222.937C135.236 222.937 135.899 222.937 136.562 222.937C136.893 223.103 137.225 223.103 137.225 223.103Z" fill="#605BFF"/>
<path d="M146.671 261.889H143.688L137.059 252.607V246.474C137.059 246.474 132.253 246.142 132.916 254.264C133.413 262.22 132.916 260.231 132.916 260.231C132.916 260.231 122.806 260.231 121.978 261.226C121.315 261.889 121.149 271.834 120.983 277.304C120.983 279.956 122.64 282.608 125.126 283.271C125.458 283.437 125.789 283.437 126.287 283.437C128.772 283.437 141.534 281.448 141.534 281.448H146.837V261.889H146.671Z" fill="#605BFF"/>
<path d="M155.455 260.231L153.466 281.116H148.329V260.563L155.455 260.231Z" fill="#605BFF"/>
<path d="M217.935 686.712V672.458L192.579 672.292L192.413 693.674L194.07 693.84C201.031 694.337 229.702 695 234.508 693.508C239.48 691.851 217.935 686.712 217.935 686.712Z" fill="#605BFF"/>
<path d="M234.84 692.182C234.84 692.348 225.393 692.679 213.626 692.679C201.86 692.679 192.413 692.514 192.413 692.182C192.413 692.016 201.86 691.685 213.626 691.685C225.228 691.851 234.84 692.016 234.84 692.182Z" fill="#263238"/>
<path d="M218.267 689.53C218.101 689.364 218.267 688.701 218.764 687.873C219.261 687.21 219.924 686.712 220.09 686.878C220.256 687.044 219.924 687.707 219.427 688.37C219.095 689.199 218.598 689.696 218.267 689.53Z" fill="#263238"/>
<path d="M219.924 690.525C219.758 690.525 219.758 689.53 220.256 688.701C220.753 687.873 221.416 687.21 221.581 687.375C221.747 687.541 221.416 688.204 220.919 689.033C220.587 690.027 220.256 690.525 219.924 690.525Z" fill="#263238"/>
<path d="M200.037 692.182C199.871 692.182 199.539 691.851 199.042 691.188C198.545 690.525 197.716 689.696 196.888 689.033C195.893 688.37 194.899 687.873 194.07 687.873C193.242 687.707 192.744 687.873 192.744 687.707C192.744 687.541 193.242 687.21 194.07 687.21C194.899 687.21 196.225 687.541 197.385 688.37C198.379 689.199 199.208 690.193 199.539 690.856C199.871 691.519 200.037 692.016 200.037 692.182Z" fill="#263238"/>
<path d="M218.433 686.878C218.598 687.044 218.101 687.541 217.438 687.873C216.775 688.204 216.112 688.038 215.947 687.873C215.947 687.707 216.444 687.375 217.107 687.044C217.77 686.878 218.267 686.712 218.433 686.878Z" fill="#263238"/>
<path d="M217.935 685.552C217.935 685.718 217.272 686.049 216.444 686.049C215.615 686.049 214.952 685.884 214.952 685.718C214.952 685.552 215.615 685.221 216.444 685.221C217.272 685.055 217.935 685.386 217.935 685.552Z" fill="#263238"/>
<path d="M280.416 686.712V672.458L255.059 672.292L254.893 693.508L256.551 693.674C263.511 694.171 292.183 695 296.989 693.508C301.961 691.851 280.416 686.712 280.416 686.712Z" fill="#605BFF"/>
<path d="M297.32 692.182C297.32 692.348 287.874 692.679 276.107 692.679C264.34 692.679 254.893 692.514 254.893 692.182C254.893 692.016 264.34 691.685 276.107 691.685C287.874 691.851 297.32 692.016 297.32 692.182Z" fill="#263238"/>
<path d="M280.913 689.53C280.747 689.364 280.913 688.701 281.41 687.873C281.907 687.21 282.57 686.712 282.736 686.878C282.902 687.044 282.57 687.707 282.073 688.37C281.576 689.199 281.079 689.696 280.913 689.53Z" fill="#263238"/>
<path d="M282.57 690.525C282.405 690.525 282.405 689.53 282.902 688.701C283.399 687.873 284.062 687.21 284.228 687.375C284.393 687.541 284.062 688.204 283.565 689.033C283.233 690.027 282.736 690.525 282.57 690.525Z" fill="#263238"/>
<path d="M262.517 692.182C262.351 692.182 262.02 691.851 261.522 691.188C261.025 690.525 260.197 689.696 259.368 689.033C258.374 688.37 257.379 687.873 256.551 687.873C255.722 687.707 255.225 687.873 255.225 687.707C255.225 687.541 255.722 687.21 256.551 687.21C257.379 687.21 258.705 687.541 259.865 688.37C260.86 689.199 261.688 690.193 262.02 690.856C262.517 691.519 262.683 692.016 262.517 692.182Z" fill="#263238"/>
<path d="M280.913 686.878C281.079 687.044 280.581 687.541 279.919 687.873C279.256 688.204 278.593 688.038 278.427 687.873C278.427 687.707 278.924 687.375 279.587 687.044C280.25 686.878 280.913 686.712 280.913 686.878Z" fill="#263238"/>
<path d="M280.581 685.552C280.581 685.718 279.919 686.049 279.09 686.049C278.261 686.049 277.598 685.884 277.598 685.718C277.598 685.552 278.261 685.221 279.09 685.221C279.919 685.055 280.581 685.386 280.581 685.552Z" fill="#263238"/>
<path d="M374.053 265.867C373.39 265.204 371.733 265.535 371.733 265.535C371.733 265.535 372.065 263.546 371.733 262.718C371.402 261.723 369.413 261.889 369.413 261.889C369.413 261.889 369.247 261.06 369.413 259.568C369.413 259.237 369.247 258.905 368.916 258.74C367.921 258.077 365.767 258.242 365.767 258.242C364.441 257.248 369.744 250.12 371.567 247.8C373.39 245.479 373.225 243.656 371.402 243.656C370.242 243.656 364.11 250.618 362.286 252.938C360.463 255.259 355.492 261.723 355.326 256.585C355.16 251.446 353.006 247.468 351.845 246.805C350.52 246.142 349.194 247.634 349.857 249.126C350.52 250.286 350.851 252.607 351.017 254.264C351.183 255.59 351.183 257.082 350.851 258.408C350.022 262.22 349.028 264.872 348.697 265.867H348.531C348.531 265.867 312.402 300.509 309.75 302.995C307.43 305.15 260.362 300.343 250.916 299.349C248.264 299.017 244.452 298.52 241.303 298.686C237.16 298.852 236.497 299.515 232.354 299.515C219.758 299.68 209.483 300.841 201.694 302.167C192.247 303.824 184.624 310.454 181.64 319.571C172.194 349.24 150.649 419.519 146.837 458.969C143.854 464.604 140.374 471.234 139.048 475.047C136.396 482.34 137.059 482.505 137.888 482.671C140.374 483.168 143.025 470.074 144.02 473.223C145.014 476.373 138.716 488.804 141.368 489.135C144.683 489.633 147.334 475.875 147.666 474.715C147.997 473.555 149.654 474.052 149.323 475.047C148.826 476.538 144.185 491.953 147.5 492.451C149.323 492.782 149.489 489.467 149.489 489.467C149.489 489.467 152.803 474.715 154.295 474.881C155.787 475.212 154.129 483.997 153.466 486.815C152.638 489.633 153.798 491.29 155.289 490.461C156.284 489.964 158.935 481.179 159.598 478.196C160.261 475.378 162.084 467.256 164.404 471.897C166.725 476.538 170.205 479.19 171.697 479.19C173.188 479.19 173.851 477.201 172.525 476.207C171.531 475.378 170.205 473.555 169.376 472.063C168.713 470.903 168.051 469.577 167.719 468.251C166.559 462.947 166.559 459.797 166.559 459.797L166.228 458.14C169.874 439.741 180.646 385.872 196.059 351.395L202.357 364.49L205.174 374.103L188.27 415.707L260.197 414.713L249.424 373.44L262.517 330.345C276.604 330.676 312.899 331.173 318.865 328.521C326.489 325.206 365.767 275.646 365.767 275.646C368.419 273.492 371.07 271.337 373.059 269.348C373.225 269.182 375.545 267.359 374.053 265.867Z" fill="#FFBE9D"/>
<path d="M185.121 385.043C187.275 377.916 197.882 342.61 197.882 342.61C197.882 342.61 203.185 371.286 201.694 374.766C200.036 378.744 197.219 383.385 197.219 383.385C185.121 401.95 186.612 411.232 186.612 411.232L260.031 408.911C260.197 398.635 254.065 374.766 252.904 370.954C251.579 367.142 255.888 354.71 255.888 354.71C255.888 354.71 264.174 346.257 263.843 341.947C263.18 333.162 262.351 330.345 262.351 330.345L307.098 332.002L305.772 301.669L241.469 295.205C239.315 301.504 218.93 298.354 218.93 298.354C197.053 299.017 195.728 303.161 186.612 310.123C177.497 317.25 162.416 377.75 162.416 377.75L185.121 385.043Z" fill="#605BFF"/>
<path d="M228.542 377.916C228.542 378.081 227.051 378.081 224.73 378.081C222.41 378.081 219.096 377.916 215.449 377.584C211.803 377.253 208.489 376.755 206.169 376.258C203.848 375.761 202.357 375.429 202.357 375.264C202.357 375.098 203.848 375.264 206.169 375.595C208.489 375.927 211.803 376.258 215.449 376.755C219.096 377.087 222.41 377.418 224.73 377.584C227.051 377.75 228.542 377.75 228.542 377.916Z" fill="#263238"/>
<path d="M233.68 371.617C233.68 371.783 232.188 372.28 229.702 372.943C227.216 373.606 223.57 374.435 219.593 374.932C215.615 375.429 211.969 375.429 209.317 375.429C206.666 375.429 205.174 375.098 205.174 375.098C205.174 374.932 206.831 374.932 209.317 374.932C211.969 374.932 215.449 374.601 219.427 374.269C223.404 373.772 226.885 373.109 229.371 372.612C232.022 371.949 233.514 371.617 233.68 371.617Z" fill="#263238"/>
<path d="M258.374 343.771C258.539 343.771 258.374 345.262 257.876 347.583C257.379 349.903 256.716 353.053 255.888 356.534C255.059 360.014 254.23 363.164 253.567 365.318C252.904 367.473 252.407 368.965 252.242 368.799C252.076 368.799 252.407 367.307 252.904 365.153C253.567 362.501 254.23 359.517 255.059 356.368C255.888 353.053 256.551 350.069 257.213 347.583C257.876 345.097 258.208 343.771 258.374 343.771Z" fill="#263238"/>
<path d="M185.949 380.899C185.949 381.065 180.812 379.905 174.68 378.247C168.548 376.59 163.576 374.932 163.576 374.766C163.576 374.601 168.713 375.761 174.845 377.418C180.977 379.076 185.949 380.568 185.949 380.899Z" fill="#263238"/>
<path d="M263.345 330.013C263.345 330.013 262.683 330.179 261.522 330.013C260.362 329.847 258.539 329.682 256.551 328.853C254.562 328.024 252.076 326.864 249.921 324.875C247.767 322.886 245.778 320.234 244.452 317.084C243.126 313.935 242.795 310.62 242.961 307.802C243.126 304.819 243.955 302.332 245.281 300.343C246.607 298.52 248.264 297.526 249.424 297.194C250.087 297.028 250.584 297.028 250.916 297.028C251.247 297.028 251.413 297.028 251.413 297.028C251.413 297.028 250.75 297.028 249.59 297.526C248.43 297.857 246.938 298.852 245.778 300.675C243.458 304.156 242.961 310.62 245.281 316.753C246.441 319.737 248.264 322.389 250.419 324.212C252.573 326.201 254.727 327.361 256.716 328.19C260.528 329.847 263.345 329.847 263.345 330.013Z" fill="#263238"/>
<path d="M301.961 331.505C301.795 331.505 301.463 324.709 301.629 316.256C301.629 307.802 301.795 301.006 302.126 301.006C302.292 301.006 302.624 307.802 302.458 316.256C302.458 324.543 302.126 331.505 301.961 331.505Z" fill="#263238"/>
<path d="M241.138 297.028C241.303 293.382 241.635 289.072 241.635 289.072C241.635 289.072 250.75 288.078 251.413 278.63C251.91 269.182 251.413 247.468 251.413 247.468L234.674 239.015L216.278 253.436L219.095 300.675L236 301.669C238.817 302.001 240.972 299.846 241.138 297.028Z" fill="#FFBE9D"/>
<path d="M242.795 271.337C242.795 271.337 242.795 271.503 242.629 271.668C242.463 271.834 242.132 272.166 241.635 272.166C240.64 272.166 239.48 271.005 239.149 269.514C238.983 268.851 238.983 268.022 239.149 267.359C239.315 266.696 239.646 266.033 240.143 265.867C240.309 265.701 240.64 265.867 240.806 265.867C240.972 266.033 241.138 266.033 241.138 266.198C241.303 266.53 241.138 266.696 241.138 266.696C241.138 266.696 241.138 266.53 240.972 266.364C240.806 266.198 240.475 266.033 240.143 266.198C239.812 266.364 239.48 266.861 239.48 267.359C239.315 267.856 239.315 268.519 239.48 269.182C239.812 270.508 240.64 271.503 241.469 271.668C241.801 271.668 242.132 271.503 242.298 271.503C242.795 271.337 242.795 271.337 242.795 271.337Z" fill="#EB996E"/>
<path d="M257.048 242.496C255.722 238.186 251.081 236.031 246.938 234.871C240.475 233.048 233.514 232.219 227.382 234.54C221.084 236.86 213.626 240.838 213.626 247.8C209.98 247.468 207.826 250.783 206.334 254.762C205.506 257.082 204.843 259.734 204.843 262.386C204.346 271.503 201.86 283.934 195.893 290.564C192.579 294.211 187.938 296.863 186.115 301.504C184.458 305.482 185.287 310.289 183.795 314.267C182.469 317.913 179.32 320.399 177.166 323.549C172.36 330.345 172.028 339.793 175.508 347.417C178.989 355.042 185.949 360.512 193.573 362.998C201.197 365.484 209.649 365.318 217.438 363.164C223.239 361.672 228.874 359.186 233.348 355.208C237.989 351.229 241.469 345.76 242.463 339.793C243.624 332.997 241.801 326.201 240.309 319.405C235.834 298.189 237.16 297.028 242.795 277.304C242.961 276.972 242.961 276.641 243.126 276.309C243.126 275.978 243.292 275.812 243.292 275.481C243.458 274.652 243.624 273.989 243.624 273.16C241.966 273.823 240.143 273.326 238.817 272.166C237.657 270.84 237.16 268.85 237.657 267.193C238.32 265.204 240.143 263.878 241.966 263.215C243.789 262.386 245.778 262.055 247.601 261.226C251.413 259.403 254.065 255.59 255.888 251.612C257.048 248.629 258.042 245.314 257.048 242.496Z" fill="#263238"/>
<path d="M243.458 271.668C243.458 271.668 243.789 272.331 244.287 273.326C244.784 274.32 245.447 275.812 246.11 277.47L246.275 277.801H245.944C245.447 277.801 244.784 277.967 244.287 277.967C243.126 277.967 242.132 278.133 240.972 278.133C240.806 278.133 240.64 277.967 240.475 277.801C240.475 277.635 240.475 277.47 240.475 277.304C240.475 276.972 240.64 276.807 240.64 276.641L240.972 275.481C241.303 273.989 241.635 273.16 241.635 273.16C241.635 273.16 241.635 274.155 241.303 275.481L241.138 276.641C240.972 276.972 240.972 277.635 241.138 277.635C241.966 277.635 243.126 277.47 244.287 277.304C244.784 277.304 245.447 277.138 245.944 277.138L245.778 277.47C245.115 275.812 244.452 274.32 244.121 273.16C243.624 272.331 243.458 271.668 243.458 271.668Z" fill="#605BFF"/>
<path d="M186.778 411.232L260.197 408.911L292.183 533.723L286.216 676.933H247.27L252.076 536.706L223.736 450.018L228.045 682.734L188.767 683.232L184.624 464.604C184.458 458.471 182.469 444.88 183.132 438.747L186.778 411.232Z" fill="#263238"/>
<path d="M233.514 451.841C233.514 452.007 232.188 451.841 229.868 451.675C227.548 451.51 224.565 451.012 221.25 450.349C217.935 449.686 214.952 448.858 212.798 448.36C210.643 447.697 209.317 447.2 209.317 447.2C209.317 447.034 214.786 448.195 221.416 449.521C228.211 450.681 233.68 451.51 233.514 451.841Z" fill="#455A64"/>
<path d="M285.885 669.308C285.885 669.474 277.101 669.806 266.163 669.806C255.225 669.806 246.441 669.64 246.441 669.308C246.441 669.143 255.225 668.811 266.163 668.811C277.101 668.811 285.885 668.977 285.885 669.308Z" fill="#455A64"/>
<path d="M227.879 676.602C227.879 676.767 219.261 677.099 208.82 677.099C198.213 677.099 189.761 676.933 189.761 676.602C189.761 676.436 198.379 676.104 208.82 676.104C219.261 676.27 227.879 676.436 227.879 676.602Z" fill="#455A64"/>
<path d="M222.742 676.104C222.576 676.104 221.416 625.218 220.421 562.564C219.427 499.909 218.764 449.023 218.93 449.023C219.095 449.023 220.256 499.909 221.25 562.564C222.41 625.218 223.073 676.104 222.742 676.104Z" fill="#455A64"/>
<path d="M280.747 669.308C280.747 669.308 280.747 669.143 280.747 668.645C280.747 668.148 280.747 667.485 280.747 666.656C280.747 664.833 280.913 662.347 280.913 659.032C281.079 652.402 281.41 642.788 281.907 631.02C282.736 607.317 284.062 574.498 285.388 538.53C285.388 538.198 285.388 537.867 285.388 537.535V537.701C276.604 502.893 268.815 471.234 263.18 448.36C260.362 436.923 258.042 427.807 256.551 421.343C255.722 418.193 255.225 415.707 254.727 414.05C254.562 413.221 254.396 412.558 254.23 412.061C254.065 411.563 254.065 411.398 254.065 411.398C254.065 411.398 254.23 411.563 254.23 412.061C254.396 412.558 254.562 413.221 254.727 413.884C255.225 415.541 255.888 418.028 256.716 421.177C258.374 427.641 260.694 436.758 263.677 448.195C269.478 471.068 277.433 502.561 286.216 537.369C286.216 537.701 286.216 538.032 286.216 538.364C284.725 574.498 283.399 607.151 282.404 630.854C281.907 642.622 281.41 652.236 281.079 658.866C280.913 662.181 280.747 664.667 280.747 666.491C280.747 667.319 280.581 667.982 280.581 668.48C280.747 668.977 280.747 669.308 280.747 669.308Z" fill="#455A64"/>
<path d="M267.986 534.386C267.986 534.552 264.174 535.546 259.368 536.375C255.722 537.038 252.739 537.369 251.413 537.535V537.204C251.91 537.369 252.076 537.369 252.076 537.535C252.076 537.535 251.744 537.535 251.413 537.535H250.419L251.413 537.204C252.739 536.872 255.722 536.209 259.368 535.546C264.008 534.717 267.986 534.22 267.986 534.386Z" fill="#455A64"/>
<path d="M267.323 539.193C267.323 539.358 263.843 539.193 259.534 538.861C255.225 538.53 251.91 538.198 251.91 538.032C251.91 537.867 255.39 537.701 259.699 538.032C263.843 538.364 267.323 539.027 267.323 539.193Z" fill="#455A64"/>
<path opacity="0.2" d="M186.447 413.884C188.27 416.37 190.756 417.199 193.739 417.696C196.722 418.193 199.705 417.862 202.688 417.53C221.581 415.376 241.801 413.552 260.362 408.911C236.331 410.237 210.975 409.74 186.944 411.232C186.944 411.232 186.778 412.889 186.612 413.221" fill="black"/>
<g opacity="0.2">
<path d="M211.14 447.863L224.73 500.407L223.736 450.018L211.14 447.863Z" fill="black"/>
</g>
</g>
<defs>
<clipPath id="clip0_5_50">
<rect width="708" height="695" fill="white"/>
</clipPath>
</defs>
</svg>
