<svg width="576" height="429" viewBox="0 0 576 429" fill="none" xmlns="http://www.w3.org/2000/svg">
<g clip-path="url(#clip0_52_917)">
<path d="M576 377.006H0V377.293H576V377.006Z" fill="#EBEBEB"/>
<path d="M518.285 395.531H480.131V395.819H518.285V395.531Z" fill="#EBEBEB"/>
<path d="M381.565 398.662H371.555V398.95H381.565V398.662Z" fill="#EBEBEB"/>
<path d="M478.979 384.846H456.872V385.134H478.979V384.846Z" fill="#EBEBEB"/>
<path d="M110.189 386.781H60.4338V387.068H110.189V386.781Z" fill="#EBEBEB"/>
<path d="M127.745 386.781H120.453V387.068H127.745V386.781Z" fill="#EBEBEB"/>
<path d="M259.373 391.639H151.453V391.927H259.373V391.639Z" fill="#EBEBEB"/>
<path d="M273.035 325.656H50.5957C46.9669 325.656 44.0178 322.709 44.0178 319.082V6.57414C44.0178 2.94743 46.9669 0 50.5957 0H273.047C276.676 0 279.625 2.94743 279.625 6.57414V319.082C279.613 322.709 276.664 325.656 273.035 325.656ZM50.5957 0.287834C47.1282 0.287834 44.3058 3.10861 44.3058 6.57414V319.082C44.3058 322.547 47.1282 325.368 50.5957 325.368H273.047C276.514 325.368 279.337 322.547 279.337 319.082V6.57414C279.337 3.10861 276.514 0.287834 273.047 0.287834H50.5957Z" fill="#EBEBEB"/>
<path d="M522.213 325.656H299.762C296.133 325.656 293.184 322.709 293.184 319.082V6.57414C293.184 2.94743 296.133 0 299.762 0H522.213C525.842 0 528.791 2.94743 528.791 6.57414V319.082C528.791 322.709 525.842 325.656 522.213 325.656ZM299.762 0.287834C296.294 0.287834 293.472 3.10861 293.472 6.57414V319.082C293.472 322.547 296.294 325.368 299.762 325.368H522.213C525.681 325.368 528.503 322.547 528.503 319.082V6.57414C528.503 3.10861 525.681 0.287834 522.213 0.287834H299.762Z" fill="#EBEBEB"/>
<path d="M333.725 137.13L492.448 137.13V33.2449L333.725 33.2449V137.13Z" fill="#E6E6E6"/>
<path d="M328.877 137.13L490.18 137.13V33.2449L328.877 33.2449V137.13Z" fill="#F0F0F0"/>
<path d="M333.725 157.514L492.448 157.514V137.124L333.725 137.124V157.514Z" fill="#E6E6E6"/>
<path d="M320.817 157.514L482.12 157.514V137.124L320.817 137.124V157.514Z" fill="#F0F0F0"/>
<path d="M483.402 130.361V40.0269L335.658 40.0269V130.361L483.402 130.361Z" fill="#FAFAFA"/>
<path d="M450.086 130.354L431.217 40.032H401.771L420.641 130.354H450.086Z" fill="white"/>
<path d="M480.269 123.608C480.534 123.608 480.753 123.389 480.753 123.124V44.4301C480.753 44.1653 480.534 43.9465 480.269 43.9465C480.004 43.9465 479.785 44.1653 479.785 44.4301V123.124C479.785 123.389 479.992 123.608 480.269 123.608Z" fill="#F0F0F0"/>
<path d="M414.317 130.354L395.447 40.032H383.962L402.843 130.354H414.317Z" fill="white"/>
<path d="M336.521 130.362V40.0281H335.657V130.362H336.521Z" fill="#E6E6E6"/>
<path opacity="0.6" d="M327.272 50.2443H486.006L486.628 42.657H327.905L327.272 50.2443Z" fill="#EBEBEB"/>
<path opacity="0.6" d="M327.272 62.6789H486.006L486.628 55.0916H327.905L327.272 62.6789Z" fill="#EBEBEB"/>
<path opacity="0.6" d="M327.272 75.1134H486.006L486.628 67.5376H327.905L327.272 75.1134Z" fill="#EBEBEB"/>
<path opacity="0.6" d="M327.272 87.5477H486.006L486.628 79.9719H327.905L327.272 87.5477Z" fill="#EBEBEB"/>
<path opacity="0.6" d="M327.272 99.9938H486.006L486.628 92.4065H327.905L327.272 99.9938Z" fill="#EBEBEB"/>
<path opacity="0.6" d="M327.272 112.428H486.006L486.628 104.841H327.905L327.272 112.428Z" fill="#EBEBEB"/>
<path d="M469.659 301.455H436.378V308.017H469.659V301.455Z" fill="#E6E6E6"/>
<path d="M373.603 377.001H379.743V226.096H373.603V377.001Z" fill="#E6E6E6"/>
<path d="M352.321 308.01H436.371V301.447H352.321V308.01Z" fill="#F5F5F5"/>
<path d="M469.659 337.342H436.378V343.905H469.659V337.342Z" fill="#E6E6E6"/>
<path d="M352.321 343.889H436.371V337.326H352.321V343.889Z" fill="#F5F5F5"/>
<path d="M469.659 229.692H436.378V236.255H469.659V229.692Z" fill="#E6E6E6"/>
<path d="M352.321 236.239H436.371V229.676H352.321V236.239Z" fill="#F5F5F5"/>
<path d="M469.659 265.568H436.378V272.13H469.659V265.568Z" fill="#E6E6E6"/>
<path d="M352.321 272.13H436.371V265.567H352.321V272.13Z" fill="#F5F5F5"/>
<path d="M457.661 377.001H463.801V226.096H457.661V377.001Z" fill="#E6E6E6"/>
<path d="M430.231 377.001H436.371V226.096H430.231V377.001Z" fill="#F5F5F5"/>
<path d="M352.321 377.001H358.461V226.096H352.321V377.001Z" fill="#F5F5F5"/>
<path d="M75.3123 377.007H138.188L138.188 255.092H75.3123L75.3123 377.007Z" fill="#E6E6E6"/>
<path d="M92.1023 377.006H75.3062V360.173H109.705L92.1023 377.006Z" fill="#FAFAFA"/>
<path d="M246.741 377.007H309.617V255.092H246.741V377.007Z" fill="#E6E6E6"/>
<path d="M75.3136 371.214H261.396V255.09L75.3136 255.09L75.3136 371.214Z" fill="#FAFAFA"/>
<path d="M244.604 377.006H261.389V360.173H227.001L244.604 377.006Z" fill="#FAFAFA"/>
<path d="M88.3311 327.415H248.367V298.355H88.3311V327.415Z" fill="#F0F0F0"/>
<path d="M88.3311 362.693H248.367V333.633H88.3311V362.693Z" fill="#F0F0F0"/>
<path d="M118.748 301.466H217.947C220.861 301.466 223.223 299.106 223.223 296.193V295.836H113.483V296.193C113.483 299.106 115.845 301.466 118.748 301.466Z" fill="#FAFAFA"/>
<path d="M88.3311 292.147H248.367V263.088H88.3311V292.147Z" fill="#F0F0F0"/>
<path d="M118.748 266.189H217.947C220.861 266.189 223.223 263.829 223.223 260.916V260.559H113.483V260.916C113.483 263.829 115.845 266.189 118.748 266.189Z" fill="#FAFAFA"/>
<path d="M118.748 336.732H217.947C220.861 336.732 223.223 334.372 223.223 331.459V331.102H113.483V331.459C113.483 334.372 115.845 336.732 118.748 336.732Z" fill="#FAFAFA"/>
<path d="M85.3255 137.13L244.048 137.13V33.2449L85.3255 33.2449V137.13Z" fill="#E6E6E6"/>
<path d="M80.4891 137.13L241.792 137.13V33.2449L80.4891 33.2449V137.13Z" fill="#F0F0F0"/>
<path d="M85.3255 157.514L244.048 157.514V137.124L85.3255 137.124V157.514Z" fill="#E6E6E6"/>
<path d="M72.4164 157.514L233.719 157.514V137.124L72.4164 137.124V157.514Z" fill="#F0F0F0"/>
<path d="M235.005 130.364L235.005 40.0298L87.2605 40.0298L87.2605 130.364L235.005 130.364Z" fill="#FAFAFA"/>
<path d="M201.692 130.354L182.822 40.032H153.377L172.247 130.354H201.692Z" fill="white"/>
<path d="M231.863 123.608C232.128 123.608 232.347 123.389 232.347 123.124V44.4301C232.347 44.1653 232.128 43.9465 231.863 43.9465C231.598 43.9465 231.379 44.1653 231.379 44.4301V123.124C231.379 123.389 231.598 123.608 231.863 123.608Z" fill="#F0F0F0"/>
<path d="M165.923 130.354L147.053 40.032H135.567L154.437 130.354H165.923Z" fill="white"/>
<path d="M88.1233 130.365L88.1233 40.031H87.2593L87.2593 130.365H88.1233Z" fill="#E6E6E6"/>
<path opacity="0.6" d="M78.8774 50.2443H237.6L238.222 42.657H79.4995L78.8774 50.2443Z" fill="#EBEBEB"/>
<path opacity="0.6" d="M78.8774 54.5157H237.6L238.222 46.9399H79.4995L78.8774 54.5157Z" fill="#EBEBEB"/>
<path opacity="0.6" d="M78.8774 58.7987H237.6L238.222 51.2114H79.4995L78.8774 58.7987Z" fill="#EBEBEB"/>
<path opacity="0.6" d="M78.8774 63.0702H237.6L238.222 55.4944H79.4995L78.8774 63.0702Z" fill="#EBEBEB"/>
<path opacity="0.6" d="M78.8774 67.3532H237.6L238.222 59.7659H79.4995L78.8774 67.3532Z" fill="#EBEBEB"/>
<path opacity="0.6" d="M78.8774 71.6361H237.6L238.222 64.0488H79.4995L78.8774 71.6361Z" fill="#EBEBEB"/>
<path d="M110.615 251.354H116.098L116.098 190.229H110.615V251.354Z" fill="#F5F5F5"/>
<path d="M111.305 251.315H112.86L112.86 190.191H111.305L111.305 251.315Z" fill="#FAFAFA"/>
<path d="M113.505 251.316H114.115L114.115 190.191H113.505L113.505 251.316Z" fill="#FAFAFA"/>
<path d="M93.0356 255.079H133.655C133.655 252.258 131.363 249.967 128.54 249.967H98.162C95.3281 249.967 93.0356 252.258 93.0356 255.079Z" fill="#F0F0F0"/>
<path d="M103.484 228.184C104.348 228.184 105.062 227.47 105.062 226.606V186.528C105.062 185.665 104.348 184.951 103.484 184.951C102.62 184.951 101.906 185.665 101.906 186.528V226.606C101.906 227.47 102.62 228.184 103.484 228.184Z" fill="#F0F0F0"/>
<path d="M88.7847 204.765H137.917L132.261 170.456H94.441L88.7847 204.765Z" fill="#E0E0E0"/>
<path d="M288 429C411.359 429 511.361 423.165 511.361 415.967C511.361 408.769 411.359 402.934 288 402.934C164.641 402.934 64.6387 408.769 64.6387 415.967C64.6387 423.165 164.641 429 288 429Z" fill="#F5F5F5"/>
<path d="M119.932 169.718L118.783 169.801L120.312 191.034L121.461 190.951L119.932 169.718Z" fill="#605BFF"/>
<path d="M122.267 201.906L121.118 201.988L121.695 209.981L122.844 209.898L122.267 201.906Z" fill="#605BFF"/>
<path d="M389.042 299.59H142.33C136.754 299.59 131.858 295.03 131.455 289.446L119.336 121.201C118.932 115.629 123.172 111.058 128.747 111.058H375.46C381.035 111.058 385.931 115.617 386.335 121.201L398.454 289.446C398.857 295.03 394.618 299.59 389.042 299.59Z" fill="#605BFF"/>
<path d="M389.986 299.59H143.274C137.698 299.59 132.802 295.03 132.399 289.446L120.28 121.201C119.877 115.629 124.116 111.058 129.692 111.058H376.404C381.98 111.058 386.876 115.617 387.279 121.201L399.398 289.446C399.802 295.03 395.574 299.59 389.986 299.59Z" fill="#605BFF"/>
<path opacity="0.5" d="M389.986 299.59H143.274C137.698 299.59 132.802 295.03 132.399 289.446L120.28 121.201C119.877 115.629 124.116 111.058 129.692 111.058H376.404C381.98 111.058 386.876 115.617 387.279 121.201L399.398 289.446C399.802 295.03 395.574 299.59 389.986 299.59Z" fill="white"/>
<path d="M376.773 116.135H130.061C129.784 116.135 129.508 116.147 129.231 116.17C122.93 116.688 124.209 126.279 130.579 126.279H377.706C384.077 126.279 383.973 116.688 377.591 116.17C377.326 116.147 377.05 116.135 376.773 116.135Z" fill="#605BFF"/>
<path d="M136.489 121.201C136.581 122.491 135.613 123.527 134.334 123.527C133.044 123.527 131.938 122.491 131.846 121.201C131.754 119.923 132.722 118.876 134 118.876C135.279 118.876 136.397 119.923 136.489 121.201Z" fill="#FAFAFA"/>
<path d="M144.403 121.201C144.495 122.491 143.528 123.527 142.249 123.527C140.959 123.527 139.853 122.491 139.76 121.201C139.668 119.923 140.636 118.876 141.915 118.876C143.193 118.876 144.311 119.923 144.403 121.201Z" fill="#FAFAFA"/>
<path d="M152.306 121.201C152.398 122.491 151.43 123.527 150.152 123.527C148.861 123.527 147.755 122.491 147.663 121.201C147.571 119.923 148.539 118.876 149.817 118.876C151.096 118.876 152.214 119.923 152.306 121.201Z" fill="#FAFAFA"/>
<path d="M383.443 282.792H147.398C145.371 282.792 143.597 281.145 143.459 279.119L133.494 140.763C133.344 138.736 134.876 137.09 136.904 137.09H372.948C374.976 137.09 376.75 138.736 376.888 140.763L386.853 279.119C387.003 281.145 385.482 282.792 383.443 282.792Z" fill="white"/>
<path d="M284.003 230.095L280.155 176.765L268.52 169.753H236.483L240.837 230.095H284.003Z" fill="white"/>
<path d="M284.003 230.648H240.837C240.549 230.648 240.307 230.417 240.284 230.129L235.941 169.799C235.93 169.65 235.987 169.489 236.091 169.373C236.195 169.258 236.344 169.201 236.494 169.201H268.52C268.623 169.201 268.716 169.224 268.808 169.281L280.454 176.281C280.604 176.374 280.708 176.535 280.719 176.719L284.567 230.049C284.579 230.199 284.521 230.36 284.417 230.475C284.302 230.578 284.152 230.648 284.003 230.648ZM241.356 229.531H283.404L279.625 177.087L268.358 170.317H237.082L241.356 229.531Z" fill="#605BFF"/>
<path d="M280.155 176.765L268.52 169.753L272.794 179.033L280.155 176.765Z" fill="#EBEBEB"/>
<path d="M272.794 179.597C272.586 179.597 272.379 179.471 272.287 179.275L268.013 169.995C267.909 169.776 267.967 169.511 268.151 169.35C268.335 169.189 268.6 169.166 268.808 169.293L280.454 176.293C280.639 176.408 280.742 176.615 280.719 176.834C280.696 177.053 280.535 177.237 280.328 177.295L272.955 179.574C272.897 179.586 272.851 179.597 272.794 179.597ZM269.787 171.169L273.105 178.354L278.819 176.592L269.787 171.169Z" fill="#605BFF"/>
<path d="M254.557 196.936C254.65 198.284 253.636 199.377 252.3 199.377C250.963 199.377 249.777 198.284 249.685 196.936C249.592 195.589 250.606 194.496 251.942 194.496C253.279 194.496 254.454 195.589 254.557 196.936Z" fill="#605BFF"/>
<path d="M270.374 196.936C270.467 198.284 269.453 199.377 268.116 199.377C266.769 199.377 265.594 198.284 265.501 196.936C265.409 195.589 266.423 194.496 267.759 194.496C269.107 194.507 270.282 195.589 270.374 196.936Z" fill="#605BFF"/>
<path d="M274.844 212.744C274.556 212.744 274.314 212.526 274.291 212.226C274.003 208.312 267.863 205.122 260.582 205.122C255.767 205.122 251.436 206.55 249.281 208.864C248.325 209.889 247.887 210.994 247.968 212.157C247.991 212.468 247.761 212.733 247.45 212.756C247.139 212.779 246.874 212.549 246.851 212.238C246.747 210.775 247.3 209.348 248.463 208.104C250.813 205.583 255.456 204.006 260.582 204.006C268.566 204.006 275.075 207.586 275.409 212.146C275.432 212.456 275.201 212.721 274.89 212.744C274.867 212.744 274.856 212.744 274.844 212.744Z" fill="#605BFF"/>
<path d="M245.572 191.997C245.434 191.997 245.295 191.951 245.192 191.848C244.961 191.64 244.95 191.283 245.157 191.065L247.599 188.428C247.807 188.198 248.164 188.186 248.383 188.394C248.613 188.601 248.625 188.958 248.417 189.176L245.975 191.813C245.871 191.94 245.722 191.997 245.572 191.997Z" fill="#605BFF"/>
<path d="M273.692 191.997C273.554 191.997 273.416 191.951 273.312 191.847L270.49 189.211C270.259 189.004 270.248 188.647 270.467 188.428C270.674 188.198 271.031 188.186 271.25 188.405L274.072 191.041C274.303 191.249 274.314 191.606 274.095 191.824C273.992 191.94 273.842 191.997 273.692 191.997Z" fill="#605BFF"/>
<path d="M233.004 242.011H235.607L239.363 246.997L239.005 242.011H241.632L242.277 251.026H239.651L235.918 246.075L236.275 251.026H233.649L233.004 242.011Z" fill="#605BFF"/>
<path d="M243.452 246.525C243.349 245.051 243.671 243.911 244.431 243.082C245.192 242.265 246.309 241.85 247.772 241.85C249.27 241.85 250.456 242.253 251.332 243.059C252.207 243.865 252.691 244.993 252.795 246.444C252.876 247.503 252.76 248.367 252.449 249.034C252.138 249.714 251.666 250.232 251.021 250.612C250.376 250.992 249.558 251.176 248.556 251.176C247.542 251.176 246.689 251.015 245.998 250.692C245.307 250.37 244.731 249.852 244.27 249.15C243.798 248.459 243.533 247.584 243.452 246.525ZM246.252 246.536C246.321 247.446 246.528 248.102 246.897 248.493C247.265 248.896 247.738 249.092 248.325 249.092C248.924 249.092 249.374 248.896 249.673 248.505C249.973 248.113 250.088 247.411 250.019 246.409C249.961 245.557 249.742 244.936 249.374 244.544C249.005 244.153 248.521 243.957 247.934 243.957C247.369 243.957 246.931 244.153 246.62 244.556C246.298 244.959 246.182 245.615 246.252 246.536Z" fill="#605BFF"/>
<path d="M258.221 242.011H262.368C263.186 242.011 263.854 242.126 264.373 242.345C264.891 242.564 265.329 242.886 265.686 243.301C266.043 243.715 266.319 244.199 266.504 244.751C266.688 245.304 266.803 245.88 266.849 246.501C266.918 247.469 266.861 248.217 266.677 248.747C266.492 249.276 266.227 249.725 265.859 250.082C265.49 250.439 265.098 250.681 264.649 250.796C264.05 250.957 263.497 251.038 263.002 251.038H258.854L258.221 242.011ZM261.158 244.049L261.516 248.977H262.195C262.783 248.977 263.186 248.908 263.428 248.781C263.67 248.654 263.843 248.424 263.958 248.102C264.073 247.779 264.108 247.261 264.05 246.536C263.981 245.58 263.773 244.924 263.439 244.579C263.105 244.222 262.575 244.049 261.85 244.049H261.158Z" fill="#605BFF"/>
<path d="M273.542 249.541H270.374L270.04 251.026H267.195L269.937 242.011H272.978L277.022 251.026H274.107L273.542 249.541ZM272.817 247.595L271.584 244.348L270.835 247.595H272.817Z" fill="#605BFF"/>
<path d="M275.754 242.011H284.233L284.394 244.233H281.549L282.033 251.026H279.245L278.761 244.233H275.916L275.754 242.011Z" fill="#605BFF"/>
<path d="M290.73 249.541H287.562L287.228 251.026H284.383L287.124 242.011H290.166L294.209 251.026H291.295L290.73 249.541ZM290.004 247.595L288.772 244.348L288.023 247.595H290.004Z" fill="#605BFF"/>
<path d="M407.451 136.007C408.476 135.489 409.709 134.822 410.838 134.2C411.99 133.567 413.142 132.899 414.271 132.219C416.529 130.826 418.798 129.456 420.964 127.937C425.318 124.932 429.408 121.604 433.071 117.977C433.555 117.54 433.958 117.045 434.408 116.584L435.064 115.882L435.398 115.525L435.56 115.352C435.606 115.306 435.594 115.318 435.571 115.341L435.537 115.398C435.375 115.709 435.514 115.617 435.571 115.318C435.652 115.03 435.709 114.569 435.732 114.063C435.802 111.967 435.398 109.331 434.891 106.786C433.866 101.617 432.311 96.3093 430.779 91.1052L435.26 89.1479C438.059 94.1563 440.398 99.2567 442.299 104.806C443.209 107.615 444.038 110.436 444.28 113.89C444.326 114.777 444.349 115.698 444.188 116.78C444.015 117.839 443.75 119.117 442.783 120.556L442.587 120.821L442.437 121.017L442.264 121.236L441.907 121.662L441.193 122.525C440.709 123.089 440.26 123.7 439.741 124.229C435.767 128.639 431.355 132.53 426.632 135.915C424.282 137.631 421.885 139.254 419.397 140.739C418.153 141.488 416.897 142.213 415.618 142.915C414.328 143.629 413.096 144.263 411.621 144.953L407.451 136.007Z" fill="#FFB573"/>
<path d="M397.198 406.687C398.085 406.687 399.064 406.503 399.744 406.342C399.836 406.319 399.905 406.249 399.917 406.157C399.928 406.065 399.894 405.973 399.813 405.927C399.479 405.708 396.553 403.82 395.424 404.327C395.251 404.407 395.021 404.58 394.975 404.971C394.905 405.478 395.032 405.893 395.355 406.18C395.769 406.549 396.461 406.687 397.198 406.687ZM399.099 406.008C397.417 406.342 396.161 406.284 395.666 405.835C395.458 405.651 395.378 405.374 395.435 405.018C395.458 404.822 395.551 404.764 395.631 404.73C396.219 404.476 397.912 405.294 399.099 406.008Z" fill="#605BFF"/>
<path d="M399.698 406.342C399.732 406.342 399.779 406.33 399.813 406.307C399.882 406.261 399.928 406.192 399.928 406.111C399.928 405.996 399.917 403.222 398.868 402.289C398.592 402.047 398.269 401.944 397.901 401.978C397.325 402.047 397.175 402.404 397.129 402.611C396.91 403.694 398.661 405.778 399.583 406.296C399.617 406.33 399.663 406.342 399.698 406.342ZM398.051 402.439C398.235 402.439 398.408 402.508 398.557 402.634C399.18 403.187 399.398 404.741 399.456 405.674C398.534 404.937 397.44 403.383 397.578 402.715C397.601 402.611 397.659 402.473 397.958 402.439C397.993 402.439 398.028 402.439 398.051 402.439Z" fill="#605BFF"/>
<path d="M398.845 107.201C397.728 112.923 395.355 124.517 399.364 128.328C399.364 128.328 397.797 134.131 387.164 134.131C375.46 134.131 381.577 128.328 381.577 128.328C387.959 126.808 387.798 122.065 386.68 117.621L398.845 107.201Z" fill="#FFB573"/>
<path d="M379.331 130.642C377.499 130.896 379.054 126.141 379.803 125.645C381.531 124.506 403.822 122.894 403.684 125.599C403.592 126.762 403.05 129.03 402.071 129.802C401.092 130.573 395.366 128.247 379.331 130.642Z" fill="#263238"/>
<path d="M382.971 129.042C381.508 129.537 381.646 124.747 382.153 124.172C383.305 122.836 401.345 118.208 401.887 120.821C402.094 121.95 402.198 124.218 401.576 125.093C400.942 125.968 395.643 124.517 382.971 129.042Z" fill="#263238"/>
<path d="M376.255 96.8966C376.116 96.9082 375.967 96.8506 375.874 96.7354C374.584 95.1581 372.902 95.3193 372.891 95.3193C372.637 95.3423 372.418 95.1696 372.384 94.9163C372.361 94.663 372.534 94.4443 372.787 94.4097C372.879 94.3982 374.976 94.2025 376.577 96.1483C376.738 96.344 376.704 96.6318 376.508 96.793C376.439 96.8506 376.347 96.8851 376.255 96.8966Z" fill="#263238"/>
<path d="M374.02 102.527C374.02 102.527 373.029 105.992 371.75 107.742C372.868 108.594 374.561 107.984 374.561 107.984L374.02 102.527Z" fill="#FF5652"/>
<path d="M374.584 101.122C374.665 101.893 374.308 102.561 373.801 102.619C373.294 102.665 372.822 102.078 372.741 101.306C372.66 100.535 373.017 99.867 373.524 99.8094C374.031 99.7634 374.504 100.351 374.584 101.122Z" fill="#263238"/>
<path d="M373.755 99.8325L371.843 99.4756C371.843 99.4871 372.937 100.846 373.755 99.8325Z" fill="#263238"/>
<path d="M410.918 406.111H401.265L402.025 383.775H411.679L410.918 406.111Z" fill="#FFB573"/>
<path d="M400.504 404.995H411.345C411.736 404.995 412.059 405.271 412.116 405.651L413.349 414.228C413.476 415.115 412.715 415.955 411.805 415.944C408.027 415.875 406.207 415.656 401.437 415.656C398.5 415.656 394.214 415.955 390.171 415.955C386.208 415.955 385.908 411.949 387.59 411.592C395.147 409.968 396.346 407.723 398.891 405.582C399.352 405.202 399.928 404.995 400.504 404.995Z" fill="#263238"/>
<g opacity="0.2">
<path d="M411.679 383.787H402.025L401.633 395.3H411.287L411.679 383.787Z" fill="black"/>
</g>
<path d="M372.522 141.718C366.555 139.381 360.852 136.836 355.185 133.947C349.517 131.045 343.953 127.971 338.596 123.849C337.259 122.802 335.946 121.65 334.656 120.315C334.333 119.969 334.011 119.647 333.7 119.255C333.366 118.841 333.112 118.599 332.686 117.954C331.903 116.838 331.304 115.329 331.142 113.798C330.993 112.267 331.269 110.793 331.707 109.63C332.145 108.444 332.721 107.466 333.331 106.625C334.541 104.944 335.889 103.689 337.236 102.573C339.932 100.339 342.789 98.7156 345.646 97.1958C347.075 96.4359 348.526 95.7566 350.001 95.1234C351.487 94.4787 352.927 93.8915 354.505 93.3503L356.555 97.783C351.533 100.949 346.326 104.426 342.501 108.329C341.568 109.296 340.762 110.31 340.243 111.196C339.69 112.106 339.702 112.785 339.794 112.727C339.84 112.727 339.817 112.704 339.955 112.842L340.416 113.338C340.589 113.545 340.831 113.752 341.05 113.971C341.96 114.811 343.019 115.663 344.16 116.469C346.441 118.093 348.964 119.612 351.567 121.04C354.159 122.479 356.832 123.861 359.562 125.173C364.988 127.775 370.621 130.274 376.139 132.553L372.522 141.718Z" fill="#FFB573"/>
<path d="M359.389 94.64L360.991 91.186L353.733 88.6646C353.733 88.6646 351.475 95.4574 354.171 98.6006C356.452 98.2322 358.422 96.7469 359.389 94.64Z" fill="#FFB573"/>
<path d="M360.979 83.7022L355.185 82.0327L353.733 88.6644L360.979 91.1858V83.7022Z" fill="#FFB573"/>
<path d="M435.859 91.5199L436.7 83.4375L429.224 85.1875C429.224 85.1875 429.108 92.7633 433.071 93.9722L435.859 91.5199Z" fill="#FFB573"/>
<path d="M433.106 77.7729L428.233 80.0526L429.235 85.1876L436.7 83.4375L433.106 77.7729Z" fill="#FFB573"/>
<path d="M400.366 95.9063C400.723 105.474 401.069 109.515 396.749 114.869C390.24 122.917 378.409 121.259 375.206 111.991C372.326 103.655 372.234 89.4128 381.174 84.7153C389.975 80.0754 400.02 86.3387 400.366 95.9063Z" fill="#FFB573"/>
<path d="M396.196 114.846C405.596 110.793 411.771 102.239 409.156 88.8602C406.656 76.0574 398.016 74.8024 394.445 77.4505C390.874 80.1101 381.969 76.1495 376.635 80.6397C367.384 88.4227 376.128 96.816 380.69 101.79C383.409 107.385 386.98 118.83 396.196 114.846Z" fill="#263238"/>
<path d="M392.29 86.5576C395.458 91.1399 401.541 92.4409 405.873 89.4474C410.204 86.454 411.149 80.3173 407.969 75.7235C404.801 71.1412 398.719 69.8402 394.387 72.8336C390.067 75.8271 389.122 81.9753 392.29 86.5576Z" fill="#605BFF"/>
<path d="M394.733 78.3485C393.373 70.6346 400.677 64.6937 410.446 67.5605C420.203 70.4388 415.042 79.0854 413.038 85.9934C411.034 92.9014 416.287 99.4756 418.487 94.2255C420.687 88.9638 416.989 87.3405 416.989 87.3405C416.989 87.3405 427.357 90.0231 417.727 101.709C408.096 113.384 399.375 100.489 401.737 92.8784C403.649 86.7187 396.023 85.6365 394.733 78.3485Z" fill="#263238"/>
<path d="M384.975 81.2615C380.517 78.9358 372.971 77.0591 368.674 84.278C366.647 87.6974 367.43 92.3258 367.43 92.3258L380.552 93.2008L384.975 81.2615Z" fill="#263238"/>
<path d="M365.887 90.0577C365.875 90.0577 365.875 90.0577 365.864 90.0577C365.702 90.0462 365.587 89.908 365.599 89.7583C365.61 89.5626 365.933 84.9342 368.721 82.0213C375.483 74.9982 383.409 80.824 385.678 82.7812C385.793 82.8848 385.816 83.0691 385.713 83.1842C385.609 83.2993 385.425 83.3224 385.309 83.2187C383.144 81.3536 375.552 75.7696 369.147 82.4243C366.497 85.176 366.186 89.7468 366.175 89.7929C366.163 89.9425 366.036 90.0577 365.887 90.0577Z" fill="#263238"/>
<path d="M382.291 101.41C382.28 103.275 381.439 105.094 380.379 106.338C378.789 108.203 376.957 107.282 376.543 105.221C376.163 103.367 376.543 100.155 378.547 99.0381C380.54 97.9213 382.314 99.2799 382.291 101.41Z" fill="#FFB573"/>
<path d="M380.218 189.015C380.218 189.015 380.828 255.954 386.646 293.257C391.334 323.388 400.02 393.067 400.02 393.067H413.176C413.176 393.067 414.466 325.806 412.082 295.997C406.057 220.585 421.609 206.492 409.052 189.004H380.218V189.015Z" fill="#263238"/>
<path opacity="0.1" d="M380.218 189.015C380.218 189.015 380.828 255.954 386.646 293.257C391.334 323.388 400.02 393.067 400.02 393.067H413.176C413.176 393.067 414.466 325.806 412.082 295.997C406.057 220.585 421.609 206.492 409.052 189.004H380.218V189.015Z" fill="white"/>
<path opacity="0.3" d="M387.141 219.387C391.761 239.593 388.074 271.416 385.551 285.428C382.879 264.151 381.531 236.577 380.863 216.371C383.247 212.502 385.505 212.249 387.141 219.387Z" fill="black"/>
<path d="M398.223 393.332H414.985L415.86 387.448L398.131 386.85L398.223 393.332Z" fill="#605BFF"/>
<path d="M403.004 132.507C404.582 129.376 413.05 127.407 417.692 127.407L421.16 142.789C421.16 142.789 411.932 156.478 408.096 155.028C403.557 153.324 399.629 139.22 403.004 132.507Z" fill="#605BFF"/>
<path opacity="0.4" d="M403.004 132.507C404.582 129.376 413.05 127.407 417.692 127.407L421.16 142.789C421.16 142.789 411.932 156.478 408.096 155.028C403.557 153.324 399.629 139.22 403.004 132.507Z" fill="black"/>
<path d="M393.235 389.567C393.281 389.497 393.281 389.417 393.247 389.336C393.201 389.256 393.108 389.198 393.016 389.221C392.532 389.29 388.27 389.97 387.694 391.19C387.579 391.42 387.602 391.674 387.74 391.904C387.97 392.295 388.305 392.514 388.731 392.56C390.125 392.71 392.141 390.764 393.224 389.601C393.224 389.59 393.235 389.578 393.235 389.567ZM388.12 391.34C388.512 390.695 390.724 390.096 392.406 389.785C390.885 391.328 389.549 392.192 388.765 392.111C388.489 392.088 388.282 391.938 388.12 391.674C388.063 391.57 388.051 391.478 388.097 391.386C388.109 391.363 388.109 391.351 388.12 391.34Z" fill="#605BFF"/>
<path d="M393.235 389.567C393.247 389.555 393.247 389.532 393.258 389.521C393.281 389.44 393.27 389.359 393.212 389.302C393.143 389.221 391.427 387.253 389.86 387.149C389.376 387.114 388.95 387.264 388.604 387.575C388.132 388.001 388.166 388.369 388.293 388.6C388.788 389.59 391.853 389.935 393.097 389.67C393.155 389.659 393.201 389.624 393.235 389.567ZM388.731 388.116C388.765 388.058 388.823 387.989 388.915 387.909C389.18 387.679 389.48 387.575 389.837 387.598C390.874 387.667 392.049 388.738 392.579 389.279C391.208 389.394 388.996 388.98 388.696 388.381C388.685 388.358 388.639 388.266 388.731 388.116Z" fill="#605BFF"/>
<path d="M403.292 385.479L394.468 389.405L390.54 381.219L385.402 370.512L384.791 369.257L393.615 365.343L394.295 366.736L399.272 377.109L403.292 385.479Z" fill="#FFB573"/>
<path opacity="0.2" d="M399.272 377.109L390.539 381.219L385.401 370.512L394.295 366.736L399.272 377.109Z" fill="black"/>
<path d="M369.873 189.015C369.873 189.015 341.683 259.051 349.321 292.037C356.233 321.845 386.761 378.295 386.761 378.295L398.569 372.366C398.569 372.366 379.688 304.218 377.637 289.412C373.651 260.605 399.272 219.952 399.272 189.004L369.873 189.015Z" fill="#263238"/>
<path opacity="0.1" d="M369.873 189.015C369.873 189.015 341.683 259.051 349.321 292.037C356.233 321.845 386.761 378.295 386.761 378.295L398.569 372.366C398.569 372.366 379.688 304.218 377.637 289.412C373.651 260.605 399.272 219.952 399.272 189.004L369.873 189.015Z" fill="white"/>
<path d="M392.901 388.174L401.668 381.795C401.99 381.565 402.405 381.599 402.682 381.876L408.73 388.082C409.352 388.726 409.236 389.855 408.488 390.373C405.389 392.549 403.787 393.435 399.94 396.233C397.567 397.96 392.843 401.771 389.572 404.154C386.369 406.48 383.766 403.429 384.918 402.139C390.079 396.383 391.162 392.814 391.956 389.59C392.083 389.026 392.429 388.519 392.901 388.174Z" fill="#263238"/>
<path d="M386.001 380.793L401.242 373.828L399.295 367.622L382.971 375.06L386.001 380.793Z" fill="#605BFF"/>
<path d="M377.349 131.725C376.082 128.455 365.069 124.863 359.551 123.619L357.12 141.764C357.12 141.764 366.14 154.728 370.103 153.646C374.78 152.391 380.068 138.725 377.349 131.725Z" fill="#605BFF"/>
<path opacity="0.4" d="M377.349 131.725C376.082 128.455 365.069 124.863 359.551 123.619L357.12 141.764C357.12 141.764 366.14 154.728 370.103 153.646C374.78 152.391 380.068 138.725 377.349 131.725Z" fill="black"/>
<path d="M365.265 130.804C365.265 130.804 360.668 132.427 369.873 189.015C385.425 189.015 401.495 189.015 409.064 189.015C408.407 173.069 408.384 163.248 416.01 130.527C416.01 130.527 407.796 128.743 399.364 128.34C392.774 128.017 387.36 127.81 381.565 128.34C373.928 129.031 365.265 130.804 365.265 130.804Z" fill="#605BFF"/>
<path opacity="0.4" d="M365.265 130.804C365.265 130.804 360.668 132.427 369.873 189.015C385.425 189.015 401.495 189.015 409.064 189.015C408.407 173.069 408.384 163.248 416.01 130.527C416.01 130.527 407.796 128.743 399.364 128.34C392.774 128.017 387.36 127.81 381.565 128.34C373.928 129.031 365.265 130.804 365.265 130.804Z" fill="black"/>
<path d="M409.651 186.712L411.414 190.224C411.552 190.5 411.229 190.777 410.78 190.777H369.677C369.32 190.777 369.032 190.604 369.009 190.385L368.652 186.885C368.628 186.643 368.928 186.436 369.32 186.436H409.006C409.306 186.425 409.559 186.54 409.651 186.712Z" fill="#605BFF"/>
<path opacity="0.3" d="M409.651 186.712L411.414 190.224C411.552 190.5 411.229 190.777 410.78 190.777H369.677C369.32 190.777 369.032 190.604 369.009 190.385L368.652 186.885C368.628 186.643 368.928 186.436 369.32 186.436H409.006C409.306 186.425 409.559 186.54 409.651 186.712Z" fill="white"/>
<path d="M404.317 191.145H405.377C405.585 191.145 405.746 191.042 405.734 190.903L405.239 186.344C405.227 186.206 405.043 186.102 404.824 186.102H403.764C403.557 186.102 403.396 186.206 403.407 186.344L403.903 190.903C403.926 191.042 404.11 191.145 404.317 191.145Z" fill="#263238"/>
<path d="M378.559 191.145H379.618C379.826 191.145 379.987 191.042 379.976 190.903L379.48 186.344C379.469 186.206 379.284 186.102 379.065 186.102H378.006C377.798 186.102 377.637 186.206 377.649 186.344L378.144 190.903C378.155 191.042 378.34 191.145 378.559 191.145Z" fill="#263238"/>
</g>
<defs>
<clipPath id="clip0_52_917">
<rect width="576" height="429" fill="white"/>
</clipPath>
</defs>
</svg>
