<svg width="657" height="489" viewBox="0 0 657 489" fill="none" xmlns="http://www.w3.org/2000/svg">
<g clip-path="url(#clip0_33_2143)">
<path d="M657 429.68H0V429.942H657V429.68Z" fill="#EBEBEB"/>
<path d="M591.169 450.809H547.675V451.072H591.169V450.809Z" fill="#EBEBEB"/>
<path d="M435.197 454.484H423.765V454.746H435.197V454.484Z" fill="#EBEBEB"/>
<path d="M546.361 438.735H521.132V438.998H546.361V438.735Z" fill="#EBEBEB"/>
<path d="M125.75 440.835H68.9851V441.097H125.75V440.835Z" fill="#EBEBEB"/>
<path d="M145.723 440.835H137.444V441.097H145.723V440.835Z" fill="#EBEBEB"/>
<path d="M295.913 446.478H172.791V446.741H295.913V446.478Z" fill="#EBEBEB"/>
<path d="M311.418 371.147H57.6846C53.6112 371.147 50.1948 367.734 50.1948 363.666V7.48068C50.1948 3.41224 53.6112 0 57.6846 0H311.418C315.491 0 318.908 3.41224 318.908 7.48068V363.666C318.908 367.866 315.623 371.147 311.418 371.147ZM57.6846 0.26248C53.7426 0.26248 50.4576 3.41224 50.4576 7.48068V363.666C50.4576 367.603 53.6112 370.884 57.6846 370.884H311.418C315.36 370.884 318.645 367.734 318.645 363.666V7.48068C318.645 3.54348 315.491 0.26248 311.418 0.26248H57.6846Z" fill="#EBEBEB"/>
<path d="M595.636 371.147H341.903C337.83 371.147 334.413 367.734 334.413 363.666V7.48068C334.413 3.41224 337.83 0 341.903 0H595.636C599.71 0 603.126 3.41224 603.126 7.48068V363.666C603.126 367.866 599.841 371.147 595.636 371.147ZM341.903 0.26248C337.961 0.26248 334.676 3.41224 334.676 7.48068V363.666C334.676 367.603 337.83 370.884 341.903 370.884H595.636C599.578 370.884 602.863 367.734 602.863 363.666V7.48068C602.863 3.54348 599.71 0.26248 595.636 0.26248H341.903Z" fill="#EBEBEB"/>
<path d="M292.496 169.037H86.8555V429.155H292.496V169.037Z" fill="#F0F0F0"/>
<path d="M285.401 178.486H94.2139V234.132H285.401V178.486Z" fill="#E0E0E0"/>
<path d="M105.12 187.542H94.2139V234.132H105.12V187.542Z" fill="#EBEBEB"/>
<path d="M157.549 187.542H146.643V234.132H157.549V187.542Z" fill="#EBEBEB"/>
<path d="M217.228 186.304L206.48 188.153L214.401 234.068L225.149 232.218L217.228 186.304Z" fill="#EBEBEB"/>
<path d="M118.523 193.579H107.617V234.001H118.523V193.579Z" fill="#EBEBEB"/>
<path d="M143.489 193.579H132.583V234.001H143.489V193.579Z" fill="#EBEBEB"/>
<path d="M206.561 193.579H195.655V234.001H206.561V193.579Z" fill="#EBEBEB"/>
<path d="M171.808 192.232L161.161 194.595L169.94 234.055L180.586 231.692L171.808 192.232Z" fill="#EBEBEB"/>
<path d="M127.852 185.18H122.465V234.132H127.852V185.18Z" fill="#EBEBEB"/>
<path d="M192.37 185.18H186.982V234.132H192.37V185.18Z" fill="#EBEBEB"/>
<path d="M94.1177 298.557H285.305V242.911L94.1177 242.911V298.557Z" fill="#E0E0E0"/>
<path d="M274.406 298.507H285.312V251.917H274.406V298.507Z" fill="#EBEBEB"/>
<path d="M221.957 298.507H232.863V251.917H221.957V298.507Z" fill="#EBEBEB"/>
<path d="M154.354 296.728L165.102 298.577L173.023 252.663L162.275 250.813L154.354 296.728Z" fill="#EBEBEB"/>
<path d="M261.031 298.614H271.938V258.192H261.031V298.614Z" fill="#EBEBEB"/>
<path d="M235.95 298.614H246.856V258.192H235.95V298.614Z" fill="#EBEBEB"/>
<path d="M173.028 298.614H183.934V258.192H173.028V298.614Z" fill="#EBEBEB"/>
<path d="M198.898 296.221L209.545 298.584L218.323 259.124L207.676 256.762L198.898 296.221Z" fill="#EBEBEB"/>
<path d="M251.672 298.555H257.059V249.602H251.672V298.555Z" fill="#EBEBEB"/>
<path d="M187.149 298.555H192.536V249.602H187.149V298.555Z" fill="#EBEBEB"/>
<path d="M105.12 251.981H94.2139V298.571H105.12V251.981Z" fill="#EBEBEB"/>
<path d="M118.523 258.018H107.617V298.44H118.523V258.018Z" fill="#EBEBEB"/>
<path d="M143.489 258.018H132.583V298.44H143.489V258.018Z" fill="#EBEBEB"/>
<path d="M127.852 249.618H122.465V298.571H127.852V249.618Z" fill="#EBEBEB"/>
<path d="M285.401 307.364H94.2139V363.01H285.401V307.364Z" fill="#E0E0E0"/>
<path d="M214.839 316.419H203.933V363.01H214.839V316.419Z" fill="#EBEBEB"/>
<path d="M274.385 315.195L263.637 317.045L271.558 362.959L282.306 361.11L274.385 315.195Z" fill="#EBEBEB"/>
<path d="M175.813 322.457H164.907V362.878H175.813V322.457Z" fill="#EBEBEB"/>
<path d="M200.648 322.457H189.742V362.878H200.648V322.457Z" fill="#EBEBEB"/>
<path d="M263.72 322.457H252.814V362.878H263.72V322.457Z" fill="#EBEBEB"/>
<path d="M229.097 321.093L218.45 323.456L227.228 362.916L237.875 360.553L229.097 321.093Z" fill="#EBEBEB"/>
<path d="M185.011 314.057H179.624V363.01H185.011V314.057Z" fill="#EBEBEB"/>
<path d="M249.66 314.057H244.273V363.01H249.66V314.057Z" fill="#EBEBEB"/>
<path d="M149.42 315.198L138.672 317.047L146.593 362.962L157.341 361.112L149.42 315.198Z" fill="#EBEBEB"/>
<path d="M138.758 322.457H127.852V362.878H138.758V322.457Z" fill="#EBEBEB"/>
<path d="M104.134 321.101L93.4878 323.463L102.266 362.923L112.913 360.56L104.134 321.101Z" fill="#EBEBEB"/>
<path d="M124.699 314.057H119.311V363.01H124.699V314.057Z" fill="#EBEBEB"/>
<path d="M401.164 273.898H517.059C529.674 273.898 539.791 284.134 539.791 296.602V387.027H378.432V296.602C378.432 284.003 388.55 273.898 401.164 273.898Z" fill="#E6E6E6"/>
<path d="M344.137 340.83H364.898C372.388 340.83 378.432 346.867 378.432 354.348V429.155H330.603V354.348C330.603 346.867 336.647 340.83 344.137 340.83Z" fill="#E0E0E0"/>
<path d="M344.137 340.83H344.531C352.021 340.83 358.065 346.867 358.065 354.348V429.155H330.603V354.348C330.603 346.867 336.647 340.83 344.137 340.83Z" fill="#EBEBEB"/>
<path d="M522.972 394.77H363.847V429.155H522.972V394.77Z" fill="#E6E6E6"/>
<path d="M363.584 363.403H517.059C524.68 363.403 530.856 369.572 530.856 377.184V385.714C530.856 393.326 524.68 399.494 517.059 399.494H363.584C355.963 399.494 349.787 393.326 349.787 385.714V377.184C349.918 369.572 356.094 363.403 363.584 363.403Z" fill="#F5F5F5"/>
<path d="M497.743 363.403H516.796C524.417 363.403 530.593 369.572 530.593 377.184V385.714C530.593 393.326 524.417 399.494 516.796 399.494H497.743C490.122 399.494 483.946 393.326 483.946 385.714V377.184C484.078 369.572 490.122 363.403 497.743 363.403Z" fill="#E0E0E0"/>
<path d="M518.899 340.83H539.66C547.15 340.83 553.194 346.867 553.194 354.348V429.155H505.365V354.348C505.365 346.867 511.409 340.83 518.899 340.83Z" fill="#E0E0E0"/>
<path d="M518.899 340.83H519.293C526.783 340.83 532.827 346.867 532.827 354.348V429.155H505.365V354.348C505.365 346.867 511.409 340.83 518.899 340.83Z" fill="#F0F0F0"/>
<path d="M197.463 137.397C214.369 134.656 225.85 118.747 223.106 101.862C220.362 84.9769 204.433 73.5103 187.528 76.2506C170.622 78.991 159.141 94.9005 161.885 111.786C164.629 128.671 180.558 140.137 197.463 137.397Z" fill="#E0E0E0"/>
<path d="M196.706 132.733C211.032 130.411 220.762 116.928 218.437 102.619C216.111 88.3094 202.612 78.592 188.285 80.9143C173.959 83.2367 164.229 96.7193 166.555 111.029C168.88 125.338 182.379 135.055 196.706 132.733Z" fill="#F0F0F0"/>
<path d="M191.187 124.94V106.567L179.098 113.391" fill="#F0F0F0"/>
<path d="M191.187 124.94V106.567L179.098 113.391" stroke="#E0E0E0" stroke-width="2" stroke-miterlimit="10" stroke-linecap="round" stroke-linejoin="round"/>
<path d="M563.312 67.851H365.161V243.45H563.312V67.851Z" fill="#E6E6E6"/>
<path d="M557.924 72.7069H370.022V238.725H557.924V72.7069Z" fill="#F0F0F0"/>
<path d="M414.173 72.7069L370.022 238.332V160.506L393.412 72.7069H414.173Z" fill="white"/>
<path d="M429.809 72.7069L385.265 238.725H378.169L422.714 72.7069H429.809Z" fill="white"/>
<path d="M557.924 177.436V203.947L548.989 238.725H541.894L557.924 177.436Z" fill="white"/>
<path d="M435.591 69.6884H432.438V242.4H435.591V69.6884Z" fill="#E6E6E6"/>
<path d="M496.955 69.6884H493.801V242.4H496.955V69.6884Z" fill="#E6E6E6"/>
<path d="M328.5 489C469.214 489 583.285 482.36 583.285 474.17C583.285 465.979 469.214 459.34 328.5 459.34C187.786 459.34 73.7153 465.979 73.7153 474.17C73.7153 482.36 187.786 489 328.5 489Z" fill="#F5F5F5"/>
<path d="M528.097 441.36C528.097 441.36 534.404 427.711 527.177 414.325C520.081 400.938 517.979 397.788 522.578 395.032C527.177 392.276 529.148 405.794 529.148 405.794C529.148 405.794 532.958 396.476 529.805 386.764C526.651 377.052 524.68 361.304 529.016 359.597C533.353 357.891 529.805 379.283 533.615 386.633C533.615 386.633 536.769 378.496 537.295 370.753C537.82 363.01 537.032 350.542 540.448 347.392C543.865 344.242 546.098 346.473 542.682 363.666C539.266 380.858 539.397 394.901 539.397 394.901C539.397 394.901 546.755 372.328 551.749 371.672C556.742 371.015 556.742 378.365 552.406 384.664C548.201 390.964 539.923 402.382 538.609 408.156C538.609 408.156 546.755 391.226 554.114 396.345C561.472 401.594 547.807 411.831 541.631 415.506C535.586 419.18 531.25 442.41 531.25 442.41L528.097 441.36Z" fill="#605BFF"/>
<path opacity="0.2" d="M528.097 441.36C528.097 441.36 534.404 427.711 527.177 414.325C520.081 400.938 517.979 397.788 522.578 395.032C527.177 392.276 529.148 405.794 529.148 405.794C529.148 405.794 532.958 396.476 529.805 386.764C526.651 377.052 524.68 361.304 529.016 359.597C533.353 357.891 529.805 379.283 533.615 386.633C533.615 386.633 536.769 378.496 537.295 370.753C537.82 363.01 537.032 350.542 540.448 347.392C543.865 344.242 546.098 346.473 542.682 363.666C539.266 380.858 539.397 394.901 539.397 394.901C539.397 394.901 546.755 372.328 551.749 371.672C556.742 371.015 556.742 378.365 552.406 384.664C548.201 390.964 539.923 402.382 538.609 408.156C538.609 408.156 546.755 391.226 554.114 396.345C561.472 401.594 547.807 411.831 541.631 415.506C535.586 419.18 531.25 442.41 531.25 442.41L528.097 441.36Z" fill="black"/>
<path d="M532.959 446.872C532.959 446.872 526.914 433.223 534.141 419.837C541.368 406.581 543.602 403.432 539.003 400.544C534.535 397.788 532.302 411.175 532.302 411.175C532.302 411.175 528.622 401.857 531.907 392.145C535.192 382.433 537.426 366.684 533.09 364.978C528.754 363.272 532.039 384.664 528.228 391.882C528.228 391.882 525.206 383.746 524.812 375.871C524.418 368.128 525.337 355.66 521.921 352.379C518.505 349.098 516.271 351.329 519.424 368.522C522.578 385.714 522.315 399.757 522.315 399.757C522.315 399.757 515.22 377.052 510.226 376.396C505.233 375.609 505.233 382.958 509.307 389.389C513.511 395.82 521.527 407.238 522.841 413.143C522.841 413.143 514.957 396.082 507.598 401.201C500.24 406.319 513.774 416.687 519.819 420.493C525.863 424.299 529.805 447.528 529.805 447.528L532.959 446.872Z" fill="#605BFF"/>
<path d="M504.97 437.16H555.165L551.092 472.989H509.044L504.97 437.16Z" fill="#263238"/>
<path d="M318.776 467.214V471.939C318.776 472.464 318.251 472.989 317.725 472.989H184.485C179.492 472.989 176.207 468.002 178.047 463.408L220.226 358.941L288.423 359.466L286.058 372.984L270.947 460.652C270.421 463.539 272.655 466.033 275.546 466.033H317.594C318.251 466.164 318.776 466.689 318.776 467.214Z" fill="#263238"/>
<path opacity="0.5" d="M318.776 467.214V471.939C318.776 472.464 318.251 472.989 317.725 472.989H184.485C179.492 472.989 176.207 468.002 178.047 463.408L204.195 398.707L220.226 358.941L288.423 359.466L286.058 372.984L279.488 411.175L270.947 460.783C270.421 463.671 272.655 466.164 275.546 466.164H317.594C318.251 466.164 318.776 466.689 318.776 467.214Z" fill="white"/>
<path opacity="0.2" d="M275.677 466.164H188.953C186.719 466.164 185.274 463.933 186.194 461.965L223.248 372.984H286.189L271.078 460.652C270.552 463.671 272.786 466.164 275.677 466.164Z" fill="black"/>
<path opacity="0.1" d="M288.423 359.466L286.189 373.115L279.619 411.175L204.195 398.707L220.226 359.072L288.423 359.466Z" fill="black"/>
<path d="M421.137 164.706H414.435H111.953H105.251C100.784 164.706 97.1045 168.381 97.1045 172.843V386.502C97.1045 390.964 100.784 394.638 105.251 394.638H111.953H414.567H421.268C425.736 394.638 429.415 390.964 429.415 386.502V172.843C429.284 168.381 425.604 164.706 421.137 164.706Z" fill="#263238"/>
<path opacity="0.6" d="M421.137 164.706H414.435H111.953H105.251C100.784 164.706 97.1045 168.381 97.1045 172.843V386.502C97.1045 390.964 100.784 394.638 105.251 394.638H111.953H414.567H421.268C425.736 394.638 429.415 390.964 429.415 386.502V172.843C429.284 168.381 425.604 164.706 421.137 164.706Z" fill="white"/>
<path opacity="0.2" d="M111.953 394.507H105.251C100.784 394.507 97.2358 390.833 97.2358 386.502V172.843C97.2358 168.381 100.915 164.706 105.251 164.706H111.953C107.485 164.706 103.937 168.381 103.937 172.843V386.502C103.806 390.964 107.485 394.507 111.953 394.507Z" fill="black"/>
<path d="M422.057 171.662H111.164V377.709H422.057V171.662Z" fill="#605BFF"/>
<path opacity="0.4" d="M262.274 250.012C277.151 250.012 289.211 237.967 289.211 223.108C289.211 208.249 277.151 196.204 262.274 196.204C247.398 196.204 235.337 208.249 235.337 223.108C235.337 237.967 247.398 250.012 262.274 250.012Z" fill="white"/>
<path d="M255.836 219.039V216.546C255.836 214.052 257.807 212.084 260.303 212.084H264.245C266.742 212.084 268.713 214.052 268.713 216.546V219.039H271.604V216.546C271.604 212.477 268.319 209.196 264.245 209.196H260.303C256.23 209.196 252.945 212.477 252.945 216.546V219.039H255.836Z" fill="white"/>
<path d="M249.397 222.452V235.707C249.397 236.494 250.054 237.151 250.843 237.151H273.838C274.626 237.151 275.283 236.494 275.283 235.707V222.452C275.283 221.664 274.626 221.008 273.838 221.008H250.843C250.054 220.877 249.397 221.533 249.397 222.452ZM263.063 229.932V232.557H261.486V229.932C260.96 229.67 260.698 229.145 260.698 228.62C260.698 227.701 261.486 227.045 262.274 227.045C263.194 227.045 263.851 227.833 263.851 228.62C263.851 229.145 263.588 229.67 263.063 229.932Z" fill="white"/>
<path d="M196.443 303.427H170.951C169.375 303.427 168.192 302.246 168.192 300.671V275.21C168.192 273.635 169.375 272.454 170.951 272.454H196.443C198.02 272.454 199.202 273.635 199.202 275.21V300.671C199.202 302.114 197.888 303.427 196.443 303.427Z" fill="white"/>
<path d="M235.731 303.295H210.24C208.663 303.295 207.48 302.114 207.48 300.539V275.079C207.48 273.504 208.663 272.323 210.24 272.323H235.731C237.308 272.323 238.491 273.504 238.491 275.079V300.539C238.491 302.114 237.308 303.295 235.731 303.295Z" fill="white"/>
<path d="M275.02 303.295H249.528C247.952 303.295 246.769 302.114 246.769 300.539V275.079C246.769 273.504 247.952 272.323 249.528 272.323H275.02C276.597 272.323 277.779 273.504 277.779 275.079V300.539C277.779 302.114 276.597 303.295 275.02 303.295Z" fill="white"/>
<path d="M314.309 303.295H288.817C287.24 303.295 286.058 302.114 286.058 300.539V275.079C286.058 273.504 287.24 272.323 288.817 272.323H314.309C315.885 272.323 317.068 273.504 317.068 275.079V300.539C317.068 301.983 315.885 303.295 314.309 303.295Z" fill="white"/>
<path d="M353.597 303.164H328.106C326.529 303.164 325.346 301.983 325.346 300.408V274.948C325.346 273.373 326.529 272.192 328.106 272.192H353.597C355.174 272.192 356.357 273.373 356.357 274.948V300.539C356.357 301.983 355.174 303.164 353.597 303.164Z" fill="white"/>
<g opacity="0.6">
<path d="M236.651 320.094L236.914 319.569C237.44 319.963 238.228 320.357 239.017 320.357C240.199 320.357 240.725 319.832 240.725 319.176C240.725 317.469 236.783 318.519 236.783 316.157C236.783 315.238 237.571 314.451 239.148 314.451C239.936 314.451 240.593 314.713 241.119 314.976L240.856 315.501C240.331 315.107 239.674 314.976 239.148 314.976C237.965 314.976 237.44 315.501 237.44 316.157C237.44 317.863 241.382 316.813 241.382 319.176C241.382 320.094 240.593 320.882 239.017 320.882C238.097 321.013 237.177 320.619 236.651 320.094Z" fill="white"/>
<path d="M247.032 318.782H242.959C243.09 319.832 243.747 320.488 244.798 320.488C245.324 320.488 245.849 320.225 246.244 319.832L246.638 320.225C246.244 320.75 245.587 321.013 244.798 321.013C243.353 321.013 242.302 319.963 242.302 318.519C242.302 317.076 243.353 316.026 244.667 316.026C245.981 316.026 247.032 317.076 247.032 318.519C247.032 318.519 247.032 318.651 247.032 318.782ZM242.959 318.257H246.375C246.244 317.338 245.587 316.682 244.667 316.682C243.747 316.682 243.09 317.338 242.959 318.257Z" fill="white"/>
<path d="M252.814 318.126V320.882H252.157V318.126C252.157 317.076 251.631 316.551 250.711 316.551C249.66 316.551 249.003 317.207 249.003 318.257V320.75H248.346V315.895H249.003V316.813C249.397 316.288 250.054 315.895 250.843 315.895C252.025 316.026 252.814 316.682 252.814 318.126Z" fill="white"/>
<path d="M259.121 314.057V320.882H258.464V319.963C258.07 320.619 257.413 321.013 256.624 321.013C255.179 321.013 254.259 319.963 254.259 318.519C254.259 317.076 255.31 316.026 256.624 316.026C257.413 316.026 258.07 316.419 258.464 316.944V314.057H259.121ZM258.464 318.519C258.464 317.338 257.675 316.682 256.624 316.682C255.573 316.682 254.785 317.469 254.785 318.519C254.785 319.7 255.573 320.357 256.624 320.357C257.675 320.357 258.464 319.7 258.464 318.519Z" fill="white"/>
<path d="M267.005 317.994V321.013H266.348V320.225C266.085 320.75 265.428 321.013 264.64 321.013C263.588 321.013 262.931 320.488 262.931 319.569C262.931 318.782 263.457 318.257 264.771 318.257H266.348V317.994C266.348 317.207 265.822 316.682 265.034 316.682C264.377 316.682 263.851 316.944 263.457 317.207L263.194 316.682C263.72 316.288 264.377 316.026 265.165 316.026C266.216 316.026 267.005 316.682 267.005 317.994ZM266.348 319.438V318.651H264.771C263.851 318.651 263.588 319.044 263.588 319.569C263.588 320.094 263.983 320.488 264.771 320.488C265.428 320.488 266.085 320.094 266.348 319.438Z" fill="white"/>
<path d="M273.181 316.157V320.357C273.181 322.063 272.392 322.719 270.815 322.719C269.896 322.719 269.107 322.457 268.582 321.932L268.976 321.407C269.501 321.8 270.158 322.063 270.815 322.063C271.998 322.063 272.655 321.538 272.655 320.357V319.7C272.261 320.357 271.604 320.619 270.815 320.619C269.37 320.619 268.45 319.7 268.45 318.257C268.45 316.813 269.501 315.895 270.815 315.895C271.604 315.895 272.261 316.288 272.786 316.813V315.895H273.181V316.157ZM272.524 318.388C272.524 317.338 271.735 316.682 270.684 316.682C269.633 316.682 268.844 317.338 268.844 318.388C268.844 319.438 269.633 320.225 270.684 320.225C271.735 320.225 272.524 319.438 272.524 318.388Z" fill="white"/>
<path d="M278.699 317.994V321.013H278.042V320.225C277.78 320.75 277.123 321.013 276.334 321.013C275.283 321.013 274.626 320.488 274.626 319.569C274.626 318.782 275.152 318.257 276.466 318.257H278.042V317.994C278.042 317.207 277.517 316.682 276.728 316.682C276.071 316.682 275.546 316.944 275.152 317.207L274.889 316.682C275.414 316.288 276.071 316.026 276.86 316.026C278.042 316.026 278.699 316.682 278.699 317.994ZM278.042 319.438V318.651H276.466C275.546 318.651 275.283 319.044 275.283 319.569C275.283 320.094 275.677 320.488 276.466 320.488C277.254 320.488 277.78 320.094 278.042 319.438Z" fill="white"/>
<path d="M280.276 314.582C280.276 314.32 280.539 314.057 280.802 314.057C281.065 314.057 281.327 314.32 281.327 314.451C281.327 314.713 281.065 314.976 280.802 314.976C280.539 314.976 280.276 314.845 280.276 314.582ZM280.539 316.157H281.196V321.013H280.539V316.157Z" fill="white"/>
<path d="M287.372 318.126V320.882H286.715V318.126C286.715 317.076 286.189 316.551 285.269 316.551C284.218 316.551 283.561 317.207 283.561 318.257V320.75H282.904V315.895H283.561V316.813C283.955 316.288 284.612 315.895 285.401 315.895C286.583 316.026 287.372 316.682 287.372 318.126Z" fill="white"/>
</g>
<path opacity="0.4" d="M298.935 353.692H225.745C219.701 353.692 214.839 348.836 214.839 342.799C214.839 336.762 219.701 331.906 225.745 331.906H298.935C304.979 331.906 309.841 336.762 309.841 342.799C309.841 348.836 304.979 353.692 298.935 353.692Z" fill="white"/>
<path d="M233.76 342.274C233.76 340.043 235.469 338.468 237.702 338.468C238.885 338.468 239.805 338.862 240.462 339.649L239.805 340.305C239.279 339.649 238.491 339.386 237.702 339.386C235.994 339.386 234.812 340.568 234.812 342.274C234.812 343.849 235.994 345.161 237.702 345.161C238.491 345.161 239.148 344.899 239.805 344.242L240.462 344.899C239.805 345.686 238.754 346.08 237.702 346.08C235.337 346.08 233.76 344.505 233.76 342.274Z" fill="white"/>
<path d="M241.119 342.274C241.119 340.174 242.827 338.468 245.061 338.468C247.295 338.468 249.003 340.043 249.003 342.274C249.003 344.374 247.295 346.08 245.061 346.08C242.827 346.08 241.119 344.374 241.119 342.274ZM247.952 342.274C247.952 340.699 246.769 339.386 245.061 339.386C243.353 339.386 242.17 340.568 242.17 342.274C242.17 343.849 243.353 345.161 245.061 345.161C246.638 345.161 247.952 343.849 247.952 342.274Z" fill="white"/>
<path d="M256.887 338.599V345.948H255.967L251.499 340.436V345.948H250.448V338.599H251.368L255.836 344.111V338.599H256.887Z" fill="white"/>
<path d="M260.566 339.518H258.07V338.599H264.114V339.518H261.617V345.948H260.566V339.518Z" fill="white"/>
<path d="M265.296 338.599H266.348V345.948H265.296V338.599Z" fill="white"/>
<path d="M274.889 338.599V345.948H273.969L269.501 340.436V345.948H268.45V338.599H269.37L273.838 344.111V338.599H274.889Z" fill="white"/>
<path d="M276.991 342.799V338.599H278.042V342.799C278.042 344.374 278.831 345.161 280.145 345.161C281.459 345.161 282.247 344.374 282.247 342.799V338.599H283.298V342.799C283.298 344.899 282.116 346.08 280.145 346.08C278.174 346.08 276.991 344.899 276.991 342.799Z" fill="white"/>
<path d="M290.788 345.03V345.948H285.401V338.599H290.657V339.518H286.452V341.749H290.131V342.667H286.452V345.03H290.788Z" fill="white"/>
<path opacity="0.1" d="M389.601 172.712C346.633 215.758 236.257 311.432 111.164 304.345V172.712H389.601Z" fill="white"/>
<path opacity="0.1" d="M421.925 251.718V378.627H234.812C242.039 353.035 256.361 317.863 284.218 292.796C334.282 247.65 392.36 247.781 421.925 251.718Z" fill="white"/>
<path d="M461.477 152.37L465.813 171.662L470.281 152.37H461.477Z" fill="#605BFF"/>
<path opacity="0.7" d="M461.477 152.37L465.813 171.662L470.281 152.37H461.477Z" fill="white"/>
<path d="M514.694 156.7H417.064C410.888 156.7 405.763 151.713 405.763 145.414V109.192C405.763 103.023 410.756 97.905 417.064 97.905H514.694C520.87 97.905 525.994 102.892 525.994 109.192V145.414C525.994 151.582 520.87 156.7 514.694 156.7Z" fill="#605BFF"/>
<path opacity="0.7" d="M514.694 156.7H417.064C410.888 156.7 405.763 151.713 405.763 145.414V109.192C405.763 103.023 410.756 97.905 417.064 97.905H514.694C520.87 97.905 525.994 102.892 525.994 109.192V145.414C525.994 151.582 520.87 156.7 514.694 156.7Z" fill="white"/>
<g opacity="0.5">
<path d="M429.809 126.381V128.874H428.758V126.25L425.867 121.525H427.05L429.415 125.462L431.78 121.525H432.832L429.809 126.381Z" fill="#263238"/>
<path d="M432.438 126.118C432.438 124.412 433.62 123.231 435.328 123.231C437.036 123.231 438.219 124.412 438.219 126.118C438.219 127.824 437.036 129.006 435.328 129.006C433.751 128.874 432.438 127.693 432.438 126.118ZM437.299 126.118C437.299 124.937 436.511 124.15 435.46 124.15C434.408 124.15 433.62 124.937 433.62 126.118C433.62 127.3 434.408 128.087 435.46 128.087C436.511 128.087 437.299 127.3 437.299 126.118Z" fill="#263238"/>
<path d="M444.92 123.362V128.874H444.001V128.087C443.606 128.612 442.949 129.006 442.161 129.006C440.716 129.006 439.796 128.218 439.796 126.643V123.494H440.847V126.643C440.847 127.693 441.373 128.218 442.292 128.218C443.344 128.218 444.001 127.562 444.001 126.381V123.494H444.92V123.362Z" fill="#263238"/>
<path d="M449.782 123.231V124.15C449.651 124.15 449.651 124.15 449.519 124.15C448.468 124.15 447.811 124.806 447.811 125.987V128.874H446.76V123.362H447.68V124.281C448.074 123.625 448.862 123.231 449.782 123.231Z" fill="#263238"/>
<path d="M453.461 125.2C453.461 123.1 455.17 121.394 457.403 121.394C459.637 121.394 461.345 122.969 461.345 125.2C461.345 127.3 459.637 129.006 457.403 129.006C455.17 129.006 453.461 127.3 453.461 125.2ZM460.294 125.2C460.294 123.625 459.112 122.312 457.403 122.312C455.695 122.312 454.513 123.494 454.513 125.2C454.513 126.775 455.695 128.087 457.403 128.087C458.98 127.956 460.294 126.775 460.294 125.2Z" fill="#263238"/>
<path d="M464.236 122.444H461.74V121.525H467.784V122.444H465.287V128.874H464.236V122.444Z" fill="#263238"/>
<path d="M474.88 124.019C474.88 125.593 473.697 126.643 471.857 126.643H470.018V128.874H468.967V121.525H471.857C473.697 121.525 474.88 122.444 474.88 124.019ZM473.828 124.019C473.828 122.969 473.171 122.312 471.726 122.312H469.886V125.593H471.726C473.171 125.725 473.828 125.068 473.828 124.019Z" fill="#263238"/>
<path d="M478.822 125.2C478.822 122.969 480.53 121.394 482.764 121.394C483.946 121.394 484.866 121.787 485.523 122.575L484.866 123.231C484.34 122.575 483.552 122.312 482.764 122.312C481.055 122.312 479.873 123.494 479.873 125.2C479.873 126.775 481.055 128.087 482.764 128.087C483.552 128.087 484.209 127.824 484.866 127.168L485.523 127.824C484.866 128.612 483.815 129.006 482.764 129.006C480.398 129.006 478.822 127.3 478.822 125.2Z" fill="#263238"/>
<path d="M486.049 126.118C486.049 124.412 487.231 123.231 488.939 123.231C490.648 123.231 491.83 124.412 491.83 126.118C491.83 127.824 490.648 129.006 488.939 129.006C487.363 128.874 486.049 127.693 486.049 126.118ZM490.91 126.118C490.91 124.937 490.122 124.15 489.071 124.15C488.02 124.15 487.231 124.937 487.231 126.118C487.231 127.3 488.02 128.087 489.071 128.087C490.122 128.087 490.91 127.3 490.91 126.118Z" fill="#263238"/>
<path d="M498.532 121.131V128.874H497.612V127.956C497.218 128.612 496.429 128.874 495.641 128.874C494.064 128.874 492.881 127.693 492.881 125.987C492.881 124.281 494.064 123.1 495.641 123.1C496.429 123.1 497.086 123.362 497.612 124.019V121H498.532V121.131ZM497.48 126.118C497.48 124.937 496.692 124.15 495.641 124.15C494.59 124.15 493.801 124.937 493.801 126.118C493.801 127.3 494.59 128.087 495.641 128.087C496.692 128.087 497.48 127.3 497.48 126.118Z" fill="#263238"/>
<path d="M505.496 126.381H501.028C501.16 127.3 501.948 127.956 502.999 127.956C503.656 127.956 504.182 127.693 504.576 127.3L505.102 127.956C504.576 128.481 503.788 128.874 502.868 128.874C501.028 128.874 499.846 127.693 499.846 125.987C499.846 124.281 501.028 123.1 502.605 123.1C504.182 123.1 505.365 124.281 505.365 125.987C505.496 126.25 505.496 126.381 505.496 126.381ZM500.897 125.725H504.445C504.313 124.806 503.656 124.15 502.605 124.15C501.817 124.15 501.028 124.806 500.897 125.725Z" fill="#263238"/>
</g>
<path d="M455.038 208.803L456.352 209.721L457.798 210.64C458.849 211.296 459.9 211.821 460.82 212.477C462.922 213.659 465.025 214.84 467.258 215.758C471.595 217.727 476.062 219.302 480.661 220.352H480.924C481.055 220.352 481.055 220.352 481.055 220.352C480.924 220.352 480.924 220.352 480.793 220.352C480.53 220.352 479.873 220.483 479.216 220.877C478.559 221.271 478.033 221.927 477.902 222.32C477.77 222.714 477.77 222.977 477.77 222.977C477.77 223.108 477.902 222.714 477.902 222.32C477.902 221.927 477.902 221.402 477.77 220.877C477.376 218.777 476.719 216.415 476.062 214.052C474.617 209.328 472.777 204.472 471.069 199.747L476.194 196.991C479.216 201.322 481.975 205.915 484.34 210.771C485.523 213.265 486.574 215.758 487.494 218.646C487.757 219.433 487.888 220.221 488.02 221.008C488.151 221.927 488.282 222.845 488.151 224.158C488.02 224.814 487.888 225.601 487.494 226.651C487.1 227.57 486.18 228.751 484.866 229.539C483.552 230.326 482.369 230.457 481.45 230.589C480.924 230.589 480.53 230.589 480.136 230.589H479.741H479.479C473.828 229.801 468.441 228.357 463.316 226.126C460.82 225.076 458.192 223.895 455.827 222.583C454.644 221.927 453.461 221.139 452.279 220.483C451.753 220.089 451.096 219.696 450.571 219.302C449.914 218.908 449.388 218.514 448.731 217.99L455.038 208.803Z" fill="#DC897C"/>
<path d="M453.593 207.359C461.214 208.278 466.207 212.478 466.207 212.478L460.951 228.751C460.951 228.751 435.46 205.259 453.593 207.359Z" fill="#605BFF"/>
<path opacity="0.6" d="M453.593 221.139C457.272 225.339 460.951 228.751 460.951 228.751L463.185 222.058L466.339 212.477C466.339 212.477 461.214 208.147 453.724 207.359C442.424 206.047 447.811 214.446 453.593 221.139Z" fill="white"/>
<path opacity="0.2" d="M453.593 221.139C457.272 225.339 460.951 228.751 460.951 228.751L463.185 222.058C458.586 218.515 453.593 218.777 453.593 218.777C453.461 219.564 453.461 220.352 453.593 221.139Z" fill="black"/>
<path d="M396.828 183.342C396.828 183.342 384.608 223.895 410.362 229.407C436.117 234.788 438.745 216.152 438.745 216.152C438.745 216.152 417.721 184.261 396.828 183.342Z" fill="#263238"/>
<path d="M390.784 196.466C390.784 196.466 392.098 194.104 394.332 193.973" stroke="#263238" stroke-width="0.482" stroke-miterlimit="10" stroke-linecap="round" stroke-linejoin="round"/>
<path d="M394.463 201.847C394.463 201.847 394.2 204.603 393.412 206.44C393.412 206.44 394.594 207.359 396.04 206.44L394.463 201.847Z" fill="#DE5753"/>
<path d="M391.966 200.141C392.229 200.797 392.886 201.322 393.28 201.06C393.806 200.928 393.937 200.141 393.675 199.485C393.412 198.828 392.755 198.304 392.361 198.566C391.835 198.697 391.704 199.353 391.966 200.141Z" fill="#263238"/>
<path d="M392.623 198.435H390.784C390.784 198.435 392.098 199.485 392.623 198.435Z" fill="#263238"/>
<path d="M418.115 206.965C418.115 207.097 417.984 207.228 417.984 207.228C417.852 207.49 417.721 207.622 417.589 207.884C416.801 209.196 415.881 210.509 414.567 211.559C410.625 214.709 407.209 215.627 404.187 214.709C404.055 214.709 403.924 214.577 403.792 214.577C399.325 212.74 395.908 207.49 393.149 200.535C391.835 197.385 391.047 194.366 390.915 191.873V191.742C390.915 191.61 390.915 191.479 390.915 191.348C390.784 187.804 392.098 184.917 395.12 182.424C396.171 181.636 397.485 180.849 398.931 180.061C411.939 173.762 424.685 194.498 418.115 206.965Z" fill="#E4897B"/>
<path opacity="0.2" d="M417.589 207.884C416.801 209.196 415.881 210.509 414.567 211.559C410.625 214.709 407.209 215.627 404.187 214.709C406.552 214.052 409.442 212.74 411.676 210.115C413.122 208.54 415.224 207.884 417.589 207.884Z" fill="black"/>
<path d="M390.784 191.742C390.784 191.742 394.463 201.322 405.106 201.191C405.106 201.191 413.516 209.065 419.166 206.572C426.919 203.159 428.495 189.248 420.611 179.405C410.494 166.806 388.287 175.862 390.784 191.742Z" fill="#263238"/>
<path d="M399.456 200.666C398.799 199.222 398.799 196.204 401.164 195.547C403.661 194.76 407.734 199.878 402.61 203.947C401.821 204.472 400.901 203.684 399.456 200.666Z" fill="#E4897B"/>
<path d="M402.347 174.155C402.347 174.155 392.361 176.124 389.207 182.03C385.396 188.854 385.265 194.235 395.251 197.647C395.251 197.647 407.866 185.836 413.253 184.523C418.641 183.211 422.977 182.948 422.977 182.948C419.298 172.712 406.289 169.824 402.347 174.155Z" fill="#263238"/>
<path d="M411.939 211.69C411.939 211.69 418.772 216.415 420.611 224.158L441.898 211.69C441.898 211.69 425.21 207.884 422.32 201.453C422.32 201.585 411.151 203.028 411.939 211.69Z" fill="#E4897B"/>
<path d="M433.094 262.874C433.094 262.874 405.5 235.838 402.478 227.308C402.478 227.308 414.041 209.196 437.299 208.54C460.557 207.753 476.325 251.849 476.325 251.849L433.094 262.874Z" fill="#605BFF"/>
<path opacity="0.6" d="M476.325 251.849L433.094 262.874C433.094 262.874 427.05 256.968 420.349 249.75C418.246 247.519 416.144 245.156 414.041 242.794C408.523 236.626 403.661 230.457 402.61 227.176C402.61 227.176 414.173 209.065 437.431 208.409C460.557 207.753 476.325 251.849 476.325 251.849Z" fill="white"/>
<path d="M407.34 196.597C407.34 196.597 411.413 209.984 425.473 214.446C439.664 218.908 436.117 233.345 449.782 231.638C457.141 230.72 463.316 215.89 440.978 202.766C427.97 195.154 432.963 170.087 405.238 172.449C405.238 172.449 411.019 189.51 407.34 196.597Z" fill="#263238"/>
<path d="M421.137 466.952L414.567 465.508C415.618 432.698 420.349 393.064 424.554 363.272C425.211 358.547 425.868 354.217 426.525 350.017C426.787 348.048 427.05 346.211 427.444 344.374C428.758 335.449 429.941 328.362 430.729 324.031C431.255 320.882 431.518 319.044 431.518 319.044L455.17 324.819L453.462 330.725L447.811 350.411L447.154 352.642L443.475 365.634L437.168 387.683C437.431 421.018 421.137 466.952 421.137 466.952Z" fill="#E4897B"/>
<path d="M477.376 461.44L470.675 461.046C465.55 425.742 463.448 381.646 462.528 350.936C462.397 346.211 462.265 341.749 462.134 337.68C462.134 337.418 462.134 337.287 462.134 337.024C462.003 329.019 461.871 322.719 461.871 318.651C461.871 315.501 461.871 313.795 461.871 313.795L486.18 315.37L485.129 325.475L483.552 340.305L483.289 343.192L482.238 353.298L479.479 380.465C485.523 413.406 477.376 461.44 477.376 461.44Z" fill="#E4897B"/>
<path d="M479.873 460.127C479.873 459.34 469.492 459.996 469.492 459.996C469.492 459.996 463.185 466.427 456.878 467.87C450.702 469.314 454.118 472.989 461.083 472.989C468.047 472.989 473.303 472.989 478.165 472.989C483.158 472.989 480.004 468.789 479.873 460.127Z" fill="#263238"/>
<path d="M463.185 462.358C462.922 462.227 462.791 461.833 462.922 461.308C463.054 461.046 463.185 460.783 463.448 460.652C463.973 460.39 464.893 460.258 465.813 460.39C465.025 459.996 464.236 459.34 464.236 458.815C464.236 458.421 464.499 458.159 464.893 457.896C465.287 457.634 465.813 457.634 466.207 457.896C467.653 458.421 468.441 460.915 468.572 461.046C468.572 461.177 468.572 461.177 468.572 461.308C468.572 461.308 468.572 461.308 468.441 461.44C467.915 461.702 465.55 462.752 464.105 462.752C463.711 462.621 463.316 462.49 463.185 462.358ZM463.711 461.046C463.579 461.177 463.448 461.308 463.448 461.44C463.316 461.833 463.448 461.965 463.579 461.965C464.105 462.358 465.944 461.833 467.521 461.177C466.207 460.915 464.499 460.521 463.711 461.046ZM465.025 458.421C464.893 458.552 464.63 458.684 464.63 458.815C464.63 459.34 466.076 460.127 467.653 460.652C467.258 459.865 466.601 458.684 465.813 458.421C465.682 458.421 465.55 458.29 465.419 458.29C465.419 458.29 465.156 458.29 465.025 458.421Z" fill="#263238"/>
<path d="M424.422 460.127C424.422 459.34 414.041 459.996 414.041 459.996C414.041 459.996 407.734 466.427 401.427 467.87C395.251 469.314 398.668 472.989 405.632 472.989C412.596 472.989 417.852 472.989 422.714 472.989C427.707 472.989 424.685 468.789 424.422 460.127Z" fill="#263238"/>
<path d="M407.734 462.358C407.471 462.227 407.34 461.833 407.471 461.308C407.603 461.046 407.734 460.783 407.997 460.652C408.523 460.39 409.442 460.258 410.362 460.39C409.574 459.996 408.785 459.34 408.785 458.815C408.785 458.421 409.048 458.159 409.442 457.896C409.837 457.634 410.362 457.634 410.756 457.896C412.202 458.421 412.99 460.915 413.122 461.046C413.122 461.177 413.122 461.177 413.122 461.308C413.122 461.308 413.122 461.308 412.99 461.44C412.465 461.702 410.099 462.752 408.654 462.752C408.26 462.621 407.866 462.49 407.734 462.358ZM408.26 461.046C408.128 461.177 407.997 461.308 407.997 461.44C407.866 461.833 407.997 461.965 408.128 461.965C408.654 462.358 410.494 461.833 412.07 461.177C410.756 460.915 409.048 460.521 408.26 461.046ZM409.574 458.421C409.442 458.552 409.18 458.684 409.18 458.815C409.18 459.34 410.625 460.127 412.202 460.652C411.808 459.865 411.151 458.684 410.362 458.421C410.231 458.421 410.099 458.29 409.968 458.29C409.968 458.29 409.837 458.29 409.574 458.421Z" fill="#263238"/>
<path d="M427.576 328.887L433.226 289.515V262.874C447.943 251.849 476.457 251.849 476.457 251.849C476.457 251.849 498.269 282.166 487.757 331.906L460.294 335.974L458.586 326.656L455.17 335.974L427.576 328.887Z" fill="#263238"/>
<path opacity="0.2" d="M427.576 328.887L433.226 289.515V262.874C447.943 251.849 476.457 251.849 476.457 251.849C476.457 251.849 498.269 282.166 487.757 331.906L460.294 335.974L458.586 326.656L455.17 335.974L427.576 328.887Z" fill="white"/>
<path opacity="0.2" d="M458.323 326.656L463.579 310.251C463.579 310.251 469.098 308.545 476.194 297.521C476.325 297.521 475.142 316.288 458.323 326.656Z" fill="black"/>
<path opacity="0.2" d="M446.629 270.486L458.98 269.304C458.98 269.304 462.002 275.21 460.951 283.872L453.067 288.597L447.417 284.528C447.417 284.528 447.154 274.16 446.629 270.486Z" fill="black"/>
<path opacity="0.2" d="M476.325 267.467C476.325 267.467 478.559 272.717 480.004 280.066L484.34 281.903L486.706 279.016C486.706 279.016 485.129 270.486 482.369 266.286L476.325 267.467Z" fill="black"/>
<path d="M427.05 326.656L456.089 335.187L454.25 338.993L426.656 330.593L427.05 326.656Z" fill="#263238"/>
<path d="M458.98 334.531L459.506 338.205L488.02 334.531L488.414 330.068L458.98 334.531Z" fill="#263238"/>
<path d="M465.025 257.23C473.434 255.918 479.084 255.918 479.084 255.918L477.376 253.031C472.646 252.899 467.915 253.162 463.579 253.818L465.025 257.23Z" fill="#263238"/>
<path d="M438.745 260.905C434.934 262.48 432.832 263.792 432.832 263.792V267.336C434.934 266.286 437.036 265.236 439.27 264.448L438.745 260.905Z" fill="#263238"/>
<path d="M440.584 263.792C448.731 260.511 456.615 258.674 463.185 257.493L461.871 253.949C452.936 255.393 445.183 258.018 440.059 260.249L440.584 263.792Z" fill="#263238"/>
<path d="M361.613 274.16L354.123 271.142L352.809 278.229C352.809 278.229 359.51 282.297 362.401 277.441L361.613 274.16Z" fill="#E4897B"/>
<path d="M350.444 271.535L348.079 277.048L352.94 278.097L354.254 271.142L350.444 271.535Z" fill="#E4897B"/>
<path d="M476.194 198.435L475.274 190.429L468.441 192.66C468.441 192.66 468.047 200.535 473.566 200.666L476.194 198.435Z" fill="#E4897B"/>
<path d="M473.172 187.411L467.259 187.936L468.573 192.791L475.274 190.56L473.172 187.411Z" fill="#E4897B"/>
<path opacity="0.2" d="M420.349 249.75C418.246 247.519 416.144 245.156 414.042 242.794C413.253 237.938 412.728 233.607 412.728 233.607C412.728 233.607 420.874 239.119 420.349 249.75Z" fill="black"/>
<path d="M413.516 231.376C412.727 234.657 411.808 237.676 410.888 240.694C409.968 243.713 408.785 246.731 407.603 249.75C406.42 252.768 405.238 255.655 403.792 258.674C403.135 260.118 402.347 261.561 401.69 263.005C401.296 263.792 400.901 264.448 400.507 265.105L399.982 266.155L399.719 266.68C399.587 266.942 399.325 267.336 399.193 267.598C397.616 269.829 395.908 271.142 394.2 272.192C392.492 273.242 390.915 273.898 389.207 274.554C385.922 275.735 382.768 276.523 379.483 277.179C373.045 278.36 366.737 279.016 360.299 279.016L359.773 273.242C362.664 272.585 365.686 271.929 368.708 271.142C371.599 270.486 374.621 269.567 377.381 268.648C380.14 267.729 382.9 266.68 385.396 265.498C386.579 264.842 387.761 264.186 388.681 263.53C389.601 262.874 390.258 262.086 390.389 261.824V261.692L390.652 261.167L391.178 260.118C391.441 259.461 391.835 258.805 392.098 258.149C392.623 256.837 393.28 255.393 393.806 254.081C394.857 251.324 395.908 248.437 396.959 245.681C398.011 242.794 398.93 239.907 399.719 237.151C400.639 234.263 401.427 231.376 402.215 228.62L413.516 231.376Z" fill="#DC897C"/>
<path d="M407.077 221.533C400.639 225.733 397.222 236.626 396.171 242.006L409.574 251.849L416.275 245.287C418.903 230.195 409.443 219.958 407.077 221.533Z" fill="#605BFF"/>
<path opacity="0.6" d="M407.077 221.533C400.639 225.733 397.222 236.626 396.171 242.006L409.574 251.849L416.275 245.287C418.903 230.195 409.443 219.958 407.077 221.533Z" fill="white"/>
<path d="M472.252 201.06L462.659 202.109C462.134 202.109 461.608 201.716 461.608 201.06L461.083 180.849C461.083 180.192 461.477 179.667 462.002 179.667L471.595 178.618C472.12 178.618 472.646 179.011 472.646 179.667L473.171 199.878C473.171 200.403 472.777 201.06 472.252 201.06Z" fill="#263238"/>
<path opacity="0.6" d="M472.252 201.06L462.659 202.109C462.134 202.109 461.608 201.716 461.608 201.06L461.083 180.849C461.083 180.192 461.477 179.667 462.002 179.667L471.595 178.618C472.12 178.618 472.646 179.011 472.646 179.667L473.171 199.878C473.171 200.403 472.777 201.06 472.252 201.06Z" fill="white"/>
<path d="M471.332 201.191L461.74 202.241C461.214 202.241 460.688 201.847 460.688 201.191L460.163 180.98C460.163 180.324 460.557 179.799 461.083 179.799L470.675 178.749C471.2 178.749 471.726 179.143 471.726 179.799L472.252 200.01C472.383 200.535 471.989 201.06 471.332 201.191Z" fill="#263238"/>
<path opacity="0.7" d="M471.332 201.191L461.74 202.241C461.214 202.241 460.688 201.847 460.688 201.191L460.163 180.98C460.163 180.324 460.557 179.799 461.083 179.799L470.675 178.749C471.2 178.749 471.726 179.143 471.726 179.799L472.252 200.01C472.383 200.535 471.989 201.06 471.332 201.191Z" fill="white"/>
<path d="M470.806 179.143L468.31 179.405L468.047 180.192L464.236 180.586L463.842 179.93L461.345 180.192C460.951 180.192 460.688 180.586 460.688 180.98L461.214 201.191C461.214 201.585 461.477 201.847 461.871 201.847L471.463 200.797C471.857 200.797 472.12 200.403 472.12 200.01L471.595 179.799C471.463 179.405 471.069 179.143 470.806 179.143Z" fill="#605BFF"/>
<path opacity="0.8" d="M469.492 186.361L462.528 187.148C462.134 187.148 461.871 186.886 461.871 186.492V184.523C461.871 184.13 462.134 183.736 462.528 183.736L469.492 182.948C469.886 182.948 470.149 183.211 470.149 183.605V185.573C470.149 185.967 469.886 186.361 469.492 186.361Z" fill="white"/>
</g>
<defs>
<clipPath id="clip0_33_2143">
<rect width="657" height="489" fill="white"/>
</clipPath>
</defs>
</svg>
